<svg width="64" height="64" viewBox="0 0 64 64" fill="none" xmlns="http://www.w3.org/2000/svg">
<g clip-path="url(#clip0_1_4155)">
<ellipse cx="16.5581" cy="55.6327" rx="14.193" ry="5.32237" fill="black" fill-opacity="0.2"/>
<path style="mix-blend-mode:screen" opacity="0.32" d="M38.5878 19.6099C38.5642 19.8601 38.5127 20.1069 38.4343 20.3456C38.2797 20.543 38.1039 20.7227 37.91 20.8815C38.1602 20.9051 38.4069 20.9566 38.6457 21.035C38.8431 21.1895 39.0228 21.3654 39.1816 21.5593C39.2052 21.3091 39.2567 21.0623 39.3351 20.8236C39.4896 20.6262 39.6654 20.4465 39.8594 20.2877C39.6092 20.2641 39.3624 20.2126 39.1236 20.1342C38.9263 19.9796 38.7466 19.8038 38.5878 19.6099Z" fill="url(#paint0_radial_1_4155)"/>
<path style="mix-blend-mode:screen" opacity="0.5" d="M42.2811 26.3249C42.1712 26.3604 42.0533 26.3622 41.9424 26.3301C41.8315 26.298 41.7327 26.2336 41.6587 26.145C41.5847 26.0564 41.5388 25.9477 41.527 25.8328C41.5152 25.718 41.538 25.6022 41.5924 25.5004C41.6469 25.3986 41.7305 25.3154 41.8325 25.2614C41.9346 25.2075 42.0505 25.1853 42.1652 25.1976C42.28 25.2099 42.3885 25.2563 42.4768 25.3307C42.565 25.4051 42.629 25.5042 42.6606 25.6153C42.7016 25.7597 42.685 25.9144 42.6142 26.0467C42.5434 26.1791 42.424 26.2789 42.2811 26.3249Z" fill="url(#paint1_radial_1_4155)"/>
<path style="mix-blend-mode:screen" opacity="0.5" d="M39.9547 13.9284C39.8684 13.8221 39.7713 13.725 39.665 13.6387C39.5323 13.5958 39.3954 13.5677 39.2566 13.5547C39.3632 13.4688 39.4603 13.3717 39.5462 13.265C39.5894 13.1325 39.6176 12.9955 39.6302 12.8566C39.7161 12.9633 39.8132 13.0605 39.9199 13.1463C40.0525 13.1892 40.1895 13.2173 40.3283 13.2303C40.221 13.3154 40.1238 13.4126 40.0387 13.5199C39.9962 13.6527 39.968 13.7896 39.9547 13.9284Z" fill="url(#paint2_radial_1_4155)"/>
<path style="mix-blend-mode:screen" opacity="0.32" d="M12.2726 11.1542C12.3438 10.9127 12.4409 10.6796 12.5623 10.459C12.7508 10.2926 12.9567 10.147 13.1763 10.0245C12.9347 9.9538 12.7015 9.85666 12.4812 9.73483C12.3141 9.54678 12.1684 9.34084 12.0467 9.12076C11.9756 9.36322 11.8785 9.59727 11.757 9.81883C11.5683 9.98419 11.3624 10.1289 11.1429 10.2504C11.3846 10.3211 11.6177 10.4183 11.8381 10.5401C12.0045 10.7287 12.1501 10.9345 12.2726 11.1542Z" fill="url(#paint3_radial_1_4155)"/>
<path d="M22.5831 24.5218C22.5831 24.5218 23.3101 29.2172 26.5514 30.9378C29.7927 32.6583 31.8463 32.1949 31.8463 32.1949C31.8463 32.1949 33.2338 30.4077 34.8877 31.6648C36.5417 32.9219 36.7416 33.5186 36.0145 35.1059C35.2875 36.6933 33.5003 37.4232 31.7131 35.7692C31.7131 35.7692 26.2878 37.1567 23.8924 35.3058C21.4969 33.4549 21.9487 32.6467 21.9487 32.6467L21.6417 36.9597C21.6417 36.9597 26.34 38.5471 27.6637 41.1279C28.9874 43.7088 24.3529 50.5881 24.3529 50.5881C24.3529 50.5881 27.3972 50.6548 28.2575 52.1117C29.1178 53.5687 28.7209 53.6991 26.6035 53.7657C24.4861 53.8323 20.848 53.169 19.9211 52.3174C18.9942 51.4658 22.6179 46.5966 22.0762 44.6675C21.5345 42.7384 19.0638 42.3184 17.152 41.9882C15.2403 41.658 13.9658 45.7537 12.8506 47.8103C11.7354 49.8669 10.2002 52.4101 10.2002 52.4101C10.2002 52.4101 13.4067 52.5694 14.1338 54.7534C14.8608 56.9374 7.16753 55.8165 5.97414 53.8844C4.78075 51.9524 8.12919 50.843 8.95182 37.0843C9.25885 31.9863 10.0786 30.5989 10.0786 30.5989C10.0786 30.5989 4.12323 28.1513 2.73287 25.0403C1.34251 21.9294 2.00583 20.2117 2.00583 20.2117C2.00583 20.2117 -0.244816 17.9611 0.0216713 15.7771C0.288155 13.5931 0.890644 16.1739 0.890644 16.1739C0.890644 16.1739 0.757401 13.3295 2.41135 12.5358C4.06529 11.7422 4.0653 16.3014 4.0653 16.3014C4.0653 16.3014 4.26516 15.0443 4.9922 15.1775C5.71923 15.3107 5.25578 18.2855 4.12322 19.5426C4.12322 19.5426 4.91689 24.4407 12.0627 24.7565C12.0627 24.7565 13.9803 22.6391 16.3642 22.7057C18.748 22.7723 22.5831 24.5218 22.5831 24.5218Z" fill="url(#paint4_radial_1_4155)"/>
<path style="mix-blend-mode:screen" d="M10.2361 25.0601C10.303 25.4562 10.3195 25.8591 10.2853 26.2593C9.01351 25.5439 7.80511 24.7211 6.67328 23.8001C7.55964 24.4837 9.06296 24.8747 10.2361 25.0601Z" fill="url(#paint5_radial_1_4155)"/>
<path style="mix-blend-mode:screen" d="M11.001 25.1651C11.5542 25.2376 11.9221 25.2607 11.9221 25.2607C12.2899 26.3325 11.589 26.7322 11.589 26.7322C11.3857 26.6984 11.1867 26.6431 10.9952 26.5671C11.0579 26.102 11.0599 25.6307 11.001 25.1651Z" fill="url(#paint6_radial_1_4155)"/>
<path style="mix-blend-mode:screen" d="M27.8712 32.2415C27.8712 32.2415 24.0304 30.6658 23.1846 27.6331C23.1846 27.6331 23.4916 32.2676 27.5642 33.6232C27.5127 33.1414 27.6206 32.6561 27.8712 32.2415Z" fill="url(#paint7_radial_1_4155)"/>
<path d="M19.8035 26.5327C19.9454 29.4293 19.5139 32.2621 18.865 35.0776C18.613 36.1667 16.9359 35.7061 17.1879 34.6141C17.8049 31.9435 18.2017 29.2786 18.0569 26.5327C18.0018 25.4146 19.7398 25.4175 19.7948 26.5327H19.8035Z" fill="url(#paint8_radial_1_4155)"/>
<path style="mix-blend-mode:color-burn" opacity="0.34" d="M17.1869 34.6129C17.8039 31.9422 18.2007 29.2774 18.0559 26.5314C18.0463 26.4308 18.057 26.3293 18.0873 26.2328C18.1175 26.1363 18.1668 26.0469 18.2321 25.9697C18.2974 25.8926 18.3774 25.8292 18.4675 25.7834C18.5576 25.7376 18.656 25.7103 18.7568 25.703C18.684 25.7799 18.6278 25.8711 18.5919 25.9708C18.556 26.0705 18.5412 26.1766 18.5483 26.2823C18.6844 29.0283 18.2876 31.6931 17.6793 34.3638C17.6492 34.5036 17.653 34.6485 17.6902 34.7866C17.7275 34.9247 17.7972 35.0519 17.8935 35.1576C17.9899 35.2632 18.1101 35.3444 18.2441 35.3942C18.3782 35.4441 18.5222 35.4612 18.6641 35.4442C18.1515 36.009 16.9725 35.5427 17.1869 34.6129Z" fill="url(#paint9_radial_1_4155)"/>
<path style="mix-blend-mode:multiply" opacity="0.25" d="M22.0365 33.8219C22.1571 33.2807 22.2317 32.7304 22.2595 32.1766C22.329 31.3482 22.3551 30.5198 22.3551 30.5198C22.3551 30.5198 22.3551 29.6885 22.3088 28.8572C22.2981 28.303 22.2409 27.7507 22.1379 27.2061C22.1002 27.2061 22.1205 28.0374 22.1147 28.863C22.1089 29.6885 22.0828 30.514 22.0828 30.514C22.0828 30.514 22.0828 31.3395 22.0655 32.165C22.0481 32.9906 21.9988 33.819 22.0365 33.8219ZM22.1234 32.5416C22.1987 32.0724 22.2769 31.6031 22.2769 31.6031L22.4855 30.6762C22.5335 30.3598 22.6141 30.0492 22.7259 29.7493C22.7457 30.0698 22.7282 30.3916 22.6737 30.7081C22.6187 31.1831 22.5434 31.6553 22.5434 31.6553C22.5434 31.6553 22.4391 32.1216 22.3117 32.5822C22.2438 32.8954 22.1398 33.1996 22.0017 33.4888C22.0099 33.1697 22.0506 32.8524 22.1234 32.5416ZM13.4539 28.6399C13.5466 28.3751 13.606 28.0997 13.6306 27.8202C13.6445 27.6942 13.6494 27.5674 13.6451 27.4407C13.6535 27.3154 13.6535 27.1896 13.6451 27.0642C13.621 26.7842 13.5637 26.508 13.4742 26.2415C13.3164 25.8562 13.1224 25.4867 12.8949 25.138C13.2318 25.4104 13.4906 25.7672 13.6451 26.172C13.7632 26.4498 13.844 26.742 13.8855 27.041C13.9059 27.1763 13.9175 27.3127 13.9203 27.4494C13.9172 27.5863 13.9046 27.7227 13.8826 27.8578C13.8401 28.1573 13.7573 28.4496 13.6364 28.7268C13.4795 29.1303 13.2187 29.485 12.8804 29.7551C13.1069 29.4026 13.2989 29.0292 13.4539 28.6399ZM10.9281 30.4561C11.0706 30.4152 11.2108 30.3668 11.3481 30.3112C11.4931 30.2772 11.6362 30.2356 11.7768 30.1867C11.9883 30.1114 12.1968 30.0129 12.2171 30.0448C12.2374 30.0766 12.0636 30.2359 11.8608 30.3605C11.7238 30.4423 11.5804 30.513 11.4321 30.5719C11.2771 30.6102 11.1192 30.6354 10.96 30.6472C10.7225 30.6646 10.485 30.6472 10.485 30.598C10.485 30.5488 10.7109 30.5198 10.9281 30.4561ZM15.0673 39.8612C15.1934 40.0564 15.3066 40.2596 15.4062 40.4695C15.4852 40.6882 15.55 40.9117 15.6003 41.1386C15.6666 41.363 15.6863 41.5986 15.6582 41.8309C15.5567 41.6259 15.4752 41.4115 15.4149 41.1908C15.2991 40.875 15.1542 40.5738 15.1542 40.5738C15.1542 40.5738 15.0413 40.2581 14.8993 39.9539C14.7826 39.7563 14.6856 39.5478 14.6097 39.3312C14.6444 39.308 14.8762 39.5687 15.0673 39.8612ZM17.7322 40.9677C18.1203 40.7128 18.4824 40.4232 18.4824 40.4232C18.4824 40.4232 18.8618 40.1596 19.2152 39.8439C19.4404 39.6253 19.6784 39.4203 19.9278 39.2298C19.7774 39.511 19.5817 39.7655 19.3485 39.9829C19.1282 40.2124 18.893 40.4272 18.6446 40.6259C18.3832 40.8083 18.1103 40.9737 17.8278 41.1213C17.5533 41.2836 17.2538 41.3991 16.9414 41.4631C17.1955 41.2833 17.4595 41.1179 17.7322 40.9677ZM22.5984 45.5009C22.5152 45.3117 22.4184 45.1287 22.3088 44.9534C22.2173 44.7692 22.1137 44.5911 21.9988 44.4205C21.8613 44.2594 21.7364 44.088 21.6252 43.9078C21.6484 43.8788 21.9148 44.0584 22.1466 44.2988C22.297 44.4598 22.4309 44.6354 22.5463 44.8231C22.6414 45.0219 22.7171 45.2295 22.7722 45.4429C22.8429 45.6517 22.8588 45.8751 22.8186 46.0918C22.7337 45.9003 22.663 45.7028 22.6071 45.5009H22.5984ZM19.3398 26.8469C19.7424 26.8614 20.1421 26.8469 20.1421 26.8469C20.1421 26.8469 20.539 26.8788 20.9387 26.873C21.2064 26.8484 21.4753 26.8407 21.7439 26.8498C21.4969 26.9723 21.2282 27.0451 20.9532 27.0642C20.6812 27.0985 20.4075 27.1169 20.1334 27.1192C20.1334 27.1192 19.7221 27.0931 19.3224 27.0294C19.0497 27.0056 18.7817 26.9442 18.5258 26.8469C18.7991 26.8146 19.0752 26.8146 19.3485 26.8469H19.3398ZM14.8356 25.9461C15.0449 26.044 15.2596 26.1301 15.4786 26.2039C15.6914 26.2975 15.9089 26.3797 16.1304 26.4501C16.3608 26.5005 16.5866 26.5702 16.8053 26.6587C16.566 26.7033 16.3199 26.6954 16.084 26.6355C15.8453 26.5943 15.61 26.5352 15.3802 26.4588C15.1583 26.3603 14.9443 26.2451 14.74 26.1141C14.5268 25.9963 14.3404 25.8356 14.1926 25.642C14.4148 25.7258 14.6298 25.8275 14.8356 25.9461ZM19.8351 39.0126C20.2145 38.6881 20.5534 38.3261 20.5534 38.3261C20.7891 38.0961 21.0043 37.8461 21.1965 37.5787C21.3782 37.2999 21.5417 37.0097 21.686 36.7098C21.6231 37.0434 21.493 37.3607 21.3037 37.6425C21.1242 37.9308 20.9166 38.2005 20.6838 38.4477C20.4414 38.6822 20.1851 38.9017 19.9162 39.1052C19.6569 39.3177 19.3787 39.5058 19.0849 39.6672C19.3236 39.4352 19.575 39.2166 19.838 39.0126H19.8351Z" fill="url(#paint10_radial_1_4155)"/>
<path d="M2.6183 24.7123C2.97526 24.7328 3.33332 24.7016 3.68134 24.6196C3.83585 24.5822 3.98776 24.5348 4.1361 24.4777C4.28836 24.4351 4.43742 24.3819 4.58218 24.3184C4.9096 24.1739 5.21486 23.9838 5.48881 23.7535C5.76773 23.5127 6.01581 23.2384 6.22743 22.9367L6.26799 22.8759C6.3404 22.9338 6.40992 22.9888 6.48523 23.0439V23.067C6.34237 23.4527 6.13034 23.809 5.85957 24.1185C5.5841 24.4345 5.25816 24.7027 4.895 24.9121C4.72876 25.011 4.55433 25.0953 4.37362 25.1642C4.18424 25.2189 3.99037 25.2567 3.79431 25.2771C3.47698 25.3177 3.15576 25.3177 2.83843 25.2771C2.80078 25.2047 2.76312 25.1323 2.73126 25.0599C2.67912 24.944 2.63567 24.831 2.58643 24.7181L2.6183 24.7123Z" fill="#E0A326"/>
<path d="M9.45955 28.2519C9.57768 28.1045 9.68329 27.9476 9.77528 27.7826L9.85928 27.6494C9.93219 27.5308 9.99796 27.4079 10.0562 27.2815C10.236 26.8866 10.3588 26.4682 10.4212 26.0389C10.4893 25.571 10.5145 25.0978 10.4965 24.6254L10.7862 24.6717C10.9001 25.1339 10.9517 25.6093 10.9397 26.0852C10.93 26.5785 10.843 27.0672 10.6819 27.5335C10.6269 27.69 10.5621 27.8429 10.4878 27.9912L10.4009 28.1592L10.288 28.3156C10.1899 28.4513 10.0814 28.5791 9.96355 28.6979C9.80077 28.8659 9.62338 29.019 9.43348 29.1556C9.2163 29.3078 8.98552 29.4397 8.7441 29.5495C8.57906 29.6217 8.4086 29.6808 8.2343 29.7262C8.07209 29.6422 7.90409 29.5524 7.73029 29.4539C8.00182 29.3628 8.26222 29.2413 8.50657 29.0919C8.87054 28.8692 9.19301 28.585 9.45955 28.2519Z" fill="#E0A326"/>
<path d="M25.7585 31.2294C25.551 31.6434 25.3916 32.0798 25.2834 32.53C25.2429 32.7154 25.211 32.8689 25.1965 32.9761C25.1821 33.0833 25.1705 33.1441 25.1705 33.1441L25.1386 33.3121C25.1154 33.4193 25.098 33.5757 25.072 33.761C25.0233 34.2175 25.0369 34.6784 25.1125 35.1311C25.1633 35.4285 25.2448 35.7197 25.3558 36.0001C25.1771 35.9518 25.0011 35.8938 24.8287 35.8263C24.7421 35.6391 24.6705 35.4454 24.6143 35.247C24.4672 34.7518 24.3968 34.237 24.4058 33.7205C24.4058 33.5119 24.4058 33.3353 24.4347 33.2136L24.455 33.0195L24.5014 32.8313C24.5274 32.7096 24.5767 32.5416 24.6404 32.3417C24.8051 31.8568 25.0319 31.3953 25.3153 30.9688C25.4455 30.7738 25.5877 30.5871 25.7411 30.4097C25.8512 30.4937 25.967 30.5748 26.0829 30.653C25.9699 30.8384 25.8425 31.0296 25.7585 31.2294Z" fill="#E0A326"/>
<path d="M28.4887 34.4492C28.4887 34.4492 28.4887 34.6578 28.5292 34.9706C28.5785 35.3551 28.6668 35.7336 28.7928 36.1002C28.7928 36.1437 28.8218 36.1842 28.8362 36.2248C28.6596 36.2248 28.48 36.2509 28.2975 36.2567C28.0233 35.7114 27.8432 35.1239 27.7645 34.5187C27.7584 34.3207 27.7633 34.1224 27.779 33.9249C27.8137 33.4937 27.8983 33.068 28.031 32.6562C28.131 32.3469 28.263 32.0489 28.4249 31.767C28.5379 31.8075 28.6509 31.8452 28.758 31.877C28.6563 32.1722 28.5797 32.4755 28.5292 32.7837C28.4624 33.1661 28.4353 33.5543 28.4481 33.9423C28.451 34.2435 28.4887 34.4492 28.4887 34.4492Z" fill="#E0A326"/>
<path style="mix-blend-mode:multiply" opacity="0.25" d="M5.77973 53.4606C5.29021 51.7226 8.19547 49.7877 8.96596 37.0949C9.27299 31.997 10.0927 30.6095 10.0927 30.6095C10.0927 30.6095 4.13737 28.1619 2.74701 25.051C2.50421 24.5145 2.30468 23.9595 2.15032 23.3913L5.84345 22.4875C5.91876 22.5599 5.99696 22.6323 6.08096 22.7048C5.77393 23.3594 5.16565 24.9004 5.72758 25.7693C6.45172 26.8961 10.7039 29.8245 12.1203 27.768C12.8445 26.7107 12.4882 25.6071 11.9668 24.7787H12.0769C12.9015 23.9174 13.9264 23.2735 15.0603 22.9046C17.9801 24.1183 22.7044 26.2589 20.8767 26.6702C18.2987 27.2495 14.0118 25.2219 14.0118 25.2219C14.5563 26.2762 14.6288 27.6203 13.9017 29.0743C13.1747 30.5284 11.9031 33.3989 12.5577 35.2151C13.2123 37.0312 16.0336 40.4839 19.3154 38.4476C22.5972 36.4114 21.9223 26.1314 21.9223 26.1314L22.7681 25.3406C22.855 25.6738 22.9767 26.088 23.1447 26.5456C22.3655 27.3769 22.8753 31.4466 24.2106 33.4713C25.5459 35.496 29.1898 34.7429 29.1898 34.7429C29.4297 35.173 29.5309 35.6667 29.4795 36.1565C27.701 36.3621 25.2882 36.3824 23.9036 35.3049C22.3539 34.0999 21.9976 33.3381 21.9397 32.9499L21.6501 36.9588C22.3306 37.2008 22.9961 37.4832 23.6429 37.8046C21.4734 37.99 22.2699 42.5115 23.2924 44.0062C24.3815 45.6051 23.472 46.8767 24.5264 47.6037C25.0564 47.9687 25.7951 47.5574 26.4004 47.0534C25.793 48.2693 25.116 49.4491 24.3728 50.5872C24.3728 50.5872 27.4171 50.6538 28.2774 52.1108C29.1377 53.5678 28.7409 53.6981 26.6235 53.7647C24.5061 53.8314 20.868 53.168 19.9411 52.3164C19.0142 51.4649 22.6204 46.5986 22.0787 44.6695C21.5371 42.7404 19.0663 42.3204 17.1546 41.9902C16.4768 41.8743 15.8859 42.3088 15.35 43.0069C14.901 42.0191 14.2146 41.1096 13.1573 40.7388C10.3592 39.7598 8.7603 47.317 9.05285 48.7334C9.2643 49.7733 10.8603 49.8746 11.7003 49.8544C10.898 51.2447 10.197 52.412 10.197 52.412C10.9816 52.4675 11.7499 52.6637 12.465 52.9914L11.0167 53.7734L5.77973 53.4606Z" fill="url(#paint11_radial_1_4155)"/>
<path d="M28.1609 34.3497C28.089 33.481 28.2605 32.6093 28.6562 31.8326C30.6548 32.464 31.8424 32.1976 31.8424 32.1976C31.8424 32.1976 33.2299 30.4104 34.8838 31.6675C36.5378 32.9246 36.7377 33.5213 36.0106 35.1086C35.2836 36.6959 33.4964 37.4259 31.7092 35.7719C30.6747 36.0164 29.6215 36.1734 28.5606 36.2412C28.367 35.625 28.2332 34.9916 28.1609 34.3497Z" fill="url(#paint12_radial_1_4155)"/>
<path d="M0.0223846 15.7907C0.285973 13.6096 0.891357 16.1875 0.891357 16.1875C0.891357 16.1875 0.758115 13.3431 2.41206 12.5494C4.066 11.7558 4.06601 16.315 4.06601 16.315C4.06601 16.315 4.26587 15.0578 4.99291 15.1911C5.71995 15.3243 5.2565 18.2991 4.12394 19.5562C4.4517 20.9211 5.25081 22.1264 6.38037 22.9597C6.19499 23.371 5.71416 24.1183 4.51498 24.7295C3.94886 24.9915 3.31653 25.0753 2.70172 24.9699C1.35771 21.9111 2.00654 20.2195 2.00654 20.2195C2.00654 20.2195 -0.2441 17.9747 0.0223846 15.7907Z" fill="url(#paint13_radial_1_4155)"/>
<path d="M22.9893 25.1332C22.9893 25.1332 24.0697 26.8277 19.945 26.5815C15.8202 26.3353 13.3147 24.3859 12.6253 23.4387C11.9359 22.4916 13.5117 21.6429 13.5117 21.6429L22.9893 25.1332Z" fill="url(#paint14_radial_1_4155)"/>
<path style="mix-blend-mode:color-burn" opacity="0.34" d="M22.9891 25.1323C23.012 25.169 23.0314 25.2078 23.0471 25.2481C22.7574 25.6218 21.9869 25.9462 20.0143 25.8274C15.8896 25.5783 13.3841 23.6318 12.6976 22.6847C12.6524 22.6226 12.6145 22.5555 12.5846 22.4848C12.8228 22.1339 13.1404 21.8441 13.5115 21.639L22.9891 25.1323Z" fill="url(#paint15_radial_1_4155)"/>
<g style="mix-blend-mode:multiply" opacity="0.25">
<path d="M18.4121 36.7116C21.2566 36.7116 22.1197 35.4718 22.1777 35.411L21.9344 35.2488C21.9344 35.2633 20.8221 36.81 17.0102 36.3263C13.0622 35.8281 10.0178 33.7657 9.11701 32.4623L8.87949 32.6245C9.80929 33.9743 12.9347 36.1004 16.9725 36.616C17.45 36.677 17.9308 36.7089 18.4121 36.7116Z" fill="url(#paint16_radial_1_4155)"/>
</g>
<g style="mix-blend-mode:multiply" opacity="0.25">
<path d="M26.8735 31.1032C26.5346 31.4711 26.0711 32.2155 25.9321 33.6319C25.8438 34.4676 25.8692 35.3115 26.0074 36.1404C25.9031 36.123 25.8017 36.1027 25.7004 36.0795C25.5743 35.2599 25.5558 34.4274 25.6453 33.603C25.7815 32.1894 26.2246 31.3958 26.6041 30.9671L26.8735 31.1032Z" fill="url(#paint17_radial_1_4155)"/>
<path d="M9.81115 24.4992L10.1008 24.5601C10.124 25.429 10.04 27.222 9.01459 28.1692C8.51556 28.6331 7.92295 28.9847 7.27664 29.2004C7.16078 29.1367 7.04781 29.0671 6.93195 28.9976C7.6388 28.8092 8.28904 28.4513 8.82631 27.9549C9.78218 27.0714 9.83721 25.2871 9.81115 24.4992Z" fill="url(#paint18_radial_1_4155)"/>
</g>
<path style="mix-blend-mode:color-burn" opacity="0.34" d="M35.0905 36.2686C34.2042 36.9174 32.9586 36.9232 31.7131 35.7704C30.6786 36.0149 29.6254 36.1718 28.5645 36.2396C28.369 35.6236 28.2332 34.9902 28.159 34.3482C28.0871 33.4794 28.2586 32.6078 28.6543 31.831C28.8194 31.8832 28.9787 31.9266 29.1323 31.9672C28.6601 33.0534 28.5008 35.0578 29.7695 34.7421C30.5545 34.5451 30.9281 33.2938 31.1251 32.251C31.3667 32.2558 31.6082 32.2373 31.8464 32.196C31.791 32.4733 31.8059 32.7601 31.8898 33.0302C32.1939 34.0093 32.9702 33.5024 32.9702 33.5024C32.9702 33.5024 32.8022 34.6175 33.6799 34.7189C34.5575 34.8203 34.7603 33.065 34.7603 33.065C35.6293 35.2258 33.312 35.6719 33.5437 36.2512C33.6828 36.5409 34.433 36.4308 35.0905 36.2686Z" fill="url(#paint19_radial_1_4155)"/>
<path style="mix-blend-mode:multiply" opacity="0.5" d="M34.3694 35.6514C34.4857 35.7201 34.6116 35.7709 34.743 35.8021C34.8624 35.8319 34.9866 35.8368 35.108 35.8165C35.2417 35.7969 35.3717 35.7568 35.4932 35.6978C35.6712 35.6225 35.819 35.49 35.9132 35.3212C35.7637 35.4208 35.6057 35.507 35.4411 35.579C35.2778 35.6372 35.1042 35.6608 34.9313 35.6485C34.7586 35.6456 34.5882 35.6082 34.4302 35.5385C34.2728 35.4544 34.1227 35.3575 33.9812 35.2488C34.0627 35.4221 34.1992 35.5637 34.3694 35.6514ZM33.1644 35.3096C33.2083 35.263 33.2603 35.2247 33.3179 35.1967C33.1653 35.1345 33.0309 35.0348 32.9269 34.907C32.8258 34.7821 32.7553 34.6353 32.7212 34.4783C32.6924 34.3519 32.6875 34.2213 32.7067 34.0931C32.7094 34.0546 32.7172 34.0166 32.7299 33.9801C32.7299 33.9569 32.7647 33.9048 32.7299 33.928C32.6594 33.9569 32.5803 33.9569 32.5098 33.928C32.4609 33.9127 32.4169 33.8847 32.3823 33.8469C32.3331 33.7947 32.336 33.7716 32.336 33.7716C32.336 33.7716 32.336 33.786 32.3968 33.8324C32.4326 33.8623 32.4739 33.885 32.5185 33.899C32.5671 33.9151 32.6189 33.9191 32.6694 33.9105C32.7199 33.9019 32.7676 33.8811 32.8081 33.8498C32.8458 33.8324 32.7763 34.0149 32.7849 34.0989C32.7786 34.2181 32.7923 34.3376 32.8255 34.4523C32.8637 34.5949 32.9365 34.7259 33.0376 34.8335C33.1387 34.9412 33.2649 35.0222 33.4048 35.0692C33.5413 35.1141 33.6872 35.1221 33.8277 35.0924C33.9458 35.0641 34.0564 35.0107 34.1521 34.936C34.2465 34.8651 34.3304 34.7813 34.4012 34.6869C34.4308 34.6531 34.4579 34.6173 34.4823 34.5797C34.5512 34.4829 34.6095 34.379 34.6561 34.2698C34.8015 33.9375 34.8448 33.5695 34.7807 33.2125C34.7089 32.8512 34.5326 32.5188 34.2738 32.2566C34.1502 32.1417 34.0207 32.0334 33.8856 31.9322C33.9322 31.942 33.9765 31.9607 34.016 31.9873C34.1273 32.046 34.2306 32.1191 34.323 32.2045C34.6119 32.4638 34.8141 32.8056 34.9023 33.1836C34.9887 33.5705 34.9554 33.9746 34.8068 34.3422L34.7807 34.4001C34.9216 34.4358 35.0677 34.4466 35.2123 34.432C35.3423 34.4215 35.4696 34.3892 35.5888 34.3364C35.6433 34.3131 35.6957 34.2849 35.7452 34.2524C35.7958 34.2242 35.8443 34.1922 35.8901 34.1568C35.9941 34.0754 36.0841 33.9776 36.1566 33.8671C36.253 33.6972 36.3289 33.5163 36.3825 33.3284C36.417 33.5375 36.3759 33.7521 36.2666 33.9338C36.1968 34.063 36.1057 34.1795 35.9972 34.2785C35.9011 34.3758 35.7813 34.4467 35.6497 34.4841C35.5111 34.5331 35.365 34.5576 35.2181 34.5565C35.0576 34.5549 34.8995 34.5183 34.7546 34.4494C34.7169 34.5282 34.6744 34.6046 34.6272 34.6782C34.6007 34.7205 34.5717 34.7611 34.5403 34.7998C34.4585 34.906 34.3608 34.9988 34.2506 35.075C34.1362 35.1575 34.006 35.2156 33.8683 35.2459V35.2662C33.8683 35.2662 33.848 35.2662 33.8248 35.2662C33.7023 35.2848 33.5772 35.2789 33.457 35.2488C33.3787 35.2813 33.3099 35.3331 33.2571 35.3994C33.2072 35.4534 33.1775 35.523 33.1731 35.5964C33.1834 35.6618 33.2081 35.7242 33.2455 35.7789C33.2831 35.8401 33.3268 35.8973 33.3758 35.9498C33.4186 36.0077 33.4682 36.0602 33.5236 36.1062C33.6427 36.2124 33.7829 36.2923 33.9349 36.3408C34.1676 36.3997 34.4093 36.4144 34.6474 36.3843C34.4181 36.5066 34.1504 36.5357 33.9001 36.4654C33.7243 36.4248 33.5593 36.3467 33.4164 36.2365C33.3509 36.1869 33.2907 36.1306 33.2368 36.0685C33.1839 36.0042 33.1382 35.9343 33.1007 35.86C33.053 35.7811 33.026 35.6914 33.0225 35.5993C33.029 35.4851 33.0799 35.378 33.1644 35.3009V35.3096ZM32.6778 35.9092C32.742 35.8589 32.8222 35.8332 32.9037 35.8368C32.9674 35.8368 33.0022 35.8687 32.9993 35.8803C32.9964 35.8918 32.8458 35.8976 32.7647 36.0048C32.7389 36.031 32.7202 36.0635 32.7106 36.099C32.701 36.1345 32.7006 36.1719 32.7096 36.2076C32.7063 36.2297 32.7063 36.2521 32.7096 36.2742C32.7328 36.3266 32.7674 36.3731 32.811 36.4103C32.9095 36.5059 33.0456 36.5754 33.0369 36.5986C33.0283 36.6218 32.8747 36.5986 32.7473 36.5146C32.6777 36.4744 32.619 36.4177 32.5764 36.3495C32.5522 36.3161 32.5362 36.2774 32.5296 36.2367C32.5231 36.1959 32.5262 36.1542 32.5387 36.1149C32.5611 36.0329 32.61 35.9606 32.6778 35.9092ZM31.6785 34.9563C31.6785 34.936 31.8175 34.9939 31.9449 35.0055C32.0276 35.0165 32.1114 35.0165 32.194 35.0055C32.2788 35.0077 32.3635 34.9989 32.446 34.9794C32.5706 34.9505 32.6865 34.8809 32.7038 34.8983C32.7212 34.9157 32.6256 35.0287 32.4924 35.0982C32.401 35.1429 32.3033 35.1731 32.2027 35.188C32.1038 35.1856 32.006 35.167 31.9131 35.1329C31.7711 35.0779 31.664 34.9765 31.6785 34.9563ZM31.5394 33.0995C31.5394 33.0995 31.4844 33.2907 31.4467 33.4877C31.4332 33.6241 31.403 33.7583 31.3569 33.8874C31.3151 33.7536 31.3023 33.6124 31.3193 33.4732C31.3245 33.3343 31.339 33.1959 31.3627 33.059C31.4007 32.9245 31.4481 32.7929 31.5047 32.6651C31.5493 32.5313 31.6224 32.4087 31.719 32.3059C31.7072 32.4382 31.679 32.5686 31.635 32.694C31.5742 32.9026 31.5394 33.0995 31.5394 33.0995ZM31.1687 32.8794C31.2372 32.7571 31.3147 32.6399 31.4004 32.5289C31.5278 32.3609 31.69 32.219 31.69 32.2393C31.6397 32.3675 31.5756 32.4899 31.4989 32.6042C31.4004 32.7809 31.3222 32.9663 31.3222 32.9663C31.3222 32.9663 31.2208 33.1401 31.1368 33.3226C31.0926 33.4532 31.0322 33.5777 30.9572 33.6933C30.9477 33.5525 30.9685 33.4113 31.018 33.2791C31.0586 33.1425 31.1089 33.0089 31.1687 32.8794ZM31.2295 35.046C31.274 35.133 31.3253 35.2163 31.383 35.2952C31.4291 35.3822 31.4834 35.4646 31.5452 35.5414C31.6379 35.6572 31.7538 35.7557 31.7422 35.7789C31.7306 35.8021 31.58 35.7354 31.4525 35.6312C31.3672 35.5622 31.2912 35.4823 31.2266 35.3936C31.1757 35.3018 31.1349 35.2047 31.1049 35.104C31.0644 34.9447 31.0702 34.7825 31.1049 34.7796C31.1397 34.7767 31.1629 34.9128 31.2295 35.046ZM2.74167 17.1684C2.7795 17.1014 2.8252 17.0391 2.87781 16.983C2.99212 16.8665 3.12409 16.7687 3.26885 16.6933L3.68016 16.4761C3.73895 16.437 3.80215 16.4049 3.86844 16.3805C3.86844 16.3805 3.81919 16.4558 3.71782 16.5369C3.61644 16.618 3.4716 16.7078 3.33546 16.8005C3.21208 16.8807 3.10088 16.9783 3.00526 17.0902C2.96461 17.1392 2.92963 17.1926 2.90098 17.2495C2.86773 17.3049 2.84147 17.3643 2.82277 17.4262C2.77791 17.5656 2.75638 17.7114 2.75905 17.8578C2.75905 18.188 2.84015 18.5182 2.81119 18.5269C2.7077 18.321 2.64663 18.0964 2.6316 17.8665C2.61369 17.7038 2.62349 17.5392 2.66057 17.3798C2.67915 17.3064 2.70638 17.2354 2.74167 17.1684ZM2.70691 13.7504C2.79174 13.4733 2.92512 13.2134 3.10085 12.9828C3.12402 12.9828 2.93574 13.3797 2.82856 13.7881C2.75866 14.0599 2.71119 14.3369 2.68663 14.6165C2.65156 14.895 2.6409 15.1761 2.65478 15.4565C2.67216 15.8794 2.77643 16.2965 2.75326 16.3023C2.62912 16.0398 2.55262 15.7574 2.52733 15.4681C2.49113 15.1799 2.48433 14.8887 2.50705 14.5991C2.54552 14.3103 2.61246 14.026 2.70691 13.7504ZM1.83794 15.2538C1.83794 15.4246 1.83794 15.6477 1.85532 15.8707C1.86819 16.0736 1.90217 16.2745 1.9567 16.4703C1.99191 16.558 2.02094 16.648 2.04359 16.7397C1.97535 16.6712 1.92381 16.588 1.89297 16.4964C1.81078 16.301 1.75525 16.0954 1.72787 15.8852C1.69601 15.6564 1.68152 15.4304 1.66993 15.2624L1.65546 14.9728C1.65092 14.6678 1.66834 14.3629 1.70759 14.0604C1.7371 13.7525 1.83614 13.4554 1.99725 13.1914C1.92631 13.4772 1.87502 13.7675 1.84373 14.0604C1.82439 14.3574 1.82439 14.6554 1.84373 14.9525L1.83794 15.2538ZM0.67931 15.723C0.705379 15.723 0.722763 15.8997 0.754623 16.0706C0.786488 16.2415 0.835728 16.4037 0.835728 16.4037C0.835728 16.4037 0.861794 16.5746 0.905243 16.7426C0.948692 16.9106 1.00662 17.0757 0.983448 17.0873C0.960274 17.0989 0.858894 16.9511 0.783585 16.7976C0.732864 16.6873 0.691212 16.573 0.659035 16.4558C0.639156 16.3361 0.62851 16.2151 0.627174 16.0938C0.614395 15.9678 0.632282 15.8406 0.67931 15.723ZM3.45713 19.729C3.5386 19.7107 3.61889 19.6875 3.69754 19.6594C3.8134 19.616 3.92927 19.5552 3.94665 19.5754C3.96403 19.5957 3.86844 19.6942 3.75547 19.7724C3.67962 19.8233 3.59913 19.867 3.51506 19.9028C3.42578 19.9243 3.33457 19.9369 3.24278 19.9404C3.10664 19.9404 2.97339 19.9172 2.97339 19.8912C2.97339 19.8651 3.10374 19.8477 3.2225 19.813C3.30228 19.7895 3.38062 19.7615 3.45713 19.729ZM1.55118 19.5233C1.62342 19.6014 1.70404 19.6714 1.7916 19.7319C1.87237 19.8027 1.95965 19.8657 2.05228 19.9201C2.19422 20.0012 2.35643 20.0476 2.34194 20.0708C2.32746 20.0939 2.15946 20.0939 1.98856 20.036C1.87576 19.9973 1.7686 19.9437 1.66993 19.8767C1.5802 19.7954 1.50134 19.703 1.43531 19.6015C1.33973 19.4509 1.29628 19.2771 1.31945 19.2684C1.34262 19.2597 1.43822 19.4074 1.55118 19.5233Z" fill="url(#paint20_radial_1_4155)"/>
<path style="mix-blend-mode:color-burn" opacity="0.34" d="M2.00559 20.2225C1.52087 19.7123 1.09707 19.1476 0.742689 18.5396C1.322 18.5685 1.71884 18.4034 1.36835 17.9603C1.01786 17.5171 0.684756 16.2078 0.47041 15.026C0.656324 15.3931 0.794544 15.7825 0.881719 16.1847C0.869549 15.7136 0.908403 15.2425 0.997589 14.7798C1.18587 15.6807 1.86656 16.3613 2.77608 16.1151C3.3554 15.9558 3.66533 14.9565 3.83333 14.0644C3.97452 14.8074 4.04916 15.5616 4.05637 16.3179C4.05637 16.3179 4.17223 15.5851 4.55168 15.2983C4.36848 15.8755 4.06545 16.4075 3.66243 16.8596C2.94408 17.5229 2.72104 18.5975 3.63347 18.8872C4.09692 19.0262 4.67624 18.2673 5.131 17.4852C4.95522 18.2462 4.61073 18.9579 4.12299 19.5679C4.14079 19.6656 4.16401 19.7623 4.19251 19.8575C3.97833 19.9489 3.75354 20.0131 3.5234 20.0487C2.25181 20.2428 2.3358 22.2617 3.13815 23.3942C3.9405 24.5268 6.03473 23.5304 6.03473 23.5304C5.62129 24.0403 5.10126 24.4536 4.51113 24.7411C3.94502 25.0031 3.31269 25.0869 2.69788 24.9816C1.35676 21.9141 2.00559 20.2225 2.00559 20.2225Z" fill="url(#paint21_radial_1_4155)"/>
<path style="mix-blend-mode:screen" d="M18.9285 32.9416C18.9788 32.8158 19.0148 32.6846 19.0357 32.5506C19.0878 32.3131 19.1486 31.9945 19.2066 31.6816C19.3166 31.0444 19.3948 30.3984 19.3948 30.3984C19.3948 30.3984 19.4528 29.7554 19.4788 29.1066C19.4933 28.7822 19.4991 28.4577 19.4991 28.2173C19.5073 28.0817 19.4995 27.9456 19.4759 27.8118C19.4466 27.9441 19.4301 28.0789 19.4267 28.2144C19.4064 28.4548 19.3804 28.7764 19.3514 29.0979C19.2935 29.7409 19.2152 30.3811 19.2152 30.3811C19.2152 30.3811 19.1573 31.0241 19.0791 31.6643C19.0386 31.9829 18.9951 32.3044 18.9661 32.5332C18.9401 32.6678 18.9275 32.8046 18.9285 32.9416ZM18.5172 34.5608C18.5925 34.3581 18.6446 34.1524 18.6446 34.1524C18.692 34.0184 18.7326 33.8821 18.7663 33.744C18.7877 33.5988 18.8236 33.4562 18.8735 33.3182C18.9111 33.4639 18.918 33.6158 18.8937 33.7643C18.8787 33.9126 18.8536 34.0597 18.8184 34.2045C18.7673 34.3453 18.7053 34.4818 18.633 34.613C18.5259 34.8099 18.3839 34.9837 18.3637 34.9692C18.4022 34.8287 18.4536 34.692 18.5172 34.5608ZM18.3318 26.0536C18.7012 26.1255 19.0746 26.1758 19.4499 26.2042C19.8242 26.2417 20.2004 26.2581 20.5766 26.2534C21.156 26.2534 21.7063 26.1608 21.7121 26.1868C21.345 26.298 20.9656 26.3632 20.5824 26.3809C20.1967 26.4076 19.8095 26.4076 19.4238 26.3809C19.042 26.3387 18.6635 26.27 18.2912 26.1752C17.9178 26.0912 17.5567 25.9598 17.2166 25.7842C17.2369 25.7639 17.7757 25.9464 18.3318 26.0536ZM15.3454 24.9181C15.5858 25.0456 15.8291 25.1556 15.8291 25.1556C15.8291 25.1556 16.0667 25.286 16.3129 25.399C16.4839 25.4628 16.6496 25.5403 16.8082 25.6307C16.6223 25.6265 16.4387 25.5882 16.2665 25.5177C16.0904 25.46 15.9173 25.3933 15.748 25.3179C15.5862 25.2303 15.4296 25.1336 15.2788 25.0282C15.1207 24.9313 14.9798 24.809 14.8617 24.6661C15.03 24.7357 15.1919 24.82 15.3454 24.9181Z" fill="url(#paint22_radial_1_4155)"/>
<g style="mix-blend-mode:screen">
<path d="M34.1027 31.7143C34.1027 31.7375 34.3924 31.8447 34.6647 32.004C34.8411 32.115 35.0069 32.242 35.16 32.3834C35.3209 32.5145 35.4666 32.6631 35.5945 32.8266C35.6797 32.9396 35.7435 33.0672 35.7828 33.2031C35.8117 33.3161 35.8088 33.3972 35.8233 33.3972C35.8548 33.3336 35.865 33.2614 35.8523 33.1916C35.835 33.0373 35.7836 32.8889 35.7016 32.7571C35.5853 32.5681 35.4429 32.3965 35.2787 32.2473C35.1082 32.1083 34.9226 31.9888 34.7255 31.891C34.5334 31.7871 34.3208 31.7267 34.1027 31.7143Z" fill="url(#paint23_radial_1_4155)"/>
<path d="M33.9145 34.236C33.9319 34.2534 34.0941 34.1172 34.2042 33.9289C34.2749 33.8037 34.3276 33.6692 34.3606 33.5292C34.38 33.3879 34.38 33.2447 34.3606 33.1034C34.3467 32.961 34.289 32.8264 34.1955 32.7182C34.1723 32.7182 34.2303 32.9209 34.2303 33.115C34.2321 33.2446 34.2185 33.3739 34.1897 33.5002C34.1739 33.6281 34.1427 33.7535 34.097 33.8739C34.0159 34.0564 33.8972 34.2186 33.9145 34.236Z" fill="url(#paint24_radial_1_4155)"/>
<path d="M34.9896 35.3528C34.9896 35.376 35.1547 35.4049 35.3227 35.3702C35.4396 35.3574 35.5522 35.3189 35.6524 35.2572C35.7526 35.1956 35.8379 35.1125 35.902 35.0139C36.0063 34.8749 36.0526 34.7098 36.0294 34.7011C36.0063 34.6924 35.9223 34.8256 35.8064 34.927C35.7314 34.9943 35.6487 35.0526 35.5602 35.1008C35.4792 35.1598 35.3917 35.2094 35.2995 35.2485C35.1489 35.3036 34.9896 35.3267 34.9896 35.3528Z" fill="url(#paint25_radial_1_4155)"/>
<path d="M29.0518 32.4658C29.1738 32.556 29.3142 32.6183 29.4631 32.6482C29.6072 32.6891 29.7545 32.7182 29.9033 32.7351C30.0546 32.7354 30.2057 32.7238 30.3552 32.7004C30.5059 32.6913 30.652 32.6456 30.781 32.5671C30.6354 32.5554 30.4892 32.5554 30.3436 32.5671C30.2005 32.5681 30.0574 32.5613 29.9149 32.5469C29.9149 32.5469 29.7006 32.5469 29.4891 32.5179C29.3457 32.4847 29.199 32.4672 29.0518 32.4658Z" fill="url(#paint26_radial_1_4155)"/>
<path d="M4.2274 20.6175C4.23624 20.8427 4.28224 21.0648 4.36354 21.275C4.43561 21.4889 4.52372 21.6971 4.62713 21.8978C4.74457 22.0891 4.87523 22.2721 5.01816 22.4452C5.15332 22.6263 5.32016 22.7813 5.51058 22.9029C5.52796 22.8855 5.30492 22.6393 5.12244 22.367C4.99925 22.1876 4.88704 22.0009 4.78644 21.808C4.67377 21.621 4.57222 21.4276 4.4823 21.2287C4.34906 20.9303 4.25347 20.6117 4.2274 20.6175Z" fill="url(#paint27_radial_1_4155)"/>
<path d="M4.05034 18.6906C4.23733 18.5165 4.40443 18.3222 4.54855 18.1113C4.69947 17.9029 4.83224 17.682 4.94538 17.4509C5.04169 17.2091 5.10125 16.9543 5.12208 16.6949C5.15415 16.4362 5.10773 16.1738 4.98884 15.9418C5.0155 16.1873 5.0155 16.4349 4.98884 16.6804C4.94988 16.9222 4.87673 17.1573 4.7716 17.3785C4.67728 17.6072 4.56492 17.828 4.43559 18.0389C4.29163 18.2466 4.16287 18.4644 4.05034 18.6906Z" fill="url(#paint28_radial_1_4155)"/>
<path d="M2.95854 14.9717C3.01411 14.8594 3.0522 14.7392 3.07151 14.6154L3.16419 14.262L3.22792 13.9029C3.26391 13.7827 3.28053 13.6575 3.27716 13.5321C3.25399 13.5321 3.17289 13.6914 3.10626 13.8681C3.03964 14.0448 2.9875 14.2244 2.9875 14.2244C2.9875 14.2244 2.95854 14.4098 2.94406 14.5951C2.92128 14.7202 2.92622 14.8488 2.95854 14.9717Z" fill="url(#paint29_radial_1_4155)"/>
<path d="M1.97724 14.6565C2.02351 14.5123 2.05553 14.3638 2.07283 14.2133C2.11628 13.9961 2.18291 13.7846 2.18291 13.7846C2.18291 13.7846 2.22925 13.5703 2.29587 13.3559C2.35703 13.2175 2.40269 13.0728 2.43201 12.9243C2.32204 13.0344 2.23535 13.1654 2.17711 13.3096C2.1105 13.4485 2.0534 13.5917 2.00621 13.7383C1.97523 13.8892 1.95491 14.0422 1.94538 14.1959C1.925 14.35 1.93583 14.5067 1.97724 14.6565Z" fill="url(#paint30_radial_1_4155)"/>
<path d="M0.640747 17.74C0.602366 17.5667 0.554994 17.3956 0.498818 17.2273C0.456225 17.0586 0.424295 16.8873 0.403226 16.7146C0.367859 16.5434 0.342717 16.3703 0.327921 16.1961C0.327696 16.0189 0.316078 15.8418 0.293154 15.666C0.225386 15.8354 0.192865 16.0167 0.197571 16.199C0.19199 16.3809 0.200706 16.563 0.223639 16.7436C0.260397 16.9222 0.311741 17.0976 0.377158 17.2679C0.431598 17.4417 0.521333 17.6024 0.640747 17.74Z" fill="url(#paint31_radial_1_4155)"/>
</g>
<path style="mix-blend-mode:screen" d="M20.7766 35.838H20.7361C19.9956 36.0727 19.2139 36.1487 18.442 36.0611C19.7686 33.9234 21.4081 30.7314 21.7036 27.6234C21.7036 27.6234 21.8223 32.4027 21.0518 34.9864C20.9591 35.3022 20.8664 35.5918 20.7766 35.838Z" fill="url(#paint32_radial_1_4155)"/>
<path d="M17.1375 25.0081C11.3186 23.2503 7.87443 17.6111 9.44481 12.4126C11.0152 7.21406 17.0054 4.42483 22.8244 6.18263C28.6433 7.94044 32.0874 13.5796 30.517 18.7781C28.9467 23.9766 22.9564 26.7659 17.1375 25.0081Z" fill="url(#paint33_radial_1_4155)"/>
<path style="mix-blend-mode:multiply" opacity="0.25" d="M9.70373 12.4194C10.5727 9.55474 12.777 7.42575 15.5606 6.38878C13.4207 7.52673 11.8174 9.46432 11.0999 11.7793C9.53573 16.9642 12.9711 22.5864 18.7729 24.3389C21.22 25.0971 23.8482 25.032 26.2548 24.1535C24.9039 24.8736 23.4231 25.3175 21.8988 25.4593C20.3745 25.601 18.8373 25.4377 17.3768 24.979C11.572 23.2179 8.13669 17.5927 9.70373 12.4194Z" fill="url(#paint34_radial_1_4155)"/>
<path style="mix-blend-mode:multiply" d="M23.4706 8.28822C25.4976 8.49727 27.4373 9.22227 29.1044 10.394C30.9003 12.8127 31.5897 15.8541 30.7149 18.7564C30.3325 19.979 29.7009 21.109 28.8598 22.0752C28.0188 23.0414 26.9866 23.8228 25.8284 24.37C24.4695 24.6851 23.0668 24.7664 21.6805 24.6104C16.0814 23.9935 11.9451 19.8427 12.4404 15.3414C12.9358 10.8401 17.8744 7.67415 23.4706 8.28822Z" fill="url(#paint35_radial_1_4155)"/>
<path style="mix-blend-mode:multiply" d="M12.4398 15.3327C12.6495 13.5944 13.4919 11.9941 14.8063 10.8372C14.4327 15.2777 18.5313 19.33 24.058 19.9383C25.5063 20.0976 26.9545 20.1468 28.2088 19.6979C29.295 19.3097 30.1755 18.5161 30.9605 17.705C30.8994 18.0582 30.8172 18.4074 30.7143 18.7507C30.3319 19.9732 29.7002 21.1033 28.8592 22.0694C28.0181 23.0356 26.986 23.817 25.8278 24.3642C24.4688 24.6793 23.0661 24.7606 21.6799 24.6047C16.0808 23.9877 11.9387 19.8369 12.4398 15.3327Z" fill="url(#paint36_radial_1_4155)"/>
<g style="mix-blend-mode:screen" opacity="0.35">
<path d="M17.1362 13.6583C16.6873 16.0914 19.4535 16.7084 22.9844 17.3601C26.5153 18.0118 29.4322 18.4521 29.8841 16.0161C30.3359 13.5801 27.8565 11.0919 24.3255 10.4286C20.7946 9.7653 17.5881 11.2223 17.1362 13.6583Z" fill="#E0A326"/>
</g>
<g style="mix-blend-mode:screen" opacity="0.35">
<path d="M20.4938 13.2083C20.2244 14.6566 21.8754 15.0187 23.9697 15.4068C26.0639 15.7949 27.7989 16.0556 28.0654 14.6102C28.3319 13.1648 26.8547 11.676 24.7662 11.2908C22.6778 10.9055 20.7603 11.76 20.4938 13.2083Z" fill="#E0A326"/>
</g>
<g style="mix-blend-mode:screen" opacity="0.35">
<path d="M26.1505 21.9416C26.5502 20.4933 24.2272 21.1335 21.6377 20.418C19.0481 19.7025 17.174 17.9038 16.7743 19.3579C16.3746 20.8119 18.1473 22.5644 20.7368 23.2769C23.3264 23.9895 25.7508 23.3928 26.1505 21.9416Z" fill="#E0A326"/>
</g>
<g style="mix-blend-mode:screen" opacity="0.35">
<path d="M29.93 19.3207C30.7989 16.4241 30.1124 13.3798 28.3166 10.9583C26.6501 9.78767 24.7115 9.06366 22.6856 8.85537C20.0776 8.53106 17.4372 9.10965 15.2038 10.4948C17.2661 8.82351 20.2583 7.93136 23.4706 8.28474C25.4976 8.4938 27.4373 9.21879 29.1044 10.3906C30.9003 12.8092 31.5897 15.8506 30.7149 18.753C30.0813 20.8112 28.7377 22.5778 26.9233 23.738C28.3506 22.6048 29.3992 21.0641 29.93 19.3207Z" fill="#E0A326"/>
</g>
<path d="M12.4402 15.3319C12.9355 10.8249 17.8742 7.6705 23.4704 8.28457C25.4974 8.49362 27.437 9.21862 29.1042 10.3904C29.5994 11.0579 30.0127 11.7824 30.3353 12.5483C30.0807 12.053 29.7831 11.581 29.446 11.1377C27.8703 10.0622 26.0496 9.39982 24.1511 9.21147C18.8851 8.64954 14.2419 11.5287 13.7755 15.6679C13.3092 19.8071 17.2022 23.6017 22.4653 24.1665C23.7681 24.3087 25.0855 24.2344 26.3641 23.9464C26.8544 23.7106 27.3243 23.4345 27.7689 23.1208C27.1713 23.6083 26.5202 24.0261 25.8282 24.3664C24.4692 24.6814 23.0666 24.7627 21.6803 24.6068C16.0812 23.9869 11.9391 19.8361 12.4402 15.3319Z" fill="url(#paint37_radial_1_4155)"/>
<path style="mix-blend-mode:color-burn" opacity="0.34" d="M23.0999 23.9223C24.3657 24.0573 25.6449 23.9878 26.8887 23.7167C26.9842 23.6732 27.0769 23.6182 27.1783 23.5718C26.8905 23.773 26.5927 23.9596 26.2862 24.1309C24.9926 24.4107 23.6625 24.4801 22.3468 24.3365C16.9099 23.7572 12.8924 19.8555 13.3674 15.6207C13.8425 11.3859 18.645 8.41985 24.0848 8.99627C26.0144 9.18754 27.8675 9.84999 29.4811 10.9254C29.6842 11.2363 29.8699 11.5584 30.0372 11.8899C29.9851 11.8204 29.9388 11.7451 29.8866 11.6756C28.3451 10.6618 26.579 10.0403 24.7423 9.86524C19.6327 9.33517 15.1228 12.0522 14.6709 15.9481C14.219 19.8439 17.9904 23.3951 23.0999 23.9223Z" fill="url(#paint38_radial_1_4155)"/>
<path style="mix-blend-mode:screen" d="M19.6935 5.93852C23.068 5.91535 25.4693 7.6533 26.3353 8.67868C26.3353 8.67868 24.5366 7.46212 21.0896 7.89081C20.7528 7.15706 20.279 6.49442 19.6935 5.93852Z" fill="url(#paint39_radial_1_4155)"/>
<path style="mix-blend-mode:screen" d="M18.055 6.08137C18.3447 6.03213 18.6343 5.99737 18.924 5.9713C19.5998 6.51356 20.1494 7.19658 20.5345 7.97283C19.8658 8.0853 19.2057 8.24403 18.559 8.44787C13.4611 10.041 12.6413 13.1838 12.6413 13.1838C12.6413 13.1838 13.8202 6.81131 18.055 6.08137Z" fill="url(#paint40_radial_1_4155)"/>
<path style="mix-blend-mode:multiply" opacity="0.25" d="M23.0423 6.19129C24.8089 6.71769 26.4298 7.64561 27.7782 8.90248C28.6472 10.8635 27.7782 12.2451 25.5391 12.0279C23.1002 11.7875 22.4659 10.9243 22.2689 9.91918C22.0719 8.91407 22.5412 6.33611 18.793 5.69018C20.2279 5.60406 21.6668 5.77374 23.0423 6.19129Z" fill="url(#paint41_radial_1_4155)"/>
<path d="M24.7367 5.39351C26.0467 5.96053 27.1302 6.94822 27.8157 8.20029C29.0583 10.3611 28.2763 11.9658 25.9764 11.7399C23.6765 11.514 23.0798 10.6827 22.8973 9.7123C22.7148 8.74195 23.1725 6.17269 19.4012 5.62234C19.4012 5.62524 20.0934 3.78591 24.7367 5.39351Z" fill="url(#paint42_radial_1_4155)"/>
<path style="mix-blend-mode:multiply" opacity="0.5" d="M21.183 4.74414C23.7552 5.59284 23.4134 7.72472 23.5756 8.585C23.761 9.54956 24.3577 10.378 26.6576 10.6126C27.2553 10.7091 27.868 10.5998 28.3955 10.3027C28.2796 11.2991 27.4367 11.89 25.9827 11.751C23.6857 11.5221 23.0861 10.6937 22.9036 9.72335C22.7211 8.753 23.1788 6.18374 19.4074 5.63339C19.4016 5.6247 19.6971 4.84552 21.183 4.74414Z" fill="url(#paint43_radial_1_4155)"/>
<path style="mix-blend-mode:multiply" opacity="0.5" d="M19.4 5.62477C19.4 5.62477 19.6896 4.84559 21.1814 4.7558C23.7535 5.60449 23.4117 7.73637 23.5739 8.59666C23.6364 8.97747 23.8017 9.33401 24.0519 9.62784C23.8944 10.0353 23.6387 10.3975 23.3075 10.6822C23.0935 10.4024 22.9522 10.074 22.8961 9.72632C22.7108 8.75017 23.1713 6.17512 19.4 5.62477Z" fill="url(#paint44_radial_1_4155)"/>
<g style="mix-blend-mode:screen">
<path d="M27.7892 9.81216C27.7954 9.446 27.7345 9.0818 27.6097 8.73753C27.4894 8.38959 27.3341 8.05476 27.1462 7.73821C26.9435 7.43042 26.7158 7.13978 26.4655 6.86924C26.224 6.59608 25.9496 6.35382 25.6487 6.14799C25.6313 6.16827 26.0281 6.53903 26.3699 6.95324C26.5971 7.22836 26.8052 7.51869 26.9927 7.82222C27.1872 8.12169 27.353 8.43882 27.488 8.7694C27.6069 9.11138 27.7075 9.45946 27.7892 9.81216Z" fill="url(#paint45_radial_1_4155)"/>
<path d="M24.3793 10.8342C24.5354 10.9714 24.7163 11.0775 24.9122 11.147C25.1043 11.2276 25.303 11.2916 25.506 11.3382C25.712 11.3701 25.9203 11.3847 26.1288 11.3816C26.3376 11.3877 26.5458 11.3553 26.7429 11.286C26.7429 11.26 26.4329 11.286 26.1346 11.2513C25.9398 11.2335 25.7463 11.2035 25.5553 11.1615C25.3597 11.1285 25.1663 11.084 24.9759 11.0283C24.6689 10.9414 24.3937 10.811 24.3793 10.8342Z" fill="url(#paint46_radial_1_4155)"/>
<path d="M24.3069 9.43124C24.3069 9.41676 24.2287 9.35593 24.1447 9.22558C24.0473 9.06633 23.9833 8.88895 23.9565 8.7042C23.9278 8.51228 23.9104 8.31884 23.9043 8.12488L23.8898 7.86129C23.8621 7.57795 23.8176 7.29649 23.7566 7.01839C23.7128 6.73656 23.6144 6.46599 23.4669 6.22183C23.4438 6.22183 23.5915 6.62735 23.6436 7.04156C23.6958 7.45577 23.7218 7.87578 23.7218 7.87578L23.7508 8.13937C23.7677 8.33446 23.7987 8.52807 23.8435 8.71868C23.8858 8.91608 23.9741 9.10069 24.1013 9.25744C24.1969 9.39648 24.3012 9.43993 24.3069 9.43124Z" fill="url(#paint47_radial_1_4155)"/>
<path d="M24.5585 9.45809C24.5382 9.45809 24.6222 9.6145 24.7381 9.73036C24.8163 9.80806 24.9028 9.87702 24.9959 9.93602C25.0962 9.98173 25.2011 10.0167 25.3087 10.0403C25.4709 10.078 25.636 10.0722 25.636 10.0403C25.636 10.0084 25.4883 9.97657 25.3464 9.91285C25.2545 9.87159 25.1654 9.82417 25.0799 9.77092C24.9887 9.72897 24.9006 9.68057 24.8163 9.62609C24.6831 9.54788 24.5759 9.4436 24.5585 9.45809Z" fill="url(#paint48_radial_1_4155)"/>
</g>
<path style="mix-blend-mode:multiply" opacity="0.25" d="M10.4505 10.647C10.688 11.1336 11.67 12.7644 14.5463 13.8332C14.5463 13.8332 15.3718 14.4589 15.1256 15.9071C14.8794 17.3554 14.4999 17.6798 13.2457 17.6798C12.2812 17.6798 10.5403 17.3902 9.42803 16.2953C9.2327 14.9903 9.33167 13.6582 9.71768 12.3965C9.89763 11.7884 10.1434 11.2018 10.4505 10.647Z" fill="url(#paint49_radial_1_4155)"/>
<path d="M14.5463 13.5108C14.5463 13.5108 15.3718 14.0727 15.1256 15.3762C14.8794 16.6797 14.4999 16.9693 13.2457 16.9693C11.9915 16.9693 9.43672 16.5174 8.63437 14.652C7.83202 12.7867 9.13548 10.5968 10.3868 10.4897C10.3839 10.5013 11.137 12.358 14.5463 13.5108Z" fill="url(#paint50_radial_1_4155)"/>
<path style="mix-blend-mode:multiply" opacity="0.5" d="M9.80594 10.6974C9.53327 11.1451 9.36854 11.6501 9.3248 12.1725C9.28107 12.6948 9.35951 13.2202 9.55393 13.707C10.3563 15.5608 12.914 16.0242 14.1682 16.0242C14.4414 16.031 14.7144 16.0067 14.9821 15.9518C14.7214 16.7773 14.2898 16.983 13.2442 16.983C11.99 16.983 9.43517 16.5311 8.63282 14.6657C7.95212 13.0958 8.77765 11.2825 9.80594 10.6974Z" fill="url(#paint51_radial_1_4155)"/>
<path style="mix-blend-mode:screen" d="M14.3638 15.7161C14.6158 14.4126 13.7845 13.8507 13.7845 13.8507C10.3752 12.6921 9.62209 10.844 9.62209 10.844C9.60474 10.8427 9.58731 10.8427 9.56996 10.844C9.80003 10.6519 10.0806 10.5302 10.3781 10.4936C10.3781 10.4936 11.1312 12.3503 14.5405 13.5031C14.5405 13.5031 15.366 14.065 15.1198 15.3685C14.917 16.42 14.6332 16.8168 13.8714 16.924C14.1118 16.6922 14.2566 16.3099 14.3638 15.7161Z" fill="url(#paint52_radial_1_4155)"/>
<path style="mix-blend-mode:screen" d="M9.62221 10.844C9.60486 10.8427 9.58743 10.8427 9.57007 10.844C9.80014 10.6519 10.0807 10.5302 10.3782 10.4936C10.3782 10.4936 11.1313 12.3503 14.5406 13.5031L14.5782 13.5321L13.802 13.8565H13.7846C10.3811 12.7094 9.62221 10.844 9.62221 10.844Z" fill="url(#paint53_radial_1_4155)"/>
<g style="mix-blend-mode:screen">
<path d="M13.533 14.2913C13.5156 14.3087 13.6749 14.5143 13.7618 14.749C13.8204 14.9048 13.8593 15.0673 13.8777 15.2327C13.9075 15.396 13.9163 15.5625 13.9037 15.728C13.9037 15.9771 13.7937 16.2204 13.8168 16.232C13.9311 16.0922 14.0051 15.924 14.0312 15.7454C14.0659 15.568 14.0747 15.3865 14.0573 15.2066C14.0218 15.0291 13.9613 14.8574 13.8777 14.6968C13.8028 14.5322 13.6834 14.3917 13.533 14.2913Z" fill="url(#paint54_radial_1_4155)"/>
<path d="M10.6875 12.5943C10.8566 12.7654 11.0452 12.9161 11.2495 13.0432C11.5391 13.2489 11.8491 13.4343 11.8491 13.4343C11.8491 13.4343 12.1677 13.6052 12.495 13.7529C12.7082 13.8633 12.9338 13.9479 13.167 14.0049C12.9721 13.8665 12.7668 13.7435 12.5529 13.637L11.9388 13.2865L11.3161 12.9418C11.1155 12.8105 10.9054 12.6943 10.6875 12.5943Z" fill="url(#paint55_radial_1_4155)"/>
<path d="M9.62228 15.5421C9.64256 15.5218 9.37028 15.2524 9.14724 14.9425C9.0466 14.8059 8.96204 14.6582 8.89524 14.5022C8.86569 14.4317 8.84148 14.3591 8.82283 14.285C8.79976 14.2129 8.78138 14.1393 8.76779 14.0649C8.74106 13.8963 8.7304 13.7256 8.73593 13.5551C8.73593 13.1785 8.81124 12.7962 8.78228 12.7904C8.68942 13.033 8.63092 13.2875 8.60848 13.5464C8.58837 13.7264 8.58837 13.908 8.60848 14.088C8.61923 14.1719 8.6347 14.255 8.65483 14.3371C8.68067 14.4177 8.71262 14.4961 8.75041 14.5718C8.82674 14.7335 8.92413 14.8845 9.04007 15.0207C9.20618 15.2234 9.40256 15.3993 9.62228 15.5421Z" fill="url(#paint56_radial_1_4155)"/>
<path d="M10.0737 15.7821C10.0593 15.8024 10.1664 15.9125 10.2881 16.0109C10.3679 16.0761 10.451 16.137 10.5372 16.1934C10.5372 16.1934 10.6762 16.263 10.8269 16.318C10.9775 16.373 11.1165 16.4136 11.131 16.3904C11.1455 16.3672 11.0122 16.2861 10.8848 16.2021L10.6328 16.037L10.3634 15.9038C10.2244 15.8343 10.0882 15.7618 10.0737 15.7821Z" fill="url(#paint57_radial_1_4155)"/>
</g>
</g>
<defs>
<radialGradient id="paint0_radial_1_4155" cx="0" cy="0" r="1" gradientUnits="userSpaceOnUse" gradientTransform="translate(38.8977 20.586) rotate(180) scale(0.973249)">
<stop offset="0.06" stop-color="#E47E99"/>
<stop offset="0.53" stop-color="#E43D99"/>
<stop offset="0.99" stop-color="#B30058"/>
</radialGradient>
<radialGradient id="paint1_radial_1_4155" cx="0" cy="0" r="1" gradientUnits="userSpaceOnUse" gradientTransform="translate(59.9394 30.7909) rotate(163) scale(44.4219 44.4219)">
<stop offset="0.06" stop-color="#0A1656"/>
<stop offset="0.89" stop-color="#4478AD"/>
</radialGradient>
<radialGradient id="paint2_radial_1_4155" cx="0" cy="0" r="1" gradientUnits="userSpaceOnUse" gradientTransform="translate(59.9389 30.7888) rotate(163) scale(44.4218)">
<stop offset="0.06" stop-color="#0A1656"/>
<stop offset="0.89" stop-color="#4478AD"/>
</radialGradient>
<radialGradient id="paint3_radial_1_4155" cx="0" cy="0" r="1" gradientUnits="userSpaceOnUse" gradientTransform="translate(12.1567 10.1432) rotate(180) scale(1.0109)">
<stop offset="0.06" stop-color="#E47E99"/>
<stop offset="0.53" stop-color="#E43D99"/>
<stop offset="0.99" stop-color="#B30058"/>
</radialGradient>
<radialGradient id="paint4_radial_1_4155" cx="0" cy="0" r="1" gradientUnits="userSpaceOnUse" gradientTransform="translate(18.2064 34.1993) rotate(180) scale(20.0559)">
<stop offset="0.06" stop-color="#FAF1D6"/>
<stop offset="0.24" stop-color="#F8EDD3"/>
<stop offset="0.42" stop-color="#F2E1CA"/>
<stop offset="0.61" stop-color="#E8CCBA"/>
<stop offset="0.8" stop-color="#DAB0A5"/>
<stop offset="0.95" stop-color="#CC928E"/>
</radialGradient>
<radialGradient id="paint5_radial_1_4155" cx="0" cy="0" r="1" gradientUnits="userSpaceOnUse" gradientTransform="translate(9.35262 25.2716) rotate(180) scale(2.16084 2.16085)">
<stop offset="0.06" stop-color="#FAF1D6"/>
<stop offset="0.24" stop-color="#F8EDD3"/>
<stop offset="0.42" stop-color="#F2E1CA"/>
<stop offset="0.61" stop-color="#E8CCBA"/>
<stop offset="0.8" stop-color="#DAB0A5"/>
<stop offset="0.95" stop-color="#CC928E"/>
</radialGradient>
<radialGradient id="paint6_radial_1_4155" cx="0" cy="0" r="1" gradientUnits="userSpaceOnUse" gradientTransform="translate(9.35279 25.2723) rotate(180) scale(2.16085 2.16085)">
<stop offset="0.06" stop-color="#FAF1D6"/>
<stop offset="0.24" stop-color="#F8EDD3"/>
<stop offset="0.42" stop-color="#F2E1CA"/>
<stop offset="0.61" stop-color="#E8CCBA"/>
<stop offset="0.8" stop-color="#DAB0A5"/>
<stop offset="0.95" stop-color="#CC928E"/>
</radialGradient>
<radialGradient id="paint7_radial_1_4155" cx="0" cy="0" r="1" gradientUnits="userSpaceOnUse" gradientTransform="translate(25.5395 30.6281) rotate(180) scale(2.68802)">
<stop offset="0.06" stop-color="#FAF1D6"/>
<stop offset="0.24" stop-color="#F8EDD3"/>
<stop offset="0.42" stop-color="#F2E1CA"/>
<stop offset="0.61" stop-color="#E8CCBA"/>
<stop offset="0.8" stop-color="#DAB0A5"/>
<stop offset="0.95" stop-color="#CC928E"/>
</radialGradient>
<radialGradient id="paint8_radial_1_4155" cx="0" cy="0" r="1" gradientUnits="userSpaceOnUse" gradientTransform="translate(20.6812 22.3529) rotate(-180) scale(25.6376)">
<stop offset="0.06" stop-color="#66B0D8"/>
<stop offset="1" stop-color="#3F1F7D"/>
</radialGradient>
<radialGradient id="paint9_radial_1_4155" cx="0" cy="0" r="1" gradientUnits="userSpaceOnUse" gradientTransform="translate(19.2753 22.3661) rotate(-180) scale(25.067 25.067)">
<stop offset="0.06" stop-color="#66B0D8"/>
<stop offset="1" stop-color="#3F1F7D"/>
</radialGradient>
<radialGradient id="paint10_radial_1_4155" cx="0" cy="0" r="1" gradientUnits="userSpaceOnUse" gradientTransform="translate(43.0396 19.1768) rotate(-180) scale(68.6054 68.6054)">
<stop stop-color="#B10058"/>
<stop offset="1" stop-color="#5C2D7D" stop-opacity="0.6"/>
</radialGradient>
<radialGradient id="paint11_radial_1_4155" cx="0" cy="0" r="1" gradientUnits="userSpaceOnUse" gradientTransform="translate(15.8221 38.1348) rotate(-180) scale(14.7001 14.7001)">
<stop stop-color="#B10058"/>
<stop offset="1" stop-color="#5C2D7D" stop-opacity="0.6"/>
</radialGradient>
<radialGradient id="paint12_radial_1_4155" cx="0" cy="0" r="1" gradientUnits="userSpaceOnUse" gradientTransform="translate(36.8361 30.7551) rotate(180) scale(10.6044 10.6044)">
<stop offset="0.06" stop-color="#66B0D8"/>
<stop offset="1" stop-color="#3F1F7D"/>
</radialGradient>
<radialGradient id="paint13_radial_1_4155" cx="0" cy="0" r="1" gradientUnits="userSpaceOnUse" gradientTransform="translate(2.806 9.78608) rotate(-180) scale(16.6264 16.6263)">
<stop offset="0.06" stop-color="#66B0D8"/>
<stop offset="1" stop-color="#3F1F7D"/>
</radialGradient>
<radialGradient id="paint14_radial_1_4155" cx="0" cy="0" r="1" gradientUnits="userSpaceOnUse" gradientTransform="translate(20.1072 22.396) rotate(-180) scale(25.6376 25.6376)">
<stop offset="0.06" stop-color="#66B0D8"/>
<stop offset="1" stop-color="#3F1F7D"/>
</radialGradient>
<radialGradient id="paint15_radial_1_4155" cx="0" cy="0" r="1" gradientUnits="userSpaceOnUse" gradientTransform="translate(20.0954 22.282) rotate(-180) scale(24.4036 24.4036)">
<stop offset="0.06" stop-color="#66B0D8"/>
<stop offset="1" stop-color="#3F1F7D"/>
</radialGradient>
<radialGradient id="paint16_radial_1_4155" cx="0" cy="0" r="1" gradientUnits="userSpaceOnUse" gradientTransform="translate(15.5098 34.5855) rotate(180) scale(4.93866 4.93866)">
<stop stop-color="#B10058"/>
<stop offset="1" stop-color="#5C2D7D" stop-opacity="0.6"/>
</radialGradient>
<radialGradient id="paint17_radial_1_4155" cx="0" cy="0" r="1" gradientUnits="userSpaceOnUse" gradientTransform="translate(26.2333 33.5537) rotate(180) scale(1.88567 1.88567)">
<stop stop-color="#B10058"/>
<stop offset="1" stop-color="#5C2D7D" stop-opacity="0.6"/>
</radialGradient>
<radialGradient id="paint18_radial_1_4155" cx="0" cy="0" r="1" gradientUnits="userSpaceOnUse" gradientTransform="translate(8.51927 26.8513) rotate(180) scale(2.00733 2.00733)">
<stop stop-color="#B10058"/>
<stop offset="1" stop-color="#5C2D7D" stop-opacity="0.6"/>
</radialGradient>
<radialGradient id="paint19_radial_1_4155" cx="0" cy="0" r="1" gradientUnits="userSpaceOnUse" gradientTransform="translate(31.6146 34.27) rotate(180) scale(3.00375)">
<stop offset="0.06" stop-color="#66B0D8"/>
<stop offset="1" stop-color="#3F1F7D"/>
</radialGradient>
<radialGradient id="paint20_radial_1_4155" cx="0" cy="0" r="1" gradientUnits="userSpaceOnUse" gradientTransform="translate(18.5106 24.7951) rotate(-180) scale(15.1549 15.1549)">
<stop offset="0.06" stop-color="#66B0D8"/>
<stop offset="1" stop-color="#3F1F7D"/>
</radialGradient>
<radialGradient id="paint21_radial_1_4155" cx="0" cy="0" r="1" gradientUnits="userSpaceOnUse" gradientTransform="translate(3.25402 19.5389) rotate(180) scale(4.34196)">
<stop offset="0.06" stop-color="#66B0D8"/>
<stop offset="1" stop-color="#3F1F7D"/>
</radialGradient>
<radialGradient id="paint22_radial_1_4155" cx="0" cy="0" r="1" gradientUnits="userSpaceOnUse" gradientTransform="translate(18.2854 29.8162) rotate(-180) scale(4.37673)">
<stop offset="0.06" stop-color="#66B0D8"/>
<stop offset="1" stop-color="#3F1F7D"/>
</radialGradient>
<radialGradient id="paint23_radial_1_4155" cx="0" cy="0" r="1" gradientUnits="userSpaceOnUse" gradientTransform="translate(25.1958 20.4032) rotate(-180) scale(21.8604 21.8604)">
<stop offset="0.06" stop-color="#66B0D8"/>
<stop offset="1" stop-color="#3F1F7D"/>
</radialGradient>
<radialGradient id="paint24_radial_1_4155" cx="0" cy="0" r="1" gradientUnits="userSpaceOnUse" gradientTransform="translate(25.1987 20.4019) rotate(-180) scale(21.8606 21.8605)">
<stop offset="0.06" stop-color="#66B0D8"/>
<stop offset="1" stop-color="#3F1F7D"/>
</radialGradient>
<radialGradient id="paint25_radial_1_4155" cx="0" cy="0" r="1" gradientUnits="userSpaceOnUse" gradientTransform="translate(25.1962 20.4036) rotate(-180) scale(21.8604 21.8604)">
<stop offset="0.06" stop-color="#66B0D8"/>
<stop offset="1" stop-color="#3F1F7D"/>
</radialGradient>
<radialGradient id="paint26_radial_1_4155" cx="0" cy="0" r="1" gradientUnits="userSpaceOnUse" gradientTransform="translate(25.1964 20.4043) rotate(-180) scale(21.8605 21.8606)">
<stop offset="0.06" stop-color="#66B0D8"/>
<stop offset="1" stop-color="#3F1F7D"/>
</radialGradient>
<radialGradient id="paint27_radial_1_4155" cx="0" cy="0" r="1" gradientUnits="userSpaceOnUse" gradientTransform="translate(25.1957 20.4031) rotate(-180) scale(21.8604 21.8605)">
<stop offset="0.06" stop-color="#66B0D8"/>
<stop offset="1" stop-color="#3F1F7D"/>
</radialGradient>
<radialGradient id="paint28_radial_1_4155" cx="0" cy="0" r="1" gradientUnits="userSpaceOnUse" gradientTransform="translate(25.1983 20.4025) rotate(-180) scale(21.8605 21.8604)">
<stop offset="0.06" stop-color="#66B0D8"/>
<stop offset="1" stop-color="#3F1F7D"/>
</radialGradient>
<radialGradient id="paint29_radial_1_4155" cx="0" cy="0" r="1" gradientUnits="userSpaceOnUse" gradientTransform="translate(25.1955 20.4028) rotate(-180) scale(21.8604 21.8605)">
<stop offset="0.06" stop-color="#66B0D8"/>
<stop offset="1" stop-color="#3F1F7D"/>
</radialGradient>
<radialGradient id="paint30_radial_1_4155" cx="0" cy="0" r="1" gradientUnits="userSpaceOnUse" gradientTransform="translate(25.1961 20.4033) rotate(-180) scale(21.8604 21.8605)">
<stop offset="0.06" stop-color="#66B0D8"/>
<stop offset="1" stop-color="#3F1F7D"/>
</radialGradient>
<radialGradient id="paint31_radial_1_4155" cx="0" cy="0" r="1" gradientUnits="userSpaceOnUse" gradientTransform="translate(25.1979 20.4048) rotate(-180) scale(21.8604 21.8605)">
<stop offset="0.06" stop-color="#66B0D8"/>
<stop offset="1" stop-color="#3F1F7D"/>
</radialGradient>
<radialGradient id="paint32_radial_1_4155" cx="0" cy="0" r="1" gradientUnits="userSpaceOnUse" gradientTransform="translate(19.1951 33.1877) rotate(180) scale(4.31011 4.3101)">
<stop offset="0.06" stop-color="#FAF1D6"/>
<stop offset="0.24" stop-color="#F8EDD3"/>
<stop offset="0.42" stop-color="#F2E1CA"/>
<stop offset="0.61" stop-color="#E8CCBA"/>
<stop offset="0.8" stop-color="#DAB0A5"/>
<stop offset="0.95" stop-color="#CC928E"/>
</radialGradient>
<radialGradient id="paint33_radial_1_4155" cx="0" cy="0" r="1" gradientUnits="userSpaceOnUse" gradientTransform="translate(27.4471 10.9974) rotate(-179.981) scale(24.6677 24.6677)">
<stop offset="0.06" stop-color="#FAF1D6"/>
<stop offset="0.24" stop-color="#F8EDD3"/>
<stop offset="0.42" stop-color="#F2E1CA"/>
<stop offset="0.61" stop-color="#E8CCBA"/>
<stop offset="0.8" stop-color="#DAB0A5"/>
<stop offset="0.95" stop-color="#CC928E"/>
</radialGradient>
<radialGradient id="paint34_radial_1_4155" cx="0" cy="0" r="1" gradientUnits="userSpaceOnUse" gradientTransform="translate(23.5783 11.5157) rotate(-180) scale(21.0118 21.0118)">
<stop stop-color="#B10058"/>
<stop offset="1" stop-color="#5C2D7D" stop-opacity="0.6"/>
</radialGradient>
<radialGradient id="paint35_radial_1_4155" cx="0" cy="0" r="1" gradientUnits="userSpaceOnUse" gradientTransform="translate(26.5989 8.52863) rotate(-180) scale(19.4302)">
<stop offset="0.06" stop-color="#66B0D8"/>
<stop offset="0.89" stop-color="#93FCCE"/>
</radialGradient>
<radialGradient id="paint36_radial_1_4155" cx="0" cy="0" r="1" gradientUnits="userSpaceOnUse" gradientTransform="translate(26.4969 11.1008) rotate(-180) scale(17.6836 17.6836)">
<stop offset="0.06" stop-color="#66B0D8"/>
<stop offset="0.89" stop-color="#93FCCE"/>
</radialGradient>
<radialGradient id="paint37_radial_1_4155" cx="0" cy="0" r="1" gradientUnits="userSpaceOnUse" gradientTransform="translate(26.0223 8.52498) rotate(-180) scale(19.0913 19.0913)">
<stop offset="0.06" stop-color="#66B0D8"/>
<stop offset="1" stop-color="#3F1F7D"/>
</radialGradient>
<radialGradient id="paint38_radial_1_4155" cx="0" cy="0" r="1" gradientUnits="userSpaceOnUse" gradientTransform="translate(26.0168 9.2222) rotate(-180) scale(17.8806 17.8806)">
<stop offset="0.06" stop-color="#66B0D8"/>
<stop offset="1" stop-color="#3F1F7D"/>
</radialGradient>
<radialGradient id="paint39_radial_1_4155" cx="0" cy="0" r="1" gradientUnits="userSpaceOnUse" gradientTransform="translate(24.1716 7.88502) rotate(-180) scale(13.3619)">
<stop offset="0.06" stop-color="#FAF1D6"/>
<stop offset="0.24" stop-color="#F8EDD3"/>
<stop offset="0.42" stop-color="#F2E1CA"/>
<stop offset="0.61" stop-color="#E8CCBA"/>
<stop offset="0.8" stop-color="#DAB0A5"/>
<stop offset="0.95" stop-color="#CC928E"/>
</radialGradient>
<radialGradient id="paint40_radial_1_4155" cx="0" cy="0" r="1" gradientUnits="userSpaceOnUse" gradientTransform="translate(24.1726 7.88304) rotate(-180) scale(13.3619 13.3619)">
<stop offset="0.06" stop-color="#FAF1D6"/>
<stop offset="0.24" stop-color="#F8EDD3"/>
<stop offset="0.42" stop-color="#F2E1CA"/>
<stop offset="0.61" stop-color="#E8CCBA"/>
<stop offset="0.8" stop-color="#DAB0A5"/>
<stop offset="0.95" stop-color="#CC928E"/>
</radialGradient>
<radialGradient id="paint41_radial_1_4155" cx="0" cy="0" r="1" gradientUnits="userSpaceOnUse" gradientTransform="translate(25.8694 5.79156) rotate(-180) scale(8.53331 8.53331)">
<stop stop-color="#B10058"/>
<stop offset="1" stop-color="#5C2D7D" stop-opacity="0.6"/>
</radialGradient>
<radialGradient id="paint42_radial_1_4155" cx="0" cy="0" r="1" gradientUnits="userSpaceOnUse" gradientTransform="translate(26.24 4.86923) rotate(-180) scale(8.77083)">
<stop stop-color="#F20074"/>
<stop offset="0.14" stop-color="#ED0376"/>
<stop offset="0.31" stop-color="#DF0B7D"/>
<stop offset="0.49" stop-color="#C71887"/>
<stop offset="0.67" stop-color="#A62A96"/>
<stop offset="0.87" stop-color="#7B42A9"/>
<stop offset="0.9" stop-color="#7446AC"/>
</radialGradient>
<radialGradient id="paint43_radial_1_4155" cx="0" cy="0" r="1" gradientUnits="userSpaceOnUse" gradientTransform="translate(26.2289 4.88028) rotate(-180) scale(8.75635 8.75635)">
<stop stop-color="#F20074"/>
<stop offset="0.14" stop-color="#ED0376"/>
<stop offset="0.31" stop-color="#DF0B7D"/>
<stop offset="0.49" stop-color="#C71887"/>
<stop offset="0.67" stop-color="#A62A96"/>
<stop offset="0.87" stop-color="#7B42A9"/>
<stop offset="0.9" stop-color="#7446AC"/>
</radialGradient>
<radialGradient id="paint44_radial_1_4155" cx="0" cy="0" r="1" gradientUnits="userSpaceOnUse" gradientTransform="translate(22.9338 4.85718) rotate(-180) scale(6.14364 6.14364)">
<stop stop-color="#F20074"/>
<stop offset="0.14" stop-color="#ED0376"/>
<stop offset="0.31" stop-color="#DF0B7D"/>
<stop offset="0.49" stop-color="#C71887"/>
<stop offset="0.67" stop-color="#A62A96"/>
<stop offset="0.87" stop-color="#7B42A9"/>
<stop offset="0.9" stop-color="#7446AC"/>
</radialGradient>
<radialGradient id="paint45_radial_1_4155" cx="0" cy="0" r="1" gradientUnits="userSpaceOnUse" gradientTransform="translate(26.1527 6.00896) rotate(-180) scale(10.6304 10.6304)">
<stop stop-color="#F20074"/>
<stop offset="0.14" stop-color="#ED0376"/>
<stop offset="0.31" stop-color="#DF0B7D"/>
<stop offset="0.49" stop-color="#C71887"/>
<stop offset="0.67" stop-color="#A62A96"/>
<stop offset="0.87" stop-color="#7B42A9"/>
<stop offset="0.9" stop-color="#7446AC"/>
</radialGradient>
<radialGradient id="paint46_radial_1_4155" cx="0" cy="0" r="1" gradientUnits="userSpaceOnUse" gradientTransform="translate(26.152 6.00849) rotate(-180) scale(10.6304 10.6304)">
<stop stop-color="#F20074"/>
<stop offset="0.14" stop-color="#ED0376"/>
<stop offset="0.31" stop-color="#DF0B7D"/>
<stop offset="0.49" stop-color="#C71887"/>
<stop offset="0.67" stop-color="#A62A96"/>
<stop offset="0.87" stop-color="#7B42A9"/>
<stop offset="0.9" stop-color="#7446AC"/>
</radialGradient>
<radialGradient id="paint47_radial_1_4155" cx="0" cy="0" r="1" gradientUnits="userSpaceOnUse" gradientTransform="translate(26.1521 6.01038) rotate(-180) scale(10.6304 10.6304)">
<stop stop-color="#F20074"/>
<stop offset="0.14" stop-color="#ED0376"/>
<stop offset="0.31" stop-color="#DF0B7D"/>
<stop offset="0.49" stop-color="#C71887"/>
<stop offset="0.67" stop-color="#A62A96"/>
<stop offset="0.87" stop-color="#7B42A9"/>
<stop offset="0.9" stop-color="#7446AC"/>
</radialGradient>
<radialGradient id="paint48_radial_1_4155" cx="0" cy="0" r="1" gradientUnits="userSpaceOnUse" gradientTransform="translate(26.1516 6.00826) rotate(-180) scale(10.6304 10.6304)">
<stop stop-color="#F20074"/>
<stop offset="0.14" stop-color="#ED0376"/>
<stop offset="0.31" stop-color="#DF0B7D"/>
<stop offset="0.49" stop-color="#C71887"/>
<stop offset="0.67" stop-color="#A62A96"/>
<stop offset="0.87" stop-color="#7B42A9"/>
<stop offset="0.9" stop-color="#7446AC"/>
</radialGradient>
<radialGradient id="paint49_radial_1_4155" cx="0" cy="0" r="1" gradientUnits="userSpaceOnUse" gradientTransform="translate(13.7642 10.7831) rotate(-180) scale(7.41814 7.41813)">
<stop stop-color="#B10058"/>
<stop offset="1" stop-color="#5C2D7D" stop-opacity="0.6"/>
</radialGradient>
<radialGradient id="paint50_radial_1_4155" cx="0" cy="0" r="1" gradientUnits="userSpaceOnUse" gradientTransform="translate(13.5383 10.6258) rotate(-180) scale(7.38337)">
<stop stop-color="#F20074"/>
<stop offset="0.14" stop-color="#ED0376"/>
<stop offset="0.31" stop-color="#DF0B7D"/>
<stop offset="0.49" stop-color="#C71887"/>
<stop offset="0.67" stop-color="#A62A96"/>
<stop offset="0.87" stop-color="#7B42A9"/>
<stop offset="0.9" stop-color="#7446AC"/>
</radialGradient>
<radialGradient id="paint51_radial_1_4155" cx="0" cy="0" r="1" gradientUnits="userSpaceOnUse" gradientTransform="translate(13.3948 10.8162) rotate(180) scale(7.17192 7.17192)">
<stop stop-color="#F20074"/>
<stop offset="0.14" stop-color="#ED0376"/>
<stop offset="0.31" stop-color="#DF0B7D"/>
<stop offset="0.49" stop-color="#C71887"/>
<stop offset="0.67" stop-color="#A62A96"/>
<stop offset="0.87" stop-color="#7B42A9"/>
<stop offset="0.9" stop-color="#7446AC"/>
</radialGradient>
<radialGradient id="paint52_radial_1_4155" cx="0" cy="0" r="1" gradientUnits="userSpaceOnUse" gradientTransform="translate(13.825 10.6268) rotate(180) scale(6.87068 6.87068)">
<stop stop-color="#F20074"/>
<stop offset="0.14" stop-color="#ED0376"/>
<stop offset="0.31" stop-color="#DF0B7D"/>
<stop offset="0.49" stop-color="#C71887"/>
<stop offset="0.67" stop-color="#A62A96"/>
<stop offset="0.87" stop-color="#7B42A9"/>
<stop offset="0.9" stop-color="#7446AC"/>
</radialGradient>
<radialGradient id="paint53_radial_1_4155" cx="0" cy="0" r="1" gradientUnits="userSpaceOnUse" gradientTransform="translate(13.3791 10.566) rotate(-180) scale(4.55051 4.55052)">
<stop stop-color="#F20074"/>
<stop offset="0.14" stop-color="#ED0376"/>
<stop offset="0.31" stop-color="#DF0B7D"/>
<stop offset="0.49" stop-color="#C71887"/>
<stop offset="0.67" stop-color="#A62A96"/>
<stop offset="0.87" stop-color="#7B42A9"/>
<stop offset="0.9" stop-color="#7446AC"/>
</radialGradient>
<radialGradient id="paint54_radial_1_4155" cx="0" cy="0" r="1" gradientUnits="userSpaceOnUse" gradientTransform="translate(13.6286 12.6547) rotate(-180) scale(10.613 10.6131)">
<stop stop-color="#F20074"/>
<stop offset="0.14" stop-color="#ED0376"/>
<stop offset="0.31" stop-color="#DF0B7D"/>
<stop offset="0.49" stop-color="#C71887"/>
<stop offset="0.67" stop-color="#A62A96"/>
<stop offset="0.87" stop-color="#7B42A9"/>
<stop offset="0.9" stop-color="#7446AC"/>
</radialGradient>
<radialGradient id="paint55_radial_1_4155" cx="0" cy="0" r="1" gradientUnits="userSpaceOnUse" gradientTransform="translate(13.6275 12.6522) rotate(-180) scale(10.613 10.6131)">
<stop stop-color="#F20074"/>
<stop offset="0.14" stop-color="#ED0376"/>
<stop offset="0.31" stop-color="#DF0B7D"/>
<stop offset="0.49" stop-color="#C71887"/>
<stop offset="0.67" stop-color="#A62A96"/>
<stop offset="0.87" stop-color="#7B42A9"/>
<stop offset="0.9" stop-color="#7446AC"/>
</radialGradient>
<radialGradient id="paint56_radial_1_4155" cx="0" cy="0" r="1" gradientUnits="userSpaceOnUse" gradientTransform="translate(13.6282 12.6513) rotate(-180) scale(10.6131 10.6131)">
<stop stop-color="#F20074"/>
<stop offset="0.14" stop-color="#ED0376"/>
<stop offset="0.31" stop-color="#DF0B7D"/>
<stop offset="0.49" stop-color="#C71887"/>
<stop offset="0.67" stop-color="#A62A96"/>
<stop offset="0.87" stop-color="#7B42A9"/>
<stop offset="0.9" stop-color="#7446AC"/>
</radialGradient>
<radialGradient id="paint57_radial_1_4155" cx="0" cy="0" r="1" gradientUnits="userSpaceOnUse" gradientTransform="translate(13.6278 12.6538) rotate(-180) scale(10.613 10.613)">
<stop stop-color="#F20074"/>
<stop offset="0.14" stop-color="#ED0376"/>
<stop offset="0.31" stop-color="#DF0B7D"/>
<stop offset="0.49" stop-color="#C71887"/>
<stop offset="0.67" stop-color="#A62A96"/>
<stop offset="0.87" stop-color="#7B42A9"/>
<stop offset="0.9" stop-color="#7446AC"/>
</radialGradient>
<clipPath id="clip0_1_4155">
<rect width="64" height="64" fill="white"/>
</clipPath>
</defs>
</svg>
