<svg width="24" height="24" viewBox="0 0 24 24" fill="none" xmlns="http://www.w3.org/2000/svg">
<path d="M5.06021 4.35999C5.05967 4.35999 5.05906 4.35999 5.05852 4.35999C4.86936 4.35999 4.69145 4.43372 4.55711 4.56773C4.42128 4.70322 4.34647 4.88362 4.34647 5.07568V15.8074C4.34647 16.2009 4.66788 16.5218 5.06303 16.5229C6.7289 16.5268 9.51988 16.874 11.4453 18.8889V7.65791C11.4453 7.52451 11.4112 7.39919 11.3469 7.29548C9.76662 4.75056 6.72984 4.36389 5.06021 4.35999Z" fill="white"/>
<path d="M19.654 15.8074V5.07568C19.654 4.88362 19.5792 4.70322 19.4434 4.56773C19.3091 4.43372 19.131 4.35999 18.9421 4.35999C18.9414 4.35999 18.9408 4.35999 18.9403 4.35999C17.2707 4.36396 14.234 4.75063 12.6536 7.29555C12.5893 7.39925 12.5553 7.52457 12.5553 7.65798V18.8889C14.4807 16.874 17.2717 16.5268 18.9375 16.5229C19.3326 16.5218 19.654 16.2009 19.654 15.8074Z" fill="white"/>
<path d="M21.2844 6.8349H20.7655V15.8074C20.7655 16.8122 19.9468 17.6315 18.9405 17.634C17.5275 17.6374 15.1976 17.9137 13.5476 19.4753C16.4014 18.7766 19.4097 19.2308 21.1242 19.6215C21.3383 19.6703 21.5595 19.6199 21.731 19.4832C21.9019 19.3469 22 19.143 22 18.9242V7.55046C22 7.15591 21.6789 6.8349 21.2844 6.8349Z" fill="white"/>
<path d="M3.23448 15.8074V6.8349H2.71556C2.32108 6.8349 2 7.15591 2 7.55046V18.924C2 19.1429 2.09805 19.3467 2.26896 19.483C2.44034 19.6197 2.66135 19.6702 2.87576 19.6213C4.59024 19.2306 7.59867 18.7764 10.4523 19.4751C8.80231 17.9135 6.47247 17.6373 5.05947 17.6339C4.05321 17.6315 3.23448 16.8122 3.23448 15.8074Z" fill="white"/>
</svg>
