<svg width="24" height="24" viewBox="0 0 24 24" fill="none" xmlns="http://www.w3.org/2000/svg">
<path fill-rule="evenodd" clip-rule="evenodd" d="M13.305 5.59216H16.068C19.389 5.59216 21.009 7.36516 21 11.0012V15.3842C21 18.8582 18.858 21.0002 15.375 21.0002H8.61601C5.151 21.0002 3 18.8582 3 15.3752V8.61616C3 4.89016 4.656 3.00015 7.923 3.00015H9.34501C10.1829 2.99115 10.965 3.37815 11.478 4.03515L12.27 5.08816C12.522 5.40316 12.9 5.59216 13.305 5.59216ZM7.8331 14.9613H16.1671C16.5361 14.9613 16.8331 14.6553 16.8331 14.2863C16.8331 13.9083 16.5361 13.6113 16.1671 13.6113H7.8331C7.4551 13.6113 7.1581 13.9083 7.1581 14.2863C7.1581 14.6553 7.4551 14.9613 7.8331 14.9613Z" fill="white"/>
</svg>
