<svg width="24" height="24" viewBox="0 0 24 24" fill="none" xmlns="http://www.w3.org/2000/svg">
<path fill-rule="evenodd" clip-rule="evenodd" d="M8.2286 3H15.7715C18.5516 3 20.0996 4.602 20.0996 7.347V16.644C20.0996 19.434 18.5516 21 15.7715 21H8.2286C5.4926 21 3.8996 19.434 3.8996 16.644V7.347C3.8996 4.602 5.4926 3 8.2286 3ZM8.47093 7.19401V7.18501H11.161C11.5489 7.18501 11.8639 7.50001 11.8639 7.88611C11.8639 8.28301 11.5489 8.59801 11.161 8.59801H8.47093C8.08303 8.59801 7.76893 8.28301 7.76893 7.89601C7.76893 7.50901 8.08303 7.19401 8.47093 7.19401ZM8.47093 12.6661H15.5269C15.9139 12.6661 16.2289 12.3511 16.2289 11.9641C16.2289 11.5771 15.9139 11.2612 15.5269 11.2612H8.47093C8.08303 11.2612 7.76893 11.5771 7.76893 11.9641C7.76893 12.3511 8.08303 12.6661 8.47093 12.6661ZM8.47107 16.779H15.5271C15.8862 16.743 16.1571 16.4361 16.1571 16.077C16.1571 15.708 15.8862 15.402 15.5271 15.366H8.47107C8.20107 15.339 7.94007 15.465 7.79607 15.699C7.65207 15.924 7.65207 16.221 7.79607 16.455C7.94007 16.68 8.20107 16.815 8.47107 16.779Z" fill="white"/>
</svg>
