<svg width="130" height="130" viewBox="0 0 130 130" fill="none" xmlns="http://www.w3.org/2000/svg">
<path fill-rule="evenodd" clip-rule="evenodd" d="M82.8427 33.98C82.8427 33.98 87.3877 35.2387 90.413 35.0546C90.413 35.0546 95.8311 38.7355 98.8564 48.4922C98.8564 48.4922 96.254 51.5761 96.8075 55.1609C96.8075 55.1609 92.1735 42.5691 82.8427 33.98Z" fill="url(#paint0_linear_1_3731)"/>
<path fill-rule="evenodd" clip-rule="evenodd" d="M87.8274 106.782C87.8274 106.782 85.9738 106.223 84.5978 106.391C84.5978 106.391 82.7482 105.003 82.7199 102.599C82.7199 102.599 84.1364 100.847 84.6534 99.4962C84.6534 99.4962 85.2221 103.379 87.8274 106.782Z" fill="url(#paint1_linear_1_3731)"/>
<path fill-rule="evenodd" clip-rule="evenodd" d="M97.5389 62.2401C97.5428 66.7744 96.6525 71.2649 94.9188 75.4546C93.1852 79.6444 90.6423 83.4511 87.4357 86.6569C84.2291 89.8627 80.4218 92.4047 76.2317 94.1374C72.0415 95.87 67.5509 96.7593 63.0166 96.7544C62.4045 96.7544 61.7852 96.7402 61.1802 96.7038H61.1731C60.2696 96.6603 59.3731 96.5723 58.4919 96.463C51.993 95.612 45.8741 92.9169 40.8593 88.6965C37.6249 85.9742 34.9073 82.6915 32.8368 79.0055C32.6254 78.6261 32.422 78.2406 32.2176 77.8541C32.2161 77.841 32.2112 77.8284 32.2035 77.8177C31.992 77.4029 31.7988 76.987 31.6055 76.5641H31.5984C30.9942 75.2397 30.4781 73.8769 30.0534 72.4845C29.7306 71.4692 29.4604 70.4378 29.244 69.3945C29.2382 69.3859 29.2357 69.3755 29.2369 69.3652C29.0841 68.6296 28.9526 67.887 28.8504 67.1393C28.616 65.5178 28.499 63.8815 28.5003 62.2432C28.5003 61.2881 28.5367 60.3339 28.6248 59.4011C28.6683 58.8041 28.734 58.2132 28.814 57.6233C29.2514 54.2898 30.183 51.04 31.5782 47.981C34.3208 41.9422 38.7436 36.8205 44.3183 33.2274C49.8931 29.6342 56.3842 27.7216 63.0166 27.7178C63.3809 27.7178 63.7451 27.7249 64.1023 27.732C64.4888 27.7471 64.8742 27.7613 65.2607 27.7906C67.213 27.9161 69.1509 28.2086 71.0533 28.6648C72.146 28.9269 73.2175 29.2335 74.2667 29.5977C74.9811 29.8375 75.6832 30.1036 76.3723 30.399C76.8893 30.6176 77.3921 30.8432 77.895 31.084C77.983 31.1275 78.07 31.164 78.157 31.2075C81.4895 32.8371 84.5378 34.9924 87.1853 37.5909C87.5637 37.9551 87.9279 38.3335 88.2922 38.72C88.533 38.9821 88.7738 39.2512 89.0065 39.5214C89.4112 39.9726 89.7937 40.4461 90.1721 40.9207C93.1876 44.7541 95.3536 49.1849 96.5262 53.9192C97.2014 56.6412 97.5415 59.4356 97.5389 62.2401Z" fill="url(#paint2_radial_1_3731)"/>
<path style="mix-blend-mode:multiply" opacity="0.5" fill-rule="evenodd" clip-rule="evenodd" d="M29.8179 57.1421C29.8179 57.1421 35.9757 60.3546 41.4909 55.9867C47.0062 51.6188 42.5938 35.3299 42.5938 35.3299L29.8179 57.1421Z" fill="url(#paint3_linear_1_3731)"/>
<path style="mix-blend-mode:multiply" opacity="0.89" fill-rule="evenodd" clip-rule="evenodd" d="M69.8399 81.9617C69.8399 81.9617 72.6254 85.3107 79.4418 85.679C86.2582 86.0473 93.0696 78.218 94.6339 71.1355C96.1981 64.0529 91.1361 56.8844 86.1662 55.7724C81.1962 54.6605 69.8399 81.9617 69.8399 81.9617Z" fill="url(#paint4_linear_1_3731)"/>
<path style="mix-blend-mode:screen" fill-rule="evenodd" clip-rule="evenodd" d="M42.5491 89.1983C38.9594 86.1934 36.0161 82.4919 33.8972 78.3175C32.5447 75.6509 31.548 72.8183 30.9327 69.8923C30.9271 69.8836 30.925 69.8732 30.9266 69.863C30.4376 67.5195 30.1908 65.1319 30.19 62.738C30.1905 53.583 33.8275 44.8032 40.3011 38.3297C46.7746 31.8562 55.5544 28.2192 64.7093 28.2186C65.4641 28.2186 66.2058 28.2429 66.9484 28.2905C69.2488 28.4381 71.5284 28.8171 73.7527 29.4217C71.0016 28.5214 68.1476 27.973 65.2587 27.7896C64.5161 27.7421 63.7734 27.7178 63.0186 27.7178C58.4849 27.7157 53.9953 28.6071 49.8063 30.3411C45.6173 32.0751 41.8111 34.6177 38.6054 37.8236C35.3996 41.0294 32.8571 44.8357 31.1232 49.0247C29.3893 53.2137 28.498 57.7034 28.5003 62.2371C28.5006 64.6311 28.7474 67.0187 29.2369 69.3622C29.2369 69.3743 29.2369 69.3864 29.2429 69.3915C29.8575 72.3176 30.8539 75.1502 32.2065 77.8167C34.3982 82.1333 37.4703 85.9425 41.2246 88.9989C44.979 92.0553 49.3322 94.2909 54.0036 95.5615C49.8134 94.193 45.9249 92.0328 42.5491 89.1983Z" fill="url(#paint5_radial_1_3731)"/>
<path fill-rule="evenodd" clip-rule="evenodd" d="M34.824 82.151C34.824 82.151 37.0115 85.7146 36.459 91.5132C36.459 91.5132 41.2529 99.8918 54.7826 100.582C54.7826 100.582 61.5929 95.5613 68.1109 96.3789C68.1109 96.3789 56.8558 80.3339 34.824 82.151Z" fill="url(#paint6_linear_1_3731)"/>
<path fill-rule="evenodd" clip-rule="evenodd" d="M91.8383 62.0156C91.8383 62.0156 89.4262 53.5297 81.2316 53.0238C72.5414 52.4835 64.8457 69.8256 67.5269 78.1102C70.2082 86.3948 79.8809 85.2008 84.3106 82.1908C89.6892 78.5311 92.33 70.4499 91.8383 62.0156Z" fill="url(#paint7_linear_1_3731)"/>
<path style="mix-blend-mode:multiply" opacity="0.5" fill-rule="evenodd" clip-rule="evenodd" d="M54.9795 37.0975C54.9795 37.0975 57.9208 42.0745 63.6182 41.5302C69.8407 40.9353 71.5031 35.6618 71.2714 33.5805C71.0397 31.4993 54.9795 37.0975 54.9795 37.0975Z" fill="url(#paint8_linear_1_3731)"/>
<path fill-rule="evenodd" clip-rule="evenodd" d="M82.5726 55.9868C75.059 55.9464 63.9293 75.9374 73.6192 82.6587C82.8265 89.0441 91.3327 75.1846 92.3314 70.4494C93.33 65.7142 92.6905 56.0425 82.5726 55.9868Z" fill="url(#paint9_linear_1_3731)"/>
<path fill-rule="evenodd" clip-rule="evenodd" d="M79.0746 82.4536C78.7174 82.4253 78.3663 82.3737 78.0395 82.3231C73.3772 81.5217 71.6278 78.2759 71.2342 75.0078C71.0269 73.1112 71.1954 71.1924 71.73 69.361C72.6113 66.4167 77.3404 59.5173 82.7585 58.548C84.6809 58.1979 86.6924 58.6056 88.6522 60.2164C90.3065 61.5864 91.1301 63.3864 91.3193 65.3826C92.0437 72.8284 84.1528 82.9059 79.0746 82.4536Z" fill="url(#paint10_linear_1_3731)"/>
<path fill-rule="evenodd" clip-rule="evenodd" d="M56.3025 27.9572C56.3025 27.9572 52.8513 32.3879 54.5541 36.3713C56.3602 40.5965 66.4801 40.4185 69.7502 37.1888C73.0204 33.9592 70.41 27.8034 67.5972 26.7239C64.3928 25.4935 60.1615 25.7252 56.3025 27.9572Z" fill="url(#paint11_radial_1_3731)"/>
<path fill-rule="evenodd" clip-rule="evenodd" d="M55.6591 33.7536C57.4217 37.306 69.4842 37.8129 70.3564 31.6511C71.1841 25.7979 62.6324 25.0744 60.1636 25.724C57.6949 26.3736 53.2865 28.9709 55.6591 33.7536Z" fill="url(#paint12_linear_1_3731)"/>
<path fill-rule="evenodd" clip-rule="evenodd" d="M68.6387 30.1345C68.661 30.3234 68.661 30.5143 68.6387 30.7032C68.631 30.8969 68.6042 31.0894 68.5588 31.2779C67.5753 35.235 59.6256 36.524 57.8115 34.3234C57.3646 33.804 57.0384 33.192 56.8564 32.5315C56.2371 30.1032 58.4014 28.1595 59.8371 27.4088C61.6077 26.4769 68.2451 25.5218 68.6387 30.1345Z" fill="url(#paint13_linear_1_3731)"/>
<path fill-rule="evenodd" clip-rule="evenodd" d="M36.4586 91.5134C35.7503 87.4804 56.2553 90.2668 54.7821 100.582C54.4593 102.837 37.6292 98.2114 36.4586 91.5134Z" fill="url(#paint14_linear_1_3731)"/>
<path fill-rule="evenodd" clip-rule="evenodd" d="M52.9404 100.286C52.5974 100.563 41.3483 98.9016 37.4792 92.067C37.2243 91.6076 38.4262 91.4599 40.2697 91.6805C41.0528 91.7739 41.8299 91.9128 42.5969 92.0963C45.2639 92.7155 48.4035 93.9246 50.5313 95.8481C51.0932 96.3432 51.6124 96.8847 52.0834 97.4669C52.6298 98.1661 52.9212 98.7347 53.0527 99.1718C53.2308 99.79 53.1003 100.162 52.9404 100.286Z" fill="url(#paint15_linear_1_3731)"/>
<path fill-rule="evenodd" clip-rule="evenodd" d="M52.08 97.4655C47.6211 96.6784 44.4147 94.0406 42.5935 92.0959C45.2606 92.7152 48.4002 93.9243 50.528 95.8477C51.0898 96.3425 51.609 96.8837 52.08 97.4655Z" fill="url(#paint16_linear_1_3731)"/>
<path fill-rule="evenodd" clip-rule="evenodd" d="M36.4581 77.2989C36.102 77.0803 35.7499 76.6918 35.4382 76.1859C35.4382 76.1859 35.4382 76.1788 35.4241 76.1636C34.2797 74.3201 33.617 71.1148 34.8261 70.4591C36.3205 69.6426 38.5283 70.0655 39.5259 72.7175C39.5266 72.7233 39.5295 72.7287 39.534 72.7326C39.5723 72.8222 39.6037 72.9145 39.6281 73.0089C39.6361 73.0222 39.6413 73.037 39.6433 73.0524C39.6549 73.1152 39.6743 73.1764 39.7009 73.2345C39.7303 73.3296 39.7596 73.4247 39.7809 73.5269C40.4001 76.0523 38.1276 78.3117 36.4581 77.2989Z" fill="url(#paint17_linear_1_3731)"/>
<path style="mix-blend-mode:multiply" opacity="0.4" fill-rule="evenodd" clip-rule="evenodd" d="M39.5259 72.7144C38.9654 71.5853 36.7789 70.274 35.4382 71.5003C34.0329 72.7822 35.3077 75.8712 35.4241 76.1626C34.2797 74.3191 33.617 71.1138 34.8261 70.4581C36.3205 69.6396 38.5283 70.0625 39.5259 72.7144Z" fill="url(#paint18_radial_1_3731)"/>
<path fill-rule="evenodd" clip-rule="evenodd" d="M46.9159 43.7047C46.7343 43.5551 46.589 43.3662 46.491 43.1523C46.491 43.1523 46.491 43.1523 46.4849 43.1421C46.0306 42.2508 45.8505 40.7523 46.4313 40.4983C47.1486 40.1816 48.1513 40.4609 48.5024 41.7175C48.5016 41.7198 48.5016 41.7223 48.5024 41.7246C48.5169 41.7675 48.5277 41.8115 48.5348 41.8562C48.5383 41.8623 48.5401 41.8693 48.5399 41.8764C48.5432 41.9058 48.5499 41.9346 48.5601 41.9624C48.5692 42.0069 48.5793 42.0514 48.5854 42.099C48.7786 43.2848 47.6434 44.2339 46.9159 43.7047Z" fill="url(#paint19_linear_1_3731)"/>
<path style="mix-blend-mode:multiply" opacity="0.4" fill-rule="evenodd" clip-rule="evenodd" d="M48.5024 41.7175C48.2889 41.1772 47.3358 40.4902 46.6721 41.0002C45.976 41.5354 46.4424 43.0035 46.4849 43.1421C46.0306 42.2508 45.8505 40.7523 46.4313 40.4983C47.1486 40.1816 48.1473 40.4609 48.5024 41.7175Z" fill="url(#paint20_radial_1_3731)"/>
<path fill-rule="evenodd" clip-rule="evenodd" d="M72.7668 91.894H72.7577C72.6862 91.9326 72.6091 91.9596 72.5291 91.974C72.5169 91.9851 72.5058 91.9962 72.4947 91.9962C72.4428 92.0032 72.3925 92.0189 72.3459 92.0428C72.2771 92.065 72.1972 92.0883 72.1061 92.1105C70.9507 92.4202 69.865 91.9962 69.2589 91.3102C68.7672 90.7618 68.5952 90.0647 68.9554 89.4475C69.1264 89.15 69.4471 88.8526 69.8579 88.5895L69.8701 88.5784C71.3675 87.606 73.9972 87 74.5577 87.9834C74.7188 88.2481 74.8203 88.5447 74.8552 88.8526C75.0191 89.9544 74.4585 91.2192 72.7668 91.894Z" fill="url(#paint21_linear_1_3731)"/>
<path style="mix-blend-mode:screen" opacity="0.5" fill-rule="evenodd" clip-rule="evenodd" d="M44.3099 72.8836C44.3099 72.8836 46.3861 76.1951 52.0794 75.8501C57.7728 75.5051 58.8079 72.7196 59.1529 70.4532C59.4979 68.1868 58.5458 65.3993 58.5458 65.3993C58.5458 65.3993 45.9652 67.777 44.3099 72.8836Z" fill="url(#paint22_radial_1_3731)"/>
<path style="mix-blend-mode:multiply" opacity="0.4" fill-rule="evenodd" clip-rule="evenodd" d="M74.8483 88.8526C74.3788 88.4479 73.4075 87.9612 71.818 88.464C69.3826 89.23 69.2571 91.3102 69.2571 91.3102C68.7654 90.7618 68.5934 90.0647 68.9536 89.4475C69.1246 89.15 69.4453 88.8526 69.8561 88.5895L69.8682 88.5784C71.3657 87.606 73.9954 87 74.5559 87.9834C74.7152 88.2485 74.815 88.5451 74.8483 88.8526Z" fill="url(#paint23_radial_1_3731)"/>
<path fill-rule="evenodd" clip-rule="evenodd" d="M58.8258 68.604L58.8187 68.7274C58.8339 77.5442 45.6239 76.4656 43.5548 71.7729C43.257 71.0867 43.02 70.3757 42.8465 69.6481V69.64C41.681 64.919 42.4095 58.5943 44.515 57.1444C46.7298 55.6217 50.9854 55.5852 54.0815 57.1444C57.5732 58.8999 58.9502 64.1521 58.8258 68.604Z" fill="url(#paint24_linear_1_3731)"/>
<path style="mix-blend-mode:multiply" opacity="0.4" fill-rule="evenodd" clip-rule="evenodd" d="M58.8266 68.6041L58.8195 68.7276C58.8195 68.7276 59.0168 63.2123 56.3497 60.268C53.6826 57.3237 48.3424 56.494 45.2898 59.8096C42.3162 63.0474 42.819 69.3397 42.8484 69.6382C41.6828 64.9172 42.4113 58.5924 44.5168 57.1425C46.7316 55.6198 50.9872 55.5834 54.0833 57.1425C57.574 58.9 58.951 64.1522 58.8266 68.6041Z" fill="url(#paint25_linear_1_3731)"/>
<path fill-rule="evenodd" clip-rule="evenodd" d="M83.5932 40.8531C82.8425 41.2578 81.0638 40.1448 79.4398 38.7617C77.4658 37.0639 75.7316 34.9442 76.4045 34.6376C77.3302 34.2228 80.7329 34.499 82.2991 35.789C83.0248 36.4134 83.6044 37.1895 83.9969 38.0625C84.4948 39.1917 84.5332 40.3431 83.5932 40.8531Z" fill="url(#paint26_linear_1_3731)"/>
<path style="mix-blend-mode:multiply" opacity="0.4" fill-rule="evenodd" clip-rule="evenodd" d="M84.0023 38.061C83.9952 38.054 83.9881 38.0388 83.98 38.0317C81.5204 34.3164 77.7241 34.4773 77.4479 35.4901C77.1717 36.5029 79.4371 38.7561 79.4371 38.7561C77.4631 37.0584 75.7289 34.9387 76.4017 34.6321C77.3275 34.2172 80.7301 34.4935 82.2964 35.7835C83.0254 36.4081 83.6079 37.1858 84.0023 38.061Z" fill="url(#paint27_linear_1_3731)"/>
<path fill-rule="evenodd" clip-rule="evenodd" d="M69.8394 75.3447C69.8394 75.3447 70.3928 64.1826 78.4649 57.6039C78.4649 57.6039 68.782 62.2359 69.8394 75.3447Z" fill="#E5BDFA"/>
<path fill-rule="evenodd" clip-rule="evenodd" d="M55.9886 34.2447C55.9886 34.2447 57.5063 36.5435 62.6766 36.3694C67.8469 36.1954 69.5497 33.8319 69.8401 33.1985C69.8401 33.1985 68.5551 37.1606 62.706 37.022C56.533 36.8743 55.9886 34.2447 55.9886 34.2447Z" fill="#FFA5F7"/>
<path fill-rule="evenodd" clip-rule="evenodd" d="M45.2914 90.4908C45.2914 90.4908 53.1379 93.6577 54.7274 98.2158C54.7274 98.2158 54.5523 92.9889 45.2914 90.4908Z" fill="#FFA5F7"/>
<path style="mix-blend-mode:multiply" opacity="0.71" fill-rule="evenodd" clip-rule="evenodd" d="M91.3168 65.3826V65.3968C91.3168 65.3968 88.6507 60.7931 81.2555 62.8117C74.6253 64.6187 71.7609 73.1491 71.2388 75.0078C71.0315 73.1112 71.2 71.1924 71.7346 69.361C72.6158 66.4167 77.3449 59.5173 82.7631 58.548C84.6855 58.1979 86.6969 58.6056 88.6568 60.2164C90.304 61.5864 91.1276 63.3864 91.3168 65.3826Z" fill="url(#paint28_linear_1_3731)"/>
<path fill-rule="evenodd" clip-rule="evenodd" d="M100.296 102.342C100.105 103.406 99.7051 104.422 99.1206 105.331C98.5361 106.24 97.7781 107.025 96.89 107.641C96.0019 108.257 95.0011 108.692 93.9448 108.921C92.8885 109.149 91.7974 109.168 90.734 108.975C90.5903 108.948 90.4456 108.919 90.305 108.885C90.0955 108.836 89.8881 108.777 89.6858 108.715C88.1972 108.239 86.8759 107.348 85.8784 106.145C85.2346 105.369 84.7358 104.484 84.4062 103.531C84.3728 103.43 84.3415 103.329 84.3101 103.235C84.3107 103.232 84.3107 103.229 84.3101 103.226C84.2777 103.12 84.2494 103.013 84.2231 102.906C84.1376 102.57 84.0744 102.228 84.0339 101.883C84.0007 101.631 83.9808 101.378 83.9742 101.124C83.9742 101.124 83.9742 101.118 83.9742 101.116C83.9691 100.937 83.9742 100.758 83.9742 100.577C83.9876 100.187 84.0296 99.7976 84.0997 99.4134C84.1401 99.1898 84.1887 98.9672 84.2484 98.7516C84.2848 98.614 84.3253 98.4775 84.3688 98.3469C84.6122 97.5834 84.9683 96.8604 85.4251 96.2019C86.3246 94.9011 87.5794 93.8867 89.0399 93.2799C90.5004 92.6731 92.1047 92.4996 93.6611 92.78C93.7461 92.7952 93.8311 92.8124 93.915 92.8286C93.999 92.8448 94.0951 92.8681 94.1842 92.8913C94.6369 93.0042 95.0793 93.1552 95.5066 93.3426C95.7506 93.4488 95.989 93.5673 96.2209 93.6977C96.3788 93.7837 96.5306 93.8768 96.6813 93.975C96.7936 94.0478 96.9019 94.1217 97.0091 94.1996L97.0658 94.2401C97.7781 94.7653 98.4013 95.4017 98.9113 96.125C98.9852 96.2262 99.0539 96.3274 99.1237 96.4377C99.1693 96.5085 99.2138 96.5824 99.2573 96.6552C99.3322 96.7787 99.403 96.9061 99.4718 97.0336C100.017 98.0608 100.337 99.192 100.412 100.352C100.454 101.018 100.415 101.686 100.296 102.342Z" fill="url(#paint29_radial_1_3731)"/>
<path fill-rule="evenodd" clip-rule="evenodd" d="M94.4219 92.0126C94.4219 92.0126 91.1559 91.9256 89.9357 95.1785C88.6416 98.6287 93.7096 103.918 96.9403 103.872C100.171 103.825 100.987 99.7599 100.5 97.5896C99.9089 94.9529 97.4259 92.8706 94.4219 92.0126Z" fill="url(#paint30_linear_1_3731)"/>
<path fill-rule="evenodd" clip-rule="evenodd" d="M91.1397 95.0134C90.1694 98.0487 95.7241 105.061 99.3018 101.982C102.7 99.0555 98.9497 93.8741 97.4249 92.8755C95.9002 91.8768 92.4469 90.9217 91.1397 95.0134Z" fill="url(#paint31_linear_1_3731)"/>
<path fill-rule="evenodd" clip-rule="evenodd" d="M99.9272 99.7445C99.8715 99.8851 99.8088 100.021 99.7491 100.149C98.8759 101.937 97.5232 102.239 96.3323 101.988C95.6372 101.829 94.986 101.518 94.4261 101.077C93.5154 100.351 91.7064 97.5712 92.0575 95.2582C92.118 94.8233 92.2676 94.4056 92.4969 94.0311C92.7262 93.6567 93.0302 93.3335 93.39 93.0818C93.6914 92.8534 94.0404 92.6959 94.4111 92.6211C94.7818 92.5463 95.1645 92.5561 95.5309 92.6498C98.2203 93.2872 100.731 97.7452 99.9272 99.7445Z" fill="url(#paint32_linear_1_3731)"/>
<path fill-rule="evenodd" clip-rule="evenodd" d="M99.7491 100.144C98.3194 103.064 95.6119 102.015 94.4261 101.074C93.5154 100.348 91.7064 97.5684 92.0575 95.2554C92.2969 94.7909 92.6438 94.3903 93.0693 94.0868C96.0854 91.8912 100.016 97.3256 99.7491 100.144Z" fill="url(#paint33_linear_1_3731)"/>
<path style="mix-blend-mode:multiply" opacity="0.71" fill-rule="evenodd" clip-rule="evenodd" d="M95.5309 92.6467H95.536C95.536 92.6467 93.5913 93.1526 93.3535 96.3954C93.1401 99.3053 95.7505 101.534 96.3323 101.98C95.6372 101.822 94.986 101.511 94.4261 101.07C93.5154 100.343 91.7064 97.564 92.0575 95.251C92.118 94.8161 92.2676 94.3984 92.4969 94.024C92.7262 93.6495 93.0302 93.3263 93.39 93.0747C93.6917 92.8469 94.0409 92.6902 94.4116 92.6161C94.7823 92.542 95.1648 92.5524 95.5309 92.6467Z" fill="url(#paint34_linear_1_3731)"/>
<path style="mix-blend-mode:multiply" opacity="0.71" fill-rule="evenodd" clip-rule="evenodd" d="M68.6387 30.1345C68.661 30.3234 68.661 30.5143 68.6387 30.7032C67.2546 28.6695 64.7039 28.2182 61.4904 28.9103C58.2769 29.6023 56.8564 32.5315 56.8564 32.5315C56.2371 30.1032 58.4014 28.1595 59.8371 27.4088C61.6077 26.4769 68.2451 25.5218 68.6387 30.1345Z" fill="url(#paint35_linear_1_3731)"/>
<path fill-rule="evenodd" clip-rule="evenodd" d="M32.6774 66.5268C32.6774 66.5268 29.8573 58.765 27.3253 56.0242C27.3253 56.0242 25.3798 43.6956 37.9715 39.4727C37.9715 39.4727 44.7519 40.7628 48.5675 39.4727C48.5675 39.4727 50.0197 47.8056 44.2674 56.7094C39.3621 64.3043 32.6774 66.5268 32.6774 66.5268Z" fill="url(#paint36_linear_1_3731)"/>
<path fill-rule="evenodd" clip-rule="evenodd" d="M27.3243 56.0242C27.5319 58.8252 41.6514 45.5517 37.9705 39.4727C37.9705 39.4752 26.1829 40.5595 27.3243 56.0242Z" fill="url(#paint37_linear_1_3731)"/>
<defs>
<linearGradient id="paint0_linear_1_3731" x1="88.8437" y1="53.9002" x2="91.794" y2="35.2731" gradientUnits="userSpaceOnUse">
<stop stop-color="#8931B3"/>
<stop offset="1" stop-color="#8E8CFF"/>
</linearGradient>
<linearGradient id="paint1_linear_1_3731" x1="87.8891" y1="101.802" x2="85.7888" y2="107.958" gradientUnits="userSpaceOnUse">
<stop stop-color="#8E8CFF"/>
<stop offset="1" stop-color="#8931B3"/>
</linearGradient>
<radialGradient id="paint2_radial_1_3731" cx="0" cy="0" r="1" gradientUnits="userSpaceOnUse" gradientTransform="translate(51.3051 50.2342) scale(52.0527 52.0527)">
<stop offset="0.01" stop-color="#FFB8E2"/>
<stop offset="0.22" stop-color="#FDB7E3"/>
<stop offset="0.33" stop-color="#F5B5E5"/>
<stop offset="0.42" stop-color="#E8B0E9"/>
<stop offset="0.49" stop-color="#D5AAEF"/>
<stop offset="0.55" stop-color="#BDA2F7"/>
<stop offset="0.58" stop-color="#AE9DFC"/>
<stop offset="0.64" stop-color="#A996FC"/>
<stop offset="0.72" stop-color="#9A83FD"/>
<stop offset="0.81" stop-color="#8163FE"/>
<stop offset="0.91" stop-color="#5F38FF"/>
<stop offset="0.92" stop-color="#5E37FF"/>
<stop offset="0.99" stop-color="#5E9AFF"/>
</radialGradient>
<linearGradient id="paint3_linear_1_3731" x1="29.8179" y1="46.8046" x2="44.2643" y2="46.8046" gradientUnits="userSpaceOnUse">
<stop stop-color="white"/>
<stop offset="0.17" stop-color="#DBD0EA"/>
<stop offset="0.36" stop-color="#B9A3D7"/>
<stop offset="0.55" stop-color="#9F80C7"/>
<stop offset="0.72" stop-color="#8C67BC"/>
<stop offset="0.87" stop-color="#8057B5"/>
<stop offset="1" stop-color="#7C52B3"/>
</linearGradient>
<linearGradient id="paint4_linear_1_3731" x1="69.8399" y1="70.7125" x2="94.9232" y2="70.7125" gradientUnits="userSpaceOnUse">
<stop stop-color="#7C52B3"/>
<stop offset="0.13" stop-color="#8057B5"/>
<stop offset="0.28" stop-color="#8C67BC"/>
<stop offset="0.45" stop-color="#9F80C7"/>
<stop offset="0.64" stop-color="#B9A3D7"/>
<stop offset="0.83" stop-color="#DBD0EA"/>
<stop offset="1" stop-color="white"/>
</linearGradient>
<radialGradient id="paint5_radial_1_3731" cx="0" cy="0" r="1" gradientUnits="userSpaceOnUse" gradientTransform="translate(37.7936 38.7423) scale(45.4345 45.4345)">
<stop stop-color="#FFFFD9"/>
<stop offset="1"/>
</radialGradient>
<linearGradient id="paint6_linear_1_3731" x1="49.7722" y1="99.9728" x2="52.3421" y2="83.7426" gradientUnits="userSpaceOnUse">
<stop stop-color="#6D109D"/>
<stop offset="1" stop-color="#8E8CFF"/>
</linearGradient>
<linearGradient id="paint7_linear_1_3731" x1="89.2689" y1="76.8296" x2="69.7835" y2="61.9272" gradientUnits="userSpaceOnUse">
<stop stop-color="#5400B3"/>
<stop offset="1" stop-color="#F2C0FF"/>
</linearGradient>
<linearGradient id="paint8_linear_1_3731" x1="54.9795" y1="37.3434" x2="71.2926" y2="37.3434" gradientUnits="userSpaceOnUse">
<stop stop-color="white"/>
<stop offset="0.17" stop-color="#DBD0EA"/>
<stop offset="0.36" stop-color="#B9A3D7"/>
<stop offset="0.55" stop-color="#9F80C7"/>
<stop offset="0.72" stop-color="#8C67BC"/>
<stop offset="0.87" stop-color="#8057B5"/>
<stop offset="1" stop-color="#7C52B3"/>
</linearGradient>
<linearGradient id="paint9_linear_1_3731" x1="79.5156" y1="84.4892" x2="83.228" y2="55.9441" gradientUnits="userSpaceOnUse">
<stop stop-color="#644FF7"/>
<stop offset="1" stop-color="#9F6DFF"/>
</linearGradient>
<linearGradient id="paint10_linear_1_3731" x1="72.8541" y1="80.5969" x2="88.0472" y2="61.9709" gradientUnits="userSpaceOnUse">
<stop stop-color="#935CE1"/>
<stop offset="0.22" stop-color="#8F5AE0"/>
<stop offset="0.43" stop-color="#8454DC"/>
<stop offset="0.63" stop-color="#714AD5"/>
<stop offset="0.82" stop-color="#573CCC"/>
<stop offset="0.99" stop-color="#392CC2"/>
</linearGradient>
<radialGradient id="paint11_radial_1_3731" cx="0" cy="0" r="1" gradientUnits="userSpaceOnUse" gradientTransform="translate(55.7197 34.6061) rotate(-109.29) scale(12.9449 12.9449)">
<stop stop-color="#DEA5FF"/>
<stop offset="1" stop-color="#8931B3"/>
</radialGradient>
<linearGradient id="paint12_linear_1_3731" x1="69.8008" y1="28.4538" x2="55.4646" y2="33.4715" gradientUnits="userSpaceOnUse">
<stop stop-color="#C287F8"/>
<stop offset="1" stop-color="#CCB3FF"/>
</linearGradient>
<linearGradient id="paint13_linear_1_3731" x1="62.7015" y1="35.3918" x2="62.7015" y2="26.6358" gradientUnits="userSpaceOnUse">
<stop stop-color="#9F6DFF"/>
<stop offset="0.27" stop-color="#9B69FF"/>
<stop offset="0.52" stop-color="#905EFD"/>
<stop offset="0.76" stop-color="#7E4BFB"/>
<stop offset="1" stop-color="#6431F7"/>
</linearGradient>
<linearGradient id="paint14_linear_1_3731" x1="45.6487" y1="101.16" x2="45.6487" y2="89.7427" gradientUnits="userSpaceOnUse">
<stop stop-color="#C282F7"/>
<stop offset="1" stop-color="#DC6DFF"/>
</linearGradient>
<linearGradient id="paint15_linear_1_3731" x1="45.2913" y1="100.314" x2="45.2913" y2="91.5813" gradientUnits="userSpaceOnUse">
<stop stop-color="#4848F7"/>
<stop offset="1" stop-color="#6D20FF"/>
</linearGradient>
<linearGradient id="paint16_linear_1_3731" x1="47.3368" y1="97.4655" x2="47.3368" y2="92.0959" gradientUnits="userSpaceOnUse">
<stop stop-color="#644FF7"/>
<stop offset="1" stop-color="#9F6DFF"/>
</linearGradient>
<linearGradient id="paint17_linear_1_3731" x1="33.8285" y1="71.8099" x2="39.7799" y2="75.5727" gradientUnits="userSpaceOnUse">
<stop stop-color="#9084FF"/>
<stop offset="0.49" stop-color="#D08BFC"/>
<stop offset="1" stop-color="#FFC9F8"/>
</linearGradient>
<radialGradient id="paint18_radial_1_3731" cx="0" cy="0" r="1" gradientUnits="userSpaceOnUse" gradientTransform="translate(36.8548 73.1222) scale(2.86135 2.86135)">
<stop stop-color="#1372B3"/>
<stop offset="1" stop-color="white"/>
</radialGradient>
<linearGradient id="paint19_linear_1_3731" x1="45.9068" y1="41.0496" x2="48.4953" y2="43.0082" gradientUnits="userSpaceOnUse">
<stop stop-color="#9084FF"/>
<stop offset="0.49" stop-color="#D08BFC"/>
<stop offset="1" stop-color="#FFC9F8"/>
</linearGradient>
<radialGradient id="paint20_radial_1_3731" cx="0" cy="0" r="1" gradientUnits="userSpaceOnUse" gradientTransform="translate(47.2463 41.7697) rotate(4.81998) scale(1.31938 1.31938)">
<stop stop-color="#1372B3"/>
<stop offset="1" stop-color="white"/>
</radialGradient>
<linearGradient id="paint21_linear_1_3731" x1="74.8633" y1="89.9018" x2="68.7672" y2="89.7733" gradientUnits="userSpaceOnUse">
<stop stop-color="#9566FC"/>
<stop offset="1" stop-color="#5445B1"/>
</linearGradient>
<radialGradient id="paint22_radial_1_3731" cx="0" cy="0" r="1" gradientUnits="userSpaceOnUse" gradientTransform="translate(53.84 74.641) scale(6.44513 6.44512)">
<stop stop-color="#FFFFE8"/>
<stop offset="0.2" stop-color="#BBBBAA"/>
<stop offset="0.42" stop-color="#79796E"/>
<stop offset="0.61" stop-color="#45453F"/>
<stop offset="0.78" stop-color="#1F1F1D"/>
<stop offset="0.91" stop-color="#080808"/>
<stop offset="1"/>
</radialGradient>
<radialGradient id="paint23_radial_1_3731" cx="0" cy="0" r="1" gradientUnits="userSpaceOnUse" gradientTransform="translate(71.8038 89.3969) scale(2.54265 2.54263)">
<stop stop-color="#1372B3"/>
<stop offset="1" stop-color="white"/>
</radialGradient>
<linearGradient id="paint24_linear_1_3731" x1="42.0796" y1="60.6058" x2="58.6386" y2="71.0748" gradientUnits="userSpaceOnUse">
<stop stop-color="#9084FF"/>
<stop offset="0.12" stop-color="#9785FF"/>
<stop offset="0.29" stop-color="#AA87FE"/>
<stop offset="0.49" stop-color="#CA8AFC"/>
<stop offset="0.53" stop-color="#D08BFC"/>
<stop offset="1" stop-color="#FFC9F8"/>
</linearGradient>
<linearGradient id="paint25_linear_1_3731" x1="42.2939" y1="62.8136" x2="58.8347" y2="62.8136" gradientUnits="userSpaceOnUse">
<stop stop-color="#1372B3"/>
<stop offset="1" stop-color="white"/>
</linearGradient>
<linearGradient id="paint26_linear_1_3731" x1="76.4136" y1="34.5506" x2="84.5453" y2="39.6915" gradientUnits="userSpaceOnUse">
<stop stop-color="#845FFF"/>
<stop offset="0.49" stop-color="#A972FC"/>
<stop offset="1" stop-color="#D4B0F8"/>
</linearGradient>
<linearGradient id="paint27_linear_1_3731" x1="76.2611" y1="36.6091" x2="84.0023" y2="36.6091" gradientUnits="userSpaceOnUse">
<stop stop-color="#1372B3"/>
<stop offset="1" stop-color="white"/>
</linearGradient>
<linearGradient id="paint28_linear_1_3731" x1="71.1467" y1="66.7192" x2="91.3168" y2="66.7192" gradientUnits="userSpaceOnUse">
<stop stop-color="#7C52B3"/>
<stop offset="1" stop-color="white"/>
</linearGradient>
<radialGradient id="paint29_radial_1_3731" cx="0" cy="0" r="1" gradientUnits="userSpaceOnUse" gradientTransform="translate(89.9388 97.5971) rotate(10.24) scale(12.4117)">
<stop offset="0.01" stop-color="#FFB8E2"/>
<stop offset="0.22" stop-color="#FDB7E3"/>
<stop offset="0.33" stop-color="#F5B5E5"/>
<stop offset="0.42" stop-color="#E8B0E9"/>
<stop offset="0.49" stop-color="#D5AAEF"/>
<stop offset="0.55" stop-color="#BDA2F7"/>
<stop offset="0.58" stop-color="#AE9DFC"/>
<stop offset="0.64" stop-color="#A996FC"/>
<stop offset="0.72" stop-color="#9A83FD"/>
<stop offset="0.81" stop-color="#8163FE"/>
<stop offset="0.91" stop-color="#5F38FF"/>
<stop offset="0.92" stop-color="#5E37FF"/>
<stop offset="0.99" stop-color="#5E9AFF"/>
</radialGradient>
<linearGradient id="paint30_linear_1_3731" x1="99.3908" y1="95.2231" x2="91.4754" y2="100.573" gradientUnits="userSpaceOnUse">
<stop stop-color="#5400B3"/>
<stop offset="1" stop-color="#F2C0FF"/>
</linearGradient>
<linearGradient id="paint31_linear_1_3731" x1="100.785" y1="99.6289" x2="91.0722" y2="94.9043" gradientUnits="userSpaceOnUse">
<stop stop-color="#644FF7"/>
<stop offset="1" stop-color="#9F6DFF"/>
</linearGradient>
<linearGradient id="paint32_linear_1_3731" x1="100.285" y1="98.786" x2="91.8045" y2="95.9421" gradientUnits="userSpaceOnUse">
<stop offset="0.01" stop-color="#392CC2"/>
<stop offset="1" stop-color="#5F33C5"/>
</linearGradient>
<linearGradient id="paint33_linear_1_3731" x1="100.076" y1="99.2702" x2="91.6877" y2="96.4572" gradientUnits="userSpaceOnUse">
<stop stop-color="#5E48F7"/>
<stop offset="1" stop-color="#8C50FF"/>
</linearGradient>
<linearGradient id="paint34_linear_1_3731" x1="93.3918" y1="101.027" x2="96.1338" y2="92.851" gradientUnits="userSpaceOnUse">
<stop stop-color="#7C52B3"/>
<stop offset="1" stop-color="white"/>
</linearGradient>
<linearGradient id="paint35_linear_1_3731" x1="56.7481" y1="29.5841" x2="68.6549" y2="29.5841" gradientUnits="userSpaceOnUse">
<stop stop-color="#7C52B3"/>
<stop offset="1" stop-color="white"/>
</linearGradient>
<linearGradient id="paint36_linear_1_3731" x1="44.7532" y1="56.5801" x2="30.6234" y2="44.2631" gradientUnits="userSpaceOnUse">
<stop stop-color="#C98EFF"/>
<stop offset="1" stop-color="#8931B3"/>
</linearGradient>
<linearGradient id="paint37_linear_1_3731" x1="32.9142" y1="56.4107" x2="32.9142" y2="39.4752" gradientUnits="userSpaceOnUse">
<stop stop-color="#FC9FF7"/>
<stop offset="1" stop-color="#F66DFF"/>
</linearGradient>
</defs>
</svg>
