<svg width="130" height="130" viewBox="0 0 130 130" fill="none" xmlns="http://www.w3.org/2000/svg">
<path style="mix-blend-mode:screen" d="M92 92C106.912 77.0883 106.912 52.9117 92 38C77.0883 23.0883 52.9117 23.0883 38 38C23.0883 52.9117 23.0883 77.0883 38 92C52.9117 106.912 77.0883 106.912 92 92Z" fill="url(#paint0_radial_1_4080)"/>
<path style="mix-blend-mode:screen" d="M87.5992 87.5995C100.081 75.1181 100.081 54.8819 87.5992 42.4005C75.1179 29.9192 54.8816 29.9192 42.4003 42.4005C29.9189 54.8819 29.9189 75.1181 42.4003 87.5995C54.8816 100.081 75.1179 100.081 87.5992 87.5995Z" fill="url(#paint1_radial_1_4080)"/>
<path style="mix-blend-mode:screen" d="M88 88.0003C100.703 75.2976 100.703 54.7024 88 41.9997C75.2973 29.2971 54.7022 29.2971 41.9995 41.9997C29.2968 54.7024 29.2968 75.2976 41.9995 88.0003C54.7022 100.703 75.2973 100.703 88 88.0003Z" fill="url(#paint2_radial_1_4080)"/>
<path fill-rule="evenodd" clip-rule="evenodd" d="M41.7394 50.2144C41.7394 50.2144 42.0758 47.3093 42.2965 45.7133C43.7584 43.7884 45.4925 42.0864 47.4445 40.6607L51.6577 40.8807C51.6577 40.8807 43.1592 47.6942 41.7394 50.2144Z" fill="url(#paint3_linear_1_4080)"/>
<path fill-rule="evenodd" clip-rule="evenodd" d="M47.4404 40.6607C47.4404 40.6607 47.4404 42.9982 45.3075 44.8449C43.1746 46.6916 42.2472 46.0431 42.2472 46.0431L41.7394 49.7664L51.6537 40.8815L47.4404 40.6607Z" fill="url(#paint4_linear_1_4080)"/>
<path fill-rule="evenodd" clip-rule="evenodd" d="M92.6042 65.0137C92.6074 68.6371 91.8959 72.2256 90.5106 75.5738C89.1253 78.9219 87.0933 81.964 84.5309 84.5259C81.9684 87.0878 78.9259 89.1192 75.5775 90.5038C72.2291 91.8884 68.6404 92.5991 65.017 92.5952C64.5319 92.5952 64.033 92.5839 63.5503 92.554H63.5439C62.8219 92.5192 62.1063 92.4497 61.4013 92.3623C56.2082 91.683 51.3186 89.5301 47.311 86.1585C44.726 83.9839 42.5545 81.3608 40.9009 78.4151C40.7319 78.1119 40.5686 77.8031 40.4053 77.495C40.4053 77.4829 40.3996 77.4772 40.394 77.4659C40.225 77.1336 40.0705 76.8021 39.9169 76.4641H39.9105C39.4278 75.4056 39.0156 74.3163 38.6767 73.2033C38.4186 72.3922 38.2027 71.5683 38.0298 70.7349C38.0253 70.7279 38.0233 70.7197 38.0242 70.7114C37.9021 70.1236 37.797 69.5294 37.7153 68.9327C37.5283 67.6366 37.4351 66.3288 37.4364 65.0194C37.4364 64.2569 37.4655 63.4945 37.535 62.749C37.5698 62.2712 37.6223 61.7998 37.6862 61.3284C38.0355 58.6652 38.7794 56.0688 39.8935 53.6247C42.0856 48.7993 45.6201 44.7066 50.075 41.8354C54.5299 38.9641 59.717 37.4356 65.017 37.4322C65.3081 37.4322 65.5992 37.4387 65.8846 37.4443C66.1935 37.4557 66.5023 37.4678 66.8104 37.4912C68.3704 37.5915 69.919 37.8252 71.4392 38.1898C72.3132 38.3992 73.1687 38.6434 74.0071 38.9353C74.5779 39.1269 75.139 39.3395 75.6897 39.5756C76.1036 39.7503 76.5055 39.9306 76.9065 40.123C76.9768 40.1578 77.0464 40.1869 77.1167 40.2217C79.7791 41.5241 82.2148 43.2462 84.3305 45.3219C84.6337 45.613 84.9247 45.9162 85.2158 46.225C85.4074 46.4344 85.5999 46.6495 85.7858 46.8654C86.1092 47.226 86.4149 47.6044 86.7181 47.9828C89.1268 51.0466 90.8572 54.5871 91.7948 58.37C92.3343 60.5433 92.6061 62.7744 92.6042 65.0137Z" fill="url(#paint5_radial_1_4080)"/>
<path fill-rule="evenodd" clip-rule="evenodd" d="M77.1146 40.2199C77.024 40.2296 76.9327 40.2393 76.8421 40.2579C76.5545 40.3109 76.2583 40.2911 75.9802 40.2005C75.7603 40.1382 75.6026 40.0477 75.3682 40.0097C75.0334 39.9571 74.7213 39.8132 74.3874 39.7671C74.0333 39.7194 73.7268 39.5804 73.3921 39.4607C73.1285 39.3653 72.9879 39.3984 72.7364 39.4607C72.4849 39.5229 72.3063 39.4227 72.0807 39.3265C71.8276 39.2165 71.5737 39.1979 71.3061 39.1446C70.6075 39.0014 69.9138 38.7767 69.2201 38.5996C68.7891 38.4896 68.3921 38.4896 67.9515 38.4848C67.6071 38.4799 67.2966 38.5802 66.9513 38.5802C66.7315 38.573 66.5126 38.549 66.2964 38.5082C66.062 38.4654 65.8226 38.5131 65.5882 38.4799C65.2389 38.4274 65.0521 38.3748 64.6988 38.4848C64.436 38.5705 64.2298 38.5608 63.9711 38.5753C63.6638 38.6032 63.3595 38.6573 63.0615 38.7371C62.5342 38.8698 61.993 38.9387 61.4493 38.9424C61.1259 38.9424 60.6456 38.8519 60.3343 38.9618C60.1338 39.033 60.0327 39.2489 59.8945 39.392C59.626 39.6693 59.2962 39.9183 59.0714 40.2296C58.8466 40.5409 58.5927 40.8611 58.6121 41.2532C58.6307 41.5936 58.7892 41.9906 58.9355 42.3043C59.0892 42.635 59.1417 42.9358 58.8013 43.1565C58.3692 43.4518 57.8952 43.6808 57.3953 43.8357C57.0719 43.9311 56.7776 43.9885 56.5059 43.7548C56.4056 43.6691 56.3442 43.5017 56.2189 43.4314C56.0936 43.3611 55.9553 43.4314 55.8146 43.4742C55.4773 43.5859 55.1336 43.6771 54.7854 43.7475C54.5703 43.7807 54.3811 43.8955 54.1733 43.9335C53.9194 43.9812 53.7375 43.7952 53.4747 43.8575C53.106 43.9432 52.7373 44.096 52.3549 44.1154C52.0824 44.13 51.738 44.0103 51.5084 43.8729C51.3742 43.7969 51.3402 43.72 51.185 43.7629C51.0356 43.8181 50.9047 43.9142 50.8074 44.0402C50.716 44.1696 50.6828 44.337 50.5915 44.4712C50.4961 44.6199 50.4055 44.763 50.319 44.9207C50.1605 45.2237 49.978 45.5136 49.7733 45.7875C49.6301 45.9783 49.5307 46.237 49.369 46.4141C49.2881 46.5095 49.1111 46.5758 49.0052 46.6485C48.7181 46.8491 48.4173 47.031 48.1392 47.2461C47.6039 47.6673 47.0962 48.1314 46.5512 48.5397C46.1349 48.851 45.5511 49.0329 45.0773 49.2286C44.7806 49.3482 44.4741 49.4348 44.1774 49.5593C44.082 49.5973 43.9049 49.6401 43.8233 49.7121C43.7181 49.8034 43.6616 49.9708 43.5653 50.0953C43.3066 50.4107 43.0341 50.7268 42.8377 51.0906C42.7269 51.2995 42.6373 51.5189 42.57 51.7455C42.4649 52.0568 42.2976 52.3439 42.1916 52.6551C41.9766 53.302 41.9337 53.9852 41.6944 54.6312C41.5553 55.0088 41.3548 55.3532 41.1826 55.6976C40.8859 56.2814 40.843 56.9751 40.7565 57.6211C40.712 58.0149 40.7248 58.4131 40.7945 58.8032C40.8665 59.2002 40.8478 59.6118 40.843 60.016C40.8381 60.447 40.5649 60.8682 40.2924 61.1932C40.0434 61.4948 39.6658 61.6096 39.3884 61.8773C39.154 62.1069 38.871 62.3705 38.7707 62.6955C38.7279 62.8394 38.7659 63.0019 38.7424 63.1547C38.6802 63.4951 38.5937 63.8153 38.546 64.1598C38.4989 64.5777 38.4781 64.9981 38.4837 65.4186C38.4837 65.6337 38.4691 65.8536 38.4788 66.0655C38.4886 66.2773 38.5654 66.4625 38.5791 66.6686C38.5888 66.8125 38.5605 66.9557 38.5791 67.0996C38.6082 67.2613 38.6705 67.4295 38.7085 67.5847C38.8047 67.9679 38.8758 68.3407 38.951 68.7239C39.0181 69.0781 39.1572 69.4273 39.2672 69.775C39.4131 70.247 39.5282 70.728 39.6116 71.215C39.6836 71.5789 39.6787 71.9564 39.7313 72.3251C39.7741 72.6219 39.8412 72.9234 39.8558 73.2202C39.8695 73.6697 39.7596 74.1193 39.7547 74.5737C39.7499 75.3393 40.0563 76.105 40.2334 76.8375C40.2859 77.0437 40.3385 77.2539 40.3951 77.4601C38.271 73.254 37.2596 68.5739 37.457 63.866C37.6545 59.1581 39.0544 54.5792 41.5233 50.5657C43.9921 46.5522 47.4477 43.2379 51.5607 40.9385C55.6736 38.6392 60.3069 37.4315 65.0189 37.4305C65.6213 37.4305 66.2148 37.4499 66.8082 37.4879C70.3897 37.7132 73.8918 38.6415 77.1146 40.2199Z" fill="url(#paint6_linear_1_4080)"/>
<path style="mix-blend-mode:multiply" fill-rule="evenodd" clip-rule="evenodd" d="M66.7777 77.9774C66.7777 77.9774 69.3529 81.7775 72.7609 84.8637C76.1689 87.9498 76.6685 90.0197 76.6685 90.0197C76.6685 90.0197 83.1101 87.3256 87.7066 80.9463C92.3031 74.567 66.7777 77.9774 66.7777 77.9774Z" fill="url(#paint7_linear_1_4080)"/>
<path style="mix-blend-mode:screen" fill-rule="evenodd" clip-rule="evenodd" d="M48.6605 86.5576C45.7922 84.1567 43.4403 81.1994 41.7467 77.8643C40.666 75.7334 39.8697 73.4698 39.3785 71.1316C39.3742 71.1246 39.3725 71.1163 39.3737 71.1082C38.9825 69.2352 38.7852 67.327 38.785 65.4137C38.7853 58.098 41.6915 51.0821 46.8644 45.9091C52.0374 40.7362 59.0533 37.83 66.369 37.8297C66.9721 37.8297 67.5656 37.8492 68.1582 37.8872C69.9965 38.0051 71.8181 38.308 73.5956 38.7911C71.3972 38.0713 69.1166 37.6328 66.808 37.4861C66.2145 37.4481 65.6211 37.4287 65.0187 37.4287C61.3958 37.4269 57.808 38.1391 54.4605 39.5247C51.113 40.9103 48.0715 42.942 45.5096 45.5038C42.9478 48.0655 40.916 51.1071 39.5303 54.4545C38.1446 57.802 37.4323 61.3897 37.434 65.0126C37.4346 66.9259 37.6318 68.8341 38.0226 70.7071C38.0214 70.7153 38.0231 70.7236 38.0275 70.7306C38.5189 73.0687 39.3151 75.3323 40.3956 77.4632C42.1476 80.9122 44.6027 83.9558 47.6027 86.398C50.6028 88.8402 54.0812 90.6267 57.8139 91.6425C54.4653 90.5493 51.3578 88.8231 48.6605 86.5576Z" fill="url(#paint8_radial_1_4080)"/>
<path style="mix-blend-mode:multiply" opacity="0.4" fill-rule="evenodd" clip-rule="evenodd" d="M71.4386 38.1865C69.9184 37.8218 68.3698 37.5881 66.8097 37.4879C66.5017 37.4645 66.1928 37.4523 65.884 37.441C66.5421 37.8081 67.1533 38.4541 67.3045 39.1179C67.5552 40.2499 67.9223 41.3074 68.1317 42.4426C68.3411 43.5608 68.3007 44.949 67.7937 45.9589C67.4842 46.5892 67.0777 47.1671 66.589 47.6714C66.2276 48.0376 65.9195 48.2414 65.6632 48.6958C65.4069 49.1502 65.1619 49.569 64.8709 49.9894C64.4399 50.6185 63.9863 51.2879 63.4915 51.8644C63.3169 52.0738 63.1244 52.2194 62.9668 52.4635C62.7695 52.7667 62.6757 53.0522 62.4606 53.2907C61.9658 53.8437 61.1969 54.1526 60.5161 54.4024C59.6683 54.7292 58.8433 55.1125 58.0468 55.5497C56.8769 56.1666 55.9164 56.959 54.5475 56.9938C54.0939 57.0051 53.6217 56.9412 53.1682 56.9824C52.6022 57.0285 52.0791 57.3059 51.5204 57.4069C51.0352 57.4999 50.542 57.5993 50.0529 57.681C49.2492 57.8031 48.5854 58.0764 47.8108 58.2632C46.8042 58.5138 45.7499 58.4491 44.7384 58.5866C43.8248 58.7087 43.0324 58.8194 42.1244 58.5987C40.7208 58.2486 39.9697 57.5848 40.2648 56.0922C40.4621 55.1139 40.3925 54.3685 39.892 53.6173C38.778 56.0614 38.0341 58.6578 37.6848 61.321C38.3279 61.5778 39.0045 61.7412 39.6939 61.8061C41.7379 62.0164 43.9388 61.1019 45.8073 60.4033C46.7622 60.0419 47.7348 59.518 48.7657 59.4016C49.8483 59.2851 50.8032 59.4194 51.8858 59.1517C55.618 58.2316 59.2985 56.9275 62.6288 54.9538C64.009 54.138 64.6202 52.9737 65.5808 51.7917C66.4249 50.7616 67.3741 49.9054 68.3815 49.0426C69.3712 48.1985 70.2411 47.3601 70.8322 46.178C71.4556 44.9321 71.9852 43.564 72.2706 42.1952C72.5746 40.7544 72.2018 39.3621 71.4386 38.1865ZM71.251 41.934C71.1928 42.2429 71.1524 42.5752 71.0586 42.8663C70.8201 43.6053 70.3778 44.3685 69.6841 44.7582C69.5265 44.845 69.3415 44.8674 69.1678 44.8207C68.9941 44.7739 68.8453 44.6617 68.7526 44.5076C68.6532 44.3329 68.6532 44.1122 68.6184 43.9198C68.5438 43.5441 68.5067 43.162 68.5076 42.7789C68.5204 41.8519 68.4834 40.9248 68.3969 40.0016C68.4963 40.5312 68.3742 39.2149 69.2005 38.8543C69.5911 38.6797 70.1789 38.8365 70.4756 39.1397C70.8483 39.5181 70.9357 40.1585 71.0756 40.6533C71.2001 41.0972 71.3318 41.4699 71.251 41.934Z" fill="url(#paint9_linear_1_4080)"/>
<path style="mix-blend-mode:multiply" opacity="0.4" fill-rule="evenodd" clip-rule="evenodd" d="M67.2596 85.9709C67.1788 85.9823 67.1019 86 67.0268 86.0057L67.5741 86.0583C67.5038 86.0405 67.3874 85.9984 67.2596 85.9709ZM67.2596 85.9709C67.1788 85.9823 67.1019 86 67.0268 86.0057L67.5741 86.0583C67.5038 86.0405 67.3874 85.9984 67.2596 85.9709ZM91.7954 58.366C91.784 59.088 91.5803 59.8044 91.5625 60.5321C91.5455 61.5023 91.3822 62.2502 91.1316 63.1816C90.9569 63.822 90.6311 64.2934 90.4152 64.9111C90.1726 65.621 89.8217 66.2266 89.4603 66.8791C88.7448 68.1832 88.0284 69.4874 87.7195 70.9662C87.4406 72.2995 87.3824 73.4233 86.7186 74.6458C86.0839 75.8222 85.1233 76.8006 84.4417 77.9414C84.1183 78.4888 83.9 78.4597 83.4165 78.8033C82.8756 79.1873 82.3808 79.7929 81.8569 80.2182C80.7249 81.1206 79.6965 81.7439 78.3284 82.2557C77.4914 82.5894 76.6206 82.8315 75.7314 82.9778C75.1371 83.0715 74.555 82.9778 73.9672 83.0772C73.0358 83.2284 72.1504 83.5081 71.2538 83.7992C69.7806 84.2763 68.2784 84.5503 66.8109 85.0039C65.7865 85.3185 64.7847 85.5052 63.7385 85.726C63.1038 85.8602 62.592 86.2038 61.9338 86.0696C61.2757 85.9354 60.6644 85.709 60.0119 85.5036C59.1799 85.2473 58.4927 85.2295 57.596 85.2295C56.4026 85.2295 55.0168 85.4106 53.8404 85.1834C52.5128 84.9271 51.1908 84.5722 49.864 84.294C49.0603 84.1251 48.4491 83.7936 47.7149 83.4499C47.0285 83.1265 46.2887 83.0368 45.5723 82.8096C44.8155 82.567 44.0879 82.2153 43.3133 82.0237C44.4952 83.5407 45.8355 84.9273 47.3115 86.1601C51.3187 89.533 56.2084 91.687 61.4018 92.3672C62.1068 92.4546 62.8224 92.5241 63.5444 92.5589H63.5509C65.1113 92.2039 66.6362 91.7439 68.2088 91.2612C70.8228 90.4454 73.0819 88.8679 75.6967 88.099C76.643 87.8282 77.5644 87.4765 78.4505 87.0479C79.12 86.7156 79.8299 86.6283 80.5058 86.3372C82.9314 85.3071 84.7619 82.9486 85.8421 80.637C86.3313 79.586 86.8035 78.4015 87.6823 77.6156C88.0438 77.2921 88.4739 77.0043 88.7884 76.6372C89.1442 76.233 89.3827 75.7349 89.6972 75.2983C90.2502 74.5181 90.7855 73.7322 91.3393 72.9455C91.4087 72.8553 91.4708 72.7599 91.5253 72.6601C92.864 68.0029 92.9563 63.0757 91.7929 58.3717L91.7954 58.366ZM66.4883 86.169C66.5877 86.1052 66.7502 85.9709 66.8554 85.9418C66.9605 85.9127 67.1173 85.9362 67.2596 85.9709C67.4634 85.9418 67.6639 85.9184 67.8595 86C67.9695 86.0526 68.183 86.1512 68.2258 86.2798C68.2687 86.4084 68.2088 86.4771 68.1272 86.5587C68.0221 86.6639 67.9404 86.6639 67.7949 86.693C67.4958 86.7636 67.1881 86.7909 66.8812 86.7738C66.6944 86.756 66.4155 86.7447 66.2991 86.5701C66.1826 86.3954 66.3508 86.262 66.4907 86.169H66.4883ZM68.2994 89.767C68.141 89.9912 67.953 90.193 67.7407 90.3669C67.5305 90.5286 67.2976 90.6289 67.0704 90.7566C66.5117 91.0712 65.9385 91.4091 65.3062 91.5725C65.0564 91.6363 64.8057 91.6242 64.5438 91.642C64.2292 91.6711 63.9204 91.6768 63.6067 91.6824C63.2339 91.6889 62.8725 91.7633 62.4998 91.7875C62.127 91.8118 61.7608 91.8166 61.388 91.8401C60.793 91.8747 60.1974 91.7813 59.6416 91.566C59.102 91.3763 58.5865 91.1242 58.1054 90.8149C57.7739 90.5941 57.4885 90.2796 57.2031 89.9999C56.9353 89.7611 56.7193 89.4699 56.5684 89.1444C56.5166 89.0215 56.4576 88.8938 56.4875 88.7596C56.4997 88.6957 56.5288 88.6431 56.5288 88.6262C56.6226 88.5469 56.7264 88.4803 56.8376 88.4281C57.0381 88.346 57.25 88.295 57.4659 88.2769C57.9728 88.2065 58.5259 88.2939 59.032 88.3351C59.3204 88.3677 59.6117 88.3656 59.8995 88.3286C60.297 88.2571 60.6899 88.1618 61.0759 88.0432C61.9957 87.7867 62.934 87.6018 63.8824 87.4902C64.8373 87.3859 65.839 87.2808 66.7996 87.4441C67.1602 87.5023 67.5976 87.6058 67.9113 87.8168C68.1449 87.9877 68.3329 88.2135 68.4587 88.4742C68.6802 88.8994 68.584 89.3999 68.3018 89.767H68.2994ZM75.6069 87.3737C75.4379 87.5718 75.1929 87.6883 74.9835 87.8338C74.6924 88.0375 74.3836 88.2009 74.0812 88.3755C73.8321 88.5211 73.5754 88.6534 73.3123 88.7717C73.0503 88.8938 72.7827 89.0143 72.5207 89.1501C72.2301 89.2868 71.9306 89.4035 71.6241 89.4994C71.4025 89.5802 71.164 89.6797 70.9255 89.6393C70.7216 89.6064 70.5316 89.5155 70.3781 89.3773C70.1687 89.1557 70.2035 88.9172 70.273 88.8178C70.273 88.614 70.2148 88.323 70.2787 88.1249C70.3199 88.0084 70.4598 87.8338 70.5212 87.7206C70.7638 87.2783 71.1147 86.9582 71.4818 86.6089C71.8052 86.3 72.1108 86.0672 72.5418 85.916C73.0269 85.7543 73.5783 85.7122 74.078 85.6483C74.6253 85.5837 75.5511 85.5432 75.7953 86.1723C75.8816 86.3694 75.91 86.587 75.8771 86.7997C75.8441 87.0123 75.7512 87.2112 75.6093 87.3729L75.6069 87.3737ZM67.5717 86.0583C67.5014 86.0405 67.3849 86 67.2572 85.9709C67.1763 85.9823 67.0995 86 67.0243 86.0057L67.5717 86.0583Z" fill="url(#paint10_linear_1_4080)"/>
<path style="mix-blend-mode:multiply" opacity="0.4" fill-rule="evenodd" clip-rule="evenodd" d="M89.5936 52.474V52.5847C89.5588 53.3472 89.2499 53.8711 88.9766 54.564C88.7541 55.1086 88.4992 55.6394 88.2134 56.1536C87.7283 57.0389 87.5035 57.8709 87.1486 58.8218C86.5947 60.307 86.3158 61.8263 85.4506 63.1773C84.6704 64.382 84.4901 65.8616 83.8554 67.148C83.139 68.5864 82.0443 69.6165 80.8638 70.6651C80.3399 71.1365 79.9033 71.7009 79.4319 72.2135C78.9314 72.7552 78.5425 73.4538 77.941 73.8847C76.6425 74.8283 75.2219 75.6433 73.9525 76.6386C73.19 77.2329 72.6483 78.0244 71.8099 78.5192C70.9714 79.0141 70.0635 79.3698 69.2307 79.876C68.4795 80.336 67.7405 80.8308 66.9247 81.1631C65.9933 81.5351 65.2187 81.4251 64.2639 81.4712C63.2047 81.5181 62.1099 81.7946 61.1106 82.1407C60.2843 82.4317 59.5913 82.7293 58.7472 82.4317C58.1877 82.2344 57.6816 81.8658 57.0938 81.7453C55.7249 81.4655 54.1645 81.7453 52.773 81.7105C51.6847 81.6806 50.4848 81.4308 49.4192 81.2149C48.3681 81.0111 47.5151 80.2778 46.502 79.9811C45.2504 79.614 43.7894 79.9285 42.5782 79.4507C42.0834 79.259 41.6079 78.8629 41.1746 78.5896L40.8956 78.4149C40.7267 78.1117 40.5633 77.8029 40.4 77.4948C40.6975 77.6169 40.9943 77.7511 41.2967 77.8991C42.8806 78.6559 44.8542 78.5394 46.5602 78.8362C48.4821 79.1741 50.4032 79.6746 52.342 79.8962C53.126 79.9812 53.917 79.9793 54.7005 79.8905C55.7953 79.7676 56.9304 79.7854 58.0074 79.5986C59.8824 79.2671 61.7105 78.3858 63.655 78.6324C64.0164 78.6793 64.4183 78.8709 64.787 78.8653C65.3287 78.8475 65.7014 78.3761 66.138 78.1028C66.9069 77.6177 67.7163 77.7123 68.3914 77.0776C69.0665 76.4429 69.791 76.0532 70.6044 75.6417C72.7122 74.5704 74.4182 72.8296 76.0717 71.1753C77.4575 69.796 78.8029 68.3341 79.7521 66.6104C80.6835 64.9124 80.4968 62.9016 81.1961 61.1439C81.7023 59.8858 82.1276 58.7037 82.9482 57.5976C83.3444 57.068 83.8279 56.6136 84.2467 56.1067C84.6955 55.5658 84.9687 54.9748 85.3124 54.3716C85.6908 53.6965 86.1678 53.0731 86.471 52.3575C86.7564 51.6703 86.733 51.0639 86.7217 50.3483C86.7095 49.5624 86.7217 48.7652 86.7217 47.9785C87.8246 49.3788 88.7866 50.8846 89.5936 52.474Z" fill="url(#paint11_linear_1_4080)"/>
<path style="mix-blend-mode:multiply" opacity="0.4" fill-rule="evenodd" clip-rule="evenodd" d="M85.2152 46.2184C84.9241 45.9096 84.633 45.6064 84.3298 45.3153C82.2141 43.2396 79.7785 41.5176 77.1161 40.2151C77.0458 40.1803 76.9762 40.1512 76.9059 40.1164C76.5016 39.924 76.103 39.7437 75.689 39.5691C75.136 39.3362 74.5773 39.1203 74.0065 38.9287C74.1548 39.0188 74.3084 39.0998 74.4665 39.1713C74.8102 39.3459 75.0899 39.4623 75.3284 39.7712C75.5669 40.0801 75.6664 40.3008 75.6834 40.6848C75.7002 41.0523 75.7432 41.4182 75.8119 41.7796C75.8701 42.1119 76.0327 42.4264 76.103 42.7579C76.1317 42.951 76.1744 43.1418 76.2308 43.3287C76.3864 43.7855 76.5186 44.25 76.6269 44.7202C76.8016 45.57 76.3472 46.2742 76.0448 47.0488C75.567 48.2778 75.2646 49.5237 74.9088 50.7931C74.6299 51.7941 74.0825 52.7845 73.3257 53.5066C72.5859 54.2221 71.4911 54.3854 70.8273 55.16C70.2452 55.8408 69.5288 56.4876 68.7082 56.8717C67.7523 57.3167 66.7645 57.6897 65.753 57.9874C65.031 58.2033 64.2742 58.2203 63.5457 58.4127C62.6434 58.6399 61.817 59.0943 60.9665 59.4638C60.0641 59.8544 59.22 60.3532 58.3112 60.7454C57.4024 61.1375 56.547 61.6533 55.6431 62.0261C55.2008 62.2064 54.7351 62.2937 54.2864 62.4514C53.3549 62.7748 52.4526 63.3707 51.463 63.4871C51.1193 63.5283 50.7701 63.61 50.4321 63.61C50.1662 63.6079 49.902 63.6531 49.6519 63.7434C48.79 64.0814 48.2604 65.054 47.2707 65.0597C46.3619 65.0597 45.4653 65.0249 44.5629 65.1292C44.1263 65.1818 43.6897 65.1527 43.2531 65.1583C43.1246 65.1583 42.9556 65.1874 42.8278 65.1349C42.6823 65.0767 42.519 64.9376 42.3735 64.8559C42.0486 64.6662 41.7374 64.4542 41.442 64.2212C40.8712 63.7782 40.1144 64.0231 39.4563 63.8889C39.259 63.8485 38.9711 63.8719 38.7925 63.7725C38.3882 63.5299 37.8732 63.0278 37.5409 62.7481C37.4713 63.4936 37.4422 64.256 37.4422 65.0184C37.4409 66.3279 37.5341 67.6357 37.7212 68.9317C37.802 69.5309 37.9079 70.1251 38.03 70.7105C38.0292 70.7188 38.0312 70.727 38.0357 70.734C38.2086 71.5674 38.4245 72.3913 38.6825 73.2024C39.0214 74.3154 39.4336 75.4047 39.9163 76.4632H39.9228C40.6731 76.5853 41.4477 76.6848 42.2045 76.574C43.2822 76.4171 44.3536 76.2506 45.4483 76.2886C46.4727 76.3355 47.4276 76.6848 48.4294 76.8546C49.5524 77.0405 50.7232 77.1917 51.864 77.2677C52.9062 77.3316 53.9427 77.4189 54.9793 77.5353C55.7595 77.6283 56.5397 77.7779 57.32 77.8321C59.3462 77.972 61.3263 77.4424 63.3169 77.233C64.313 77.1278 65.3026 76.8772 66.281 76.667C66.8809 76.5392 67.463 76.3816 67.9926 76.0557C68.6912 75.6191 69.1335 74.9497 69.7568 74.4193C70.4441 73.8315 71.1604 73.2606 71.876 72.7141C72.4872 72.2475 73.0637 71.7438 73.7041 71.3282C74.1892 71.0048 74.6824 70.7049 75.1425 70.3443C76.0448 69.6336 76.7595 68.8129 77.5066 67.951C78.5488 66.7382 78.9798 65.0573 79.3986 63.555C79.7778 62.1748 80.0398 60.7947 80.7965 59.5544C81.1694 58.9356 81.4479 58.2647 81.6229 57.5638C81.7336 57.1328 81.7749 56.6493 81.9722 56.2418C82.2867 55.578 82.9044 55.101 83.2828 54.4719C83.5795 53.9771 83.911 53.5171 84.1212 52.9697C84.5337 51.9139 84.8318 50.8169 85.0106 49.6976C85.1384 48.8526 85.4149 48.0805 85.6736 47.272C85.7148 47.1377 85.7545 47.0035 85.79 46.8677C85.5992 46.6453 85.4068 46.4303 85.2152 46.2184ZM49.3163 65.0653C49.3745 64.9198 50.4046 64.518 50.5623 64.4719C50.5516 64.4798 50.5395 64.4855 50.5267 64.4889L49.8516 64.7799C50.597 64.5301 51.9416 65.2869 51.29 66.1423C51.0975 66.393 50.597 66.515 50.3003 66.5619C50.0036 66.6088 49.8152 66.515 49.6365 66.2587C49.4853 66.038 49.3745 65.654 49.3333 65.3912C49.3195 65.2998 49.2783 65.1608 49.3196 65.0678L49.3163 65.0653ZM41.104 72.4958C40.3004 72.2742 39.7643 71.9775 39.2695 71.3024C38.9461 70.8658 38.6696 70.4292 38.5822 69.8931C38.5127 69.4508 38.3397 69.0546 38.4432 68.6124C38.5306 68.2456 38.6594 67.89 38.8272 67.5524C39.0075 67.1853 39.2752 66.8069 39.2986 66.6848C40.1023 66.6153 40.8534 66.5862 41.6571 66.5797C42.5537 66.5741 43.4504 66.6905 44.3527 66.697C44.757 66.7026 45.1677 66.7196 45.5655 66.6323C45.9561 66.5571 46.3344 66.452 46.7298 66.3897C47.4171 66.2733 48.0574 66.1916 48.7034 66.5353C49.1926 66.7972 49.4198 67.3389 49.647 67.8289C49.7756 68.1079 49.8508 68.3059 49.8508 68.6205C49.8558 68.9988 49.8345 69.377 49.7869 69.7524C49.7691 69.8923 49.7521 70.0378 49.7287 70.1777C49.1627 71.4115 47.6095 71.819 46.4509 72.25C44.7356 72.8763 42.8696 72.9621 41.104 72.4958ZM53.5053 75.1389C53.1447 76.0476 51.6247 76.3735 50.7515 76.4083C50.3205 76.426 49.8022 76.3387 49.4239 76.1115C49.1969 75.9605 49.0077 75.7594 48.8708 75.5237C48.7722 75.362 48.5474 75.058 48.1027 75.1914C48.1964 74.6952 48.3506 74.2124 48.5619 73.7538C48.76 73.5323 48.9662 73.3229 49.1853 73.1248C49.5933 72.7551 50.0474 72.4398 50.5364 72.1869C51.2988 71.8028 52.0969 72.0883 52.8302 72.4295C53.325 72.6558 53.7091 72.9954 53.8142 73.5355C53.9363 74.1508 53.7325 74.5874 53.5053 75.1405V75.1389ZM63.7187 74.9642C63.439 75.6337 63.0484 75.7857 62.4315 76.1002C61.7095 76.4665 60.8306 76.7406 60.0148 76.747C59.596 76.7527 59.2063 76.5546 58.8271 76.4034C58.5773 76.3048 58.3032 76.2417 58.1051 76.0541C57.5577 75.5536 57.4704 74.8195 57.8083 74.9715C57.6001 74.5325 57.4662 74.062 57.4122 73.5792C57.5047 73.504 57.5687 73.3992 57.5933 73.2825C57.8843 72.7351 58.4252 72.2815 58.9613 71.9783C59.4448 71.7091 59.9828 71.5526 60.5353 71.5204C61.0877 71.4882 61.6403 71.5812 62.1518 71.7923C62.6005 71.9783 62.8859 72.2055 63.2231 72.5491C63.3807 72.7108 63.6015 72.8636 63.7244 73.0617C64.0268 73.5687 63.9338 74.454 63.7187 74.9658V74.9642ZM66.8566 74.8599C66.6998 74.9877 66.3966 75.2383 66.1928 75.1971C66.0238 75.1623 65.7037 74.8187 65.7562 74.6384L65.6454 74.5276C65.888 74.1492 66.1306 73.7652 66.3731 73.3746C66.7459 73.5363 67.0782 73.5145 67.3045 73.922C67.5148 74.302 67.1364 74.6343 66.8566 74.8615V74.8599ZM74.6646 56.5483C74.3558 56.9614 73.9483 57.3511 73.4712 57.5492C72.8713 57.7999 72.0676 57.9858 72.0385 57.0835C72.0079 56.5969 72.1129 56.1113 72.3417 55.6807C72.6845 54.9878 73.0112 54.8131 73.675 54.4679C73.9082 54.4954 74.1382 54.5461 74.3614 54.6191C74.7342 54.7412 75.0891 55.0735 75.1417 55.4689C75.1999 55.8861 74.9031 56.2443 74.6646 56.5499V56.5483ZM81.9487 52.6236C81.6576 53.5316 81.2671 54.4113 80.8653 55.2732C80.3801 56.3324 80.3179 57.4215 80.0737 58.5389C79.9338 59.1679 79.6371 59.8608 79.0226 60.1058C78.755 60.2101 78.493 60.1867 78.1963 60.1867C77.9287 60.1867 77.4338 60.2861 77.4508 60.519C77.294 60.0824 77.0255 59.4946 76.9212 58.9989C76.8105 58.4515 76.7595 57.867 76.6787 57.3164C76.5857 56.7399 76.5453 56.1634 76.4871 55.5813C76.4402 55.0395 76.3253 54.4695 76.335 53.9221C76.3585 52.1167 77.3546 49.8698 79.0485 49.037C79.5668 48.7863 80.0794 48.6699 80.6502 48.7637C81.314 48.8623 81.6924 49.0426 81.9891 49.6773C82.3853 50.5522 82.2276 51.7286 81.9487 52.6253V52.6236Z" fill="url(#paint12_linear_1_4080)"/>
<path style="mix-blend-mode:multiply" opacity="0.4" fill-rule="evenodd" clip-rule="evenodd" d="M73.9192 54.3441C73.8319 54.391 73.7502 54.4315 73.6766 54.4727C73.538 54.45 73.3971 54.4441 73.257 54.4549L73.9192 54.3441Z" fill="url(#paint13_linear_1_4080)"/>
<path style="mix-blend-mode:multiply" opacity="0.4" fill-rule="evenodd" clip-rule="evenodd" d="M39.2994 66.6876C39.259 66.6932 39.2121 66.6932 39.166 66.6997C39.276 66.6293 39.3148 66.6293 39.2994 66.6876Z" fill="url(#paint14_linear_1_4080)"/>
<path fill-rule="evenodd" clip-rule="evenodd" d="M70.3074 37.94L75.1497 36.0318C75.1497 36.0318 82.8534 39.0234 87.7079 45.5806L88.0111 49.768C88.0111 49.768 78.8318 46.2493 70.3074 37.94Z" fill="url(#paint15_linear_1_4080)"/>
<path fill-rule="evenodd" clip-rule="evenodd" d="M87.9077 80.5333C87.9077 80.5333 83.8497 84.9357 80.7829 85.9181L78.2643 86.6862C78.2643 86.6862 66.7832 82.5538 66.1493 75.3667C65.6205 69.327 75.9503 60.058 78.7454 58.9535C81.5405 57.8491 84.8094 58.4757 84.8094 58.4757L87.9077 80.5333Z" fill="url(#paint16_linear_1_4080)"/>
<path fill-rule="evenodd" clip-rule="evenodd" d="M84.8118 58.4723C82.3862 57.7026 71.9198 62.5255 69.1085 73.3428C68.5377 75.538 73.849 83.8772 80.1927 85.9163C82.2949 86.5931 91.9512 78.1601 92.3538 72.4454C92.7565 66.7307 88.4098 59.6148 84.8118 58.4723Z" fill="url(#paint17_linear_1_4080)"/>
<path fill-rule="evenodd" clip-rule="evenodd" d="M69.785 74.6083C71.2792 62.3582 82.4183 58.3689 84.8407 59.1387C86.5912 59.6941 89.1639 62.2636 90.6355 64.7984C89.1162 61.6702 86.845 59.1193 84.814 58.4741C82.3884 57.7043 71.922 62.5272 69.1107 73.3446C68.9126 74.1078 69.426 75.6085 70.4448 77.3371C69.8869 76.1591 69.7163 75.1913 69.785 74.6083Z" fill="url(#paint18_linear_1_4080)"/>
<path style="mix-blend-mode:multiply" fill-rule="evenodd" clip-rule="evenodd" d="M49.3029 87.7362C49.3029 87.7362 51.7996 88.6515 53.6196 88.1551C53.6196 88.1551 54.319 82.2528 52.094 78.4729C49.8689 74.693 46.0979 80.4037 46.0979 80.4037L45.2352 84.0178C45.2352 84.0178 47.3341 86.542 49.3029 87.7362Z" fill="url(#paint19_linear_1_4080)"/>
<path fill-rule="evenodd" clip-rule="evenodd" d="M51.4669 86.783L53.0678 86.3545C53.0678 86.3545 53.8391 83.0832 52.5018 79.393C50.9801 75.204 45.4029 72.0726 44.5782 72.0055C43.7535 71.9384 42.9336 73.8214 42.9336 73.8214L51.4669 86.783Z" fill="url(#paint20_linear_1_4080)"/>
<path fill-rule="evenodd" clip-rule="evenodd" d="M76.668 90.0201L74.0087 93.479C74.0087 93.479 69.3928 95.713 64.7599 94.6296L61.3988 92.3657L76.668 90.0201Z" fill="url(#paint21_linear_1_4080)"/>
<path fill-rule="evenodd" clip-rule="evenodd" d="M41.7316 76.4106C42.0098 75.1396 43.1296 73.0277 44.133 72.8215C45.1364 72.6153 49.8792 77.1188 50.9772 80.0174C52.0752 82.916 51.5206 86.1275 51.4664 86.7824C51.4122 87.4373 46.0322 85.6117 43.3164 83.3801C40.6005 81.1486 41.7316 76.4106 41.7316 76.4106Z" fill="url(#paint22_linear_1_4080)"/>
<path fill-rule="evenodd" clip-rule="evenodd" d="M50.9774 80.0156C49.8794 77.1178 45.1374 72.6151 44.1332 72.8196C43.7467 72.9005 43.3432 73.2627 42.977 73.7511C43.2009 73.5465 43.4305 73.4018 43.6545 73.3557C44.6579 73.1495 49.4889 76.7337 50.5666 79.638C51.891 83.2052 51.1625 85.7828 51.0332 86.9043C51.2943 86.9213 51.4577 86.8865 51.4666 86.779C51.5232 86.1281 52.0746 82.915 50.9774 80.0156Z" fill="url(#paint23_linear_1_4080)"/>
<path fill-rule="evenodd" clip-rule="evenodd" d="M65.9558 67.714C64.7641 67.1569 66.1175 61.9306 67.2883 60.7938C68.4591 59.657 71.5097 62.3138 71.9131 64.4863C72.3166 66.6589 68.6846 68.9899 65.9558 67.714Z" fill="url(#paint24_linear_1_4080)"/>
<path fill-rule="evenodd" clip-rule="evenodd" d="M67.1483 67.3155C66.1942 66.853 67.276 62.5169 68.2155 61.5749C69.155 60.633 71.5968 62.8362 71.9202 64.6384C72.2436 66.4407 69.3337 68.3731 67.1483 67.3155Z" fill="url(#paint25_linear_1_4080)"/>
<path fill-rule="evenodd" clip-rule="evenodd" d="M75.1518 36.0318C75.1518 36.0318 75.3943 38.9708 78.7004 42.5745C82.0065 46.1781 87.7099 45.5806 87.7099 45.5806L88.0131 49.768C88.0131 49.768 75.8916 44.4098 70.3062 37.94L75.1518 36.0318Z" fill="url(#paint26_linear_1_4080)"/>
<path fill-rule="evenodd" clip-rule="evenodd" d="M84.6544 62.0791C84.5178 62.1939 84.217 62.4082 84.4555 62.5747C84.5194 62.62 84.5751 62.5958 84.6439 62.616C84.6972 62.6305 84.7102 62.6726 84.7716 62.6491C84.9657 62.5747 84.8881 62.0265 84.6698 62.1365L84.6544 62.0791Z" fill="#0EDBFF"/>
<path fill-rule="evenodd" clip-rule="evenodd" d="M96.0865 57.1602C95.949 57.2742 95.6491 57.4892 95.8868 57.655C95.9507 57.7003 96.0073 57.6768 96.0752 57.6962C96.1285 57.7116 96.1415 57.7528 96.2029 57.7294C96.397 57.6558 96.3194 57.1068 96.1011 57.2168L96.0865 57.1602Z" fill="#0EDBFF"/>
<path fill-rule="evenodd" clip-rule="evenodd" d="M91.0653 77.4582C90.9279 77.5722 90.6271 77.7873 90.8656 77.953C90.9295 77.9983 90.9861 77.9749 91.054 77.9943C91.1074 78.0096 91.1203 78.0509 91.1818 78.0274C91.3758 77.9538 91.2982 77.4048 91.0799 77.5148L91.0653 77.4582Z" fill="#0EDBFF"/>
<path fill-rule="evenodd" clip-rule="evenodd" d="M85.6543 64.0776C85.7372 64.0302 85.8305 64.0041 85.926 64.0016C85.947 64.1204 86.0553 64.3533 85.8855 64.4454C85.7432 64.5263 85.7861 64.2684 85.719 64.2093L85.6543 64.0776Z" fill="#0EDBFF"/>
<path fill-rule="evenodd" clip-rule="evenodd" d="M67.5076 65.2985C67.6898 65.3707 67.8701 65.4462 68.0485 65.5249C68.1067 65.474 68.1941 65.4837 68.262 65.4384C68.3552 65.3664 68.4248 65.2681 68.4617 65.1562C68.5134 65.0018 68.4342 64.8756 68.3639 64.7584C68.3162 64.6776 68.2709 64.5644 68.2022 64.5102C68.1213 64.4479 67.9539 64.473 67.8658 64.5142C67.6521 64.662 67.5047 64.8874 67.4551 65.1425C67.4607 65.2071 67.4807 65.2697 67.5136 65.3256C67.5464 65.3816 67.5914 65.4295 67.6451 65.4659L67.5076 65.2985Z" fill="#0EDBFF"/>
<path fill-rule="evenodd" clip-rule="evenodd" d="M41.792 79.052C41.9739 79.1231 42.1542 79.1991 42.3329 79.2776C42.3911 79.2266 42.4784 79.2363 42.5464 79.191C42.6397 79.1192 42.7093 79.0208 42.7461 78.9089C42.7978 78.7544 42.7186 78.6291 42.6482 78.5111C42.6013 78.4302 42.5552 78.317 42.4865 78.2637C42.4057 78.2006 42.2383 78.2257 42.151 78.2637C42.044 78.3283 41.9546 78.4183 41.8906 78.5256C41.8095 78.6323 41.7574 78.7582 41.7394 78.8911C41.7451 78.9557 41.7651 79.0183 41.7979 79.0742C41.8308 79.1302 41.8757 79.1781 41.9295 79.2145L41.792 79.052Z" fill="#0EDBFF"/>
<path fill-rule="evenodd" clip-rule="evenodd" d="M91.9236 86.2257C92.1058 86.2969 92.2861 86.3721 92.4646 86.4513C92.522 86.4004 92.6093 86.4101 92.678 86.3648C92.7714 86.2929 92.841 86.1946 92.8777 86.0826C92.9287 85.9282 92.8502 85.8021 92.7799 85.6848C92.7322 85.604 92.6869 85.4908 92.6182 85.4374C92.5495 85.3841 92.37 85.3994 92.2818 85.4374C92.1754 85.5031 92.0861 85.5931 92.0215 85.7002C91.9406 85.807 91.8888 85.9329 91.8711 86.0657C91.8766 86.1302 91.8964 86.1928 91.9292 86.2487C91.9619 86.3047 92.0067 86.3526 92.0603 86.3891L91.9236 86.2257Z" fill="#0EDBFF"/>
<path fill-rule="evenodd" clip-rule="evenodd" d="M88.3174 81.2463C88.4996 81.3175 88.6799 81.3927 88.8583 81.4719C88.9158 81.421 89.0031 81.4307 89.0718 81.3854C89.165 81.3133 89.2345 81.215 89.2715 81.1032C89.3224 80.9488 89.244 80.8226 89.1729 80.7054C89.126 80.6245 89.0807 80.5114 89.0112 80.458C88.9263 80.3949 88.7629 80.42 88.6748 80.458C88.5684 80.5236 88.4791 80.6137 88.4145 80.7208C88.3336 80.8275 88.2818 80.9535 88.2641 81.0862C88.2696 81.1508 88.2894 81.2134 88.3221 81.2693C88.3549 81.3253 88.3997 81.3732 88.4533 81.4096L88.3174 81.2463Z" fill="#0EDBFF"/>
<path fill-rule="evenodd" clip-rule="evenodd" d="M38.2814 46.4927C38.7423 46.6749 39.2005 46.8657 39.6559 47.0652C39.8023 46.9358 40.023 46.96 40.196 46.846C40.4176 46.6989 40.6173 46.3884 40.703 46.1313C40.8323 45.7408 40.6326 45.4214 40.454 45.1239C40.3343 44.9242 40.2195 44.6323 40.0367 44.4964C39.8233 44.3347 39.4085 44.4002 39.1854 44.5061C38.9105 44.6371 38.7091 44.9193 38.5264 45.1708C38.3558 45.4069 38.1537 45.799 38.1456 46.0965C38.1359 46.4159 38.3882 46.7539 38.6251 46.9172L38.2814 46.4927Z" fill="#0EDBFF"/>
<path fill-rule="evenodd" clip-rule="evenodd" d="M68.68 29.7636C69.1398 29.9458 69.5963 30.1366 70.0496 30.3361C70.196 30.2067 70.4175 30.2309 70.5897 30.1169C70.8113 29.9698 71.0118 29.6593 71.0967 29.4022C71.2261 29.0117 71.0263 28.6923 70.8477 28.3948C70.728 28.1951 70.6132 27.9032 70.4305 27.7674C70.217 27.6056 69.8022 27.6711 69.5799 27.7771C69.3042 27.908 69.1036 28.1902 68.9209 28.4417C68.7495 28.6778 68.5482 29.0699 68.5393 29.3674C68.5304 29.6908 68.7818 30.0248 69.0187 30.1881L68.68 29.7636Z" fill="#0EDBFF"/>
<path fill-rule="evenodd" clip-rule="evenodd" d="M72.7201 69.8744C72.6423 69.9279 72.5772 69.9977 72.5293 70.079C72.6037 70.172 72.6401 70.2601 72.7719 70.2973C72.7961 70.3072 72.8226 70.3102 72.8485 70.3059C72.8743 70.3016 72.8984 70.2902 72.9182 70.273C72.9708 70.2213 72.9425 70.1639 72.957 70.1113C72.9918 69.9876 73.0257 69.9553 72.957 69.8421C72.915 69.7742 72.8859 69.7467 72.8115 69.7467C72.7597 69.7467 72.6498 69.7612 72.6207 69.8194L72.7201 69.8744Z" fill="#0EDBFF"/>
<path fill-rule="evenodd" clip-rule="evenodd" d="M73.1342 72.7572C73.1204 72.7888 72.9797 73.1453 73.1625 73.0418C73.2538 72.9901 73.2207 72.8502 73.1625 72.8106L73.1722 72.775L73.1342 72.7572Z" fill="#0EDBFF"/>
<path fill-rule="evenodd" clip-rule="evenodd" d="M82.2397 78.0112C82.1482 78.1254 82.0825 78.2581 82.0473 78.4001C82.1103 78.449 82.1882 78.4747 82.268 78.4729C82.3747 78.468 82.3796 78.4341 82.3828 78.3322C82.3828 78.2513 82.4192 78.185 82.3998 78.1058C82.3804 78.0266 82.2979 77.9441 82.2049 77.9934L82.2397 78.0112Z" fill="#0EDBFF"/>
<path fill-rule="evenodd" clip-rule="evenodd" d="M74.566 70.2223C74.6346 70.2847 74.6807 70.368 74.697 70.4592C74.6 70.4835 74.5887 70.3881 74.5741 70.3129C74.5515 70.1924 74.6072 70.232 74.6638 70.1334L74.6954 70.1399L74.566 70.2223Z" fill="#0EDBFF"/>
<path fill-rule="evenodd" clip-rule="evenodd" d="M83.2931 62.4248C83.2161 62.4785 83.1513 62.5479 83.1031 62.6285C83.1492 62.6851 83.1274 62.7902 83.2341 62.7805C83.3093 62.7749 83.3707 62.694 83.4071 62.6317C83.442 62.5678 83.4598 62.496 83.4589 62.4231C83.4589 62.3827 83.4589 62.2129 83.3877 62.3245L83.2931 62.4248Z" fill="#0EDBFF"/>
<path fill-rule="evenodd" clip-rule="evenodd" d="M82.1129 42.111C82.2074 42.0761 82.3056 42.0525 82.4056 42.0406C82.4314 42.0406 82.4654 42.0592 82.4937 42.0624C82.5875 42.0705 82.5899 42.0495 82.636 42.1247C82.6622 42.1599 82.6809 42.2001 82.691 42.2427C82.7012 42.2854 82.7025 42.3297 82.695 42.3729C82.6417 42.7157 82.1565 42.1991 82.3255 42.073L82.1129 42.111Z" fill="#0EDBFF"/>
<path fill-rule="evenodd" clip-rule="evenodd" d="M45.0695 42.7207C44.9158 42.7684 44.6822 42.7854 44.6652 42.9632C44.649 43.1161 44.9005 43.2737 45.0266 43.3158C45.253 43.3893 45.6233 43.4257 45.7349 43.1686C45.7996 43.019 45.7511 42.728 45.6589 42.5962C45.4697 42.3253 45.0816 42.4345 44.7873 42.5509L45.0695 42.7207Z" fill="#0EDBFF"/>
<path fill-rule="evenodd" clip-rule="evenodd" d="M84.3658 78.3874C84.2971 77.8594 84.2041 77.3363 84.6707 77.0606C84.9262 76.9094 85.3983 76.8568 85.636 77.0355C85.8107 77.1649 85.9635 77.4066 86.0727 77.5869C86.2344 77.8546 86.1915 77.8554 86.1074 78.0995C85.9142 78.6599 85.784 79.0285 85.2245 79.0294C84.4887 79.0294 84.3755 78.4585 84.3658 77.747V78.3874Z" fill="#0EDBFF"/>
<path fill-rule="evenodd" clip-rule="evenodd" d="M84.6934 63.5416C84.8966 63.4863 85.0798 63.3741 85.2213 63.2182C85.0742 63.1268 84.7516 62.9368 84.6934 63.2141V63.5416Z" fill="#0EDBFF"/>
<path fill-rule="evenodd" clip-rule="evenodd" d="M42.9629 76.9814C43.166 76.9258 43.3491 76.8137 43.4908 76.658C43.3437 76.5667 43.0211 76.3767 42.9629 76.6532V76.9814Z" fill="#0EDBFF"/>
<path fill-rule="evenodd" clip-rule="evenodd" d="M42.9629 81.4164C43.166 81.3608 43.3491 81.2486 43.4908 81.093C43.3437 81.0008 43.0211 80.8108 42.9629 81.0881V81.4164Z" fill="#0EDBFF"/>
<path fill-rule="evenodd" clip-rule="evenodd" d="M74.1624 65.5503C74.3662 65.2996 74.6613 64.842 75.0316 65.0927C75.2467 65.2382 75.3081 65.6247 75.102 65.7783C74.9111 65.9206 74.7365 65.961 74.5214 66.0209C74.3597 66.0661 74.1123 65.957 74.1624 65.7136V65.5503Z" fill="#0EDBFF"/>
<path fill-rule="evenodd" clip-rule="evenodd" d="M81.0871 76.9653C81.2908 76.7139 81.5859 76.2562 81.9562 76.5077C82.1713 76.6532 82.2328 77.0389 82.0266 77.1925C81.8366 77.3348 81.6611 77.3753 81.4461 77.4351C81.2844 77.4804 81.0369 77.3712 81.0871 77.1278V76.9653Z" fill="#0EDBFF"/>
<path fill-rule="evenodd" clip-rule="evenodd" d="M80.0434 39.1402C80.3668 39.1936 80.9061 39.2211 80.8706 39.6706C80.8495 39.9294 80.5471 40.1735 80.3094 40.07C80.0911 39.9746 79.9698 39.842 79.8122 39.6844C79.6917 39.5639 79.6658 39.2971 79.9019 39.2203L80.0434 39.1402Z" fill="#0EDBFF"/>
<path fill-rule="evenodd" clip-rule="evenodd" d="M78.9107 79.9233C79.1152 79.6727 79.4095 79.2151 79.7799 79.4657C79.9949 79.6121 80.0564 79.9977 79.851 80.1513C79.6602 80.2936 79.4855 80.3341 79.2705 80.3939C79.1088 80.4392 78.8614 80.3308 78.9107 80.0875V79.9233Z" fill="#0EDBFF"/>
<path fill-rule="evenodd" clip-rule="evenodd" d="M69.4728 65.1714C69.2116 65.338 68.7718 65.5434 68.7273 65.8991C68.7006 66.115 68.8001 66.2427 68.9958 66.3365C69.0876 66.3771 69.1869 66.398 69.2872 66.398C69.3876 66.398 69.4869 66.3771 69.5787 66.3365C69.8213 66.2161 70.0946 66.0131 70.2029 65.7617C70.2399 65.6841 70.2572 65.5986 70.2534 65.5127C70.2496 65.4269 70.2247 65.3433 70.1811 65.2693C70.1332 65.1589 70.047 65.0696 69.9385 65.0178C69.6038 64.9022 69.4033 65.2296 69.1558 65.3776L69.4728 65.1714Z" fill="#0EDBFF"/>
<path fill-rule="evenodd" clip-rule="evenodd" d="M70.32 64.2187C70.4586 64.2663 70.5829 64.3481 70.6815 64.4564C70.5392 64.5049 70.3864 64.6181 70.2408 64.5656C70.0524 64.4976 70.0177 64.319 70.0597 64.1387C70.0832 64.04 70.2602 63.867 70.3613 63.9106C70.4122 63.9325 70.4219 64.002 70.4421 64.0465C70.4769 64.1403 70.4793 64.1201 70.4292 64.2187H70.32Z" fill="#0EDBFF"/>
<path fill-rule="evenodd" clip-rule="evenodd" d="M77.5341 62.6473C76.8436 63.2537 76.1928 63.9782 75.8265 64.8449C75.6397 65.2864 75.9712 65.3082 76.3723 65.2298C77.1493 65.0786 77.9303 64.8635 78.6984 64.6638C79.1528 64.5466 79.8045 64.3073 80.1198 63.9216C80.3624 63.6249 80.4626 63.1131 80.4093 62.7428C80.3349 62.2221 79.9646 62.0199 79.4916 61.8889C78.4114 61.5898 76.8784 62.7557 76.4774 63.7486L77.5341 62.6473Z" fill="#0EDBFF"/>
<path fill-rule="evenodd" clip-rule="evenodd" d="M73.6825 66.5779C73.9009 66.5818 74.1154 66.6372 74.3083 66.7396C74.2525 66.8059 74.2703 66.8957 74.2412 66.9733C74.187 67.0954 74.0978 67.1986 73.9849 67.27C73.8884 67.3272 73.7812 67.3639 73.6699 67.3778C73.5586 67.3917 73.4457 67.3825 73.3381 67.3509C72.7584 67.131 73.6469 66.4437 73.8426 66.6871L73.6825 66.5779Z" fill="#0EDBFF"/>
<path fill-rule="evenodd" clip-rule="evenodd" d="M41.3576 88.6953C41.2803 88.7491 41.2155 88.8189 41.1676 88.8999C41.242 88.9929 41.2784 89.081 41.4061 89.1182C41.4304 89.128 41.4569 89.1309 41.4827 89.1266C41.5085 89.1224 41.5326 89.111 41.5524 89.0939C41.605 89.0422 41.5767 88.9848 41.5904 88.9322C41.626 88.8085 41.66 88.7762 41.5904 88.663C41.5484 88.5951 41.5193 88.5676 41.4449 88.5676C41.3932 88.5676 41.2832 88.5821 41.2541 88.6403L41.3576 88.6953Z" fill="#0EDBFF"/>
<path fill-rule="evenodd" clip-rule="evenodd" d="M41.7707 91.5775C41.7578 91.6091 41.6171 91.9656 41.799 91.8622C41.8912 91.8104 41.858 91.6705 41.799 91.6301C41.799 91.6188 41.8055 91.6075 41.8079 91.5953L41.7707 91.5775Z" fill="#0EDBFF"/>
<path fill-rule="evenodd" clip-rule="evenodd" d="M43.2008 89.0432C43.2694 89.1056 43.3155 89.1889 43.3317 89.2801C43.2347 89.3044 43.2234 89.209 43.2088 89.1338C43.1862 89.0133 43.242 89.0529 43.2986 88.9543L43.3301 88.9608L43.2008 89.0432Z" fill="#0EDBFF"/>
<path fill-rule="evenodd" clip-rule="evenodd" d="M42.3204 85.3982C42.5388 85.4022 42.7532 85.4576 42.9462 85.5599C42.8896 85.6262 42.9082 85.716 42.8791 85.7936C42.8248 85.9157 42.7356 86.0189 42.6227 86.0903C42.5262 86.1475 42.419 86.1841 42.3077 86.198C42.1965 86.2119 42.0835 86.2028 41.9759 86.1712C41.397 85.9513 42.2856 85.264 42.4804 85.5074L42.3204 85.3982Z" fill="#0EDBFF"/>
<path fill-rule="evenodd" clip-rule="evenodd" d="M78.909 39.6517C79.1055 39.7883 79.3174 39.8943 79.4669 40.0754C79.6438 40.2747 79.8026 40.4892 79.9415 40.7165C80.0095 40.8362 80.1712 41.0982 79.9327 41.1313C79.6731 41.1669 79.2139 40.8257 79.0255 40.6923C78.7021 40.4651 78.3908 40.2565 78.1571 39.929C78.0399 39.7633 77.8596 39.4762 77.9792 39.2773C78.0795 39.11 78.2218 39.0809 78.4069 39.0849C78.5755 39.0857 78.7375 39.1508 78.8597 39.2668C78.9293 39.3226 79.264 39.6646 79.1516 39.7568L78.909 39.6517Z" fill="#0EDBFF"/>
<path fill-rule="evenodd" clip-rule="evenodd" d="M81.4179 61.6484C81.3225 61.718 80.5915 62.123 80.9392 62.2953C81.1268 62.3899 81.4939 62.3624 81.6847 62.2815C81.8537 62.2096 82.0243 62.098 81.9183 61.9039C81.7041 61.511 81.1664 61.7382 80.8891 61.9088L81.4179 61.6484Z" fill="#0EDBFF"/>
<path fill-rule="evenodd" clip-rule="evenodd" d="M86.6806 37.7199C86.438 37.893 84.6059 38.9117 85.4799 39.3524C85.9496 39.5893 86.8722 39.5213 87.3492 39.3184C87.7737 39.1381 88.203 38.8591 87.937 38.3716C87.3985 37.386 86.0491 37.9544 85.3497 38.3837L86.6806 37.7199Z" fill="#0EDBFF"/>
<path fill-rule="evenodd" clip-rule="evenodd" d="M43.2254 79.3873C43.3063 79.8158 43.3871 80.2847 43.7639 80.5685C44.1504 80.862 44.587 80.7432 44.967 80.5192C45.2475 80.3535 45.5136 80.1764 45.7885 80.0074C45.9502 79.9088 46.0892 79.8837 46.0965 79.6549C46.1038 79.4123 45.8774 79.0784 45.7359 78.8916C45.5288 78.6365 45.2634 78.4349 44.9621 78.3038C44.3865 78.0888 43.2877 78.3038 43.3014 79.0857L43.2254 79.3873Z" fill="#0EDBFF"/>
<path fill-rule="evenodd" clip-rule="evenodd" d="M81.7695 80.23C81.8237 80.5307 81.886 80.8598 82.1471 81.0587C82.4083 81.2576 82.7252 81.1816 82.992 81.0247C83.1893 80.9083 83.3753 80.7822 83.5685 80.665C83.6809 80.5962 83.7795 80.5784 83.7844 80.4175C83.7892 80.2566 83.6308 80.0133 83.5313 79.8823C83.3867 79.7028 83.2005 79.5613 82.9888 79.4699C82.5845 79.3187 81.8132 79.4699 81.8229 80.0181L81.7695 80.23Z" fill="#0EDBFF"/>
<path style="mix-blend-mode:screen" d="M87.2431 82.571C89.9073 81.4674 91.1725 78.413 90.0689 75.7488C88.9654 73.0845 85.911 71.8193 83.2467 72.9229C80.5825 74.0265 79.3173 77.0809 80.4209 79.7451C81.5244 82.4094 84.5788 83.6746 87.2431 82.571Z" fill="url(#paint27_radial_1_4080)"/>
<path style="mix-blend-mode:screen" d="M81.6837 66.9802C83.5769 65.0869 83.5769 62.0174 81.6837 60.1241C79.7904 58.2309 76.7209 58.2309 74.8276 60.1241C72.9344 62.0174 72.9344 65.0869 74.8276 66.9802C76.7209 68.8734 79.7904 68.8734 81.6837 66.9802Z" fill="url(#paint28_radial_1_4080)"/>
<path style="mix-blend-mode:screen" fill-rule="evenodd" clip-rule="evenodd" d="M81.3584 42.0202C80.7448 42.8651 79.2069 42.7932 77.9222 41.8585C76.6374 40.9239 76.0949 39.4847 76.7094 38.6397C77.3239 37.7948 78.8609 37.8668 80.1456 38.8015C81.4304 39.7361 81.9681 41.1753 81.3584 42.0202Z" fill="url(#paint29_radial_1_4080)"/>
<path style="mix-blend-mode:screen" d="M44.6617 84.4993C47.5455 84.4993 49.8832 82.1615 49.8832 79.2778C49.8832 76.394 47.5455 74.0562 44.6617 74.0562C41.778 74.0562 39.4402 76.394 39.4402 79.2778C39.4402 82.1615 41.778 84.4993 44.6617 84.4993Z" fill="url(#paint30_radial_1_4080)"/>
<path fill-rule="evenodd" clip-rule="evenodd" d="M75.2305 36.51C75.2305 36.51 76.4966 41.8883 80.0582 43.9153C84.5634 46.4808 87.7078 45.5793 87.7078 45.5793C87.7078 45.5793 83.6813 45.4378 79.958 42.8982C76.8483 40.7782 75.2305 36.51 75.2305 36.51Z" fill="url(#paint31_linear_1_4080)"/>
<path style="mix-blend-mode:multiply" opacity="0.4" fill-rule="evenodd" clip-rule="evenodd" d="M66.7777 77.9764L69.1694 74.4617C69.1694 74.4617 72.2353 83.185 80.1929 85.917L78.4473 87.0417C78.4473 87.0417 70.3377 84.7333 66.7777 77.9764Z" fill="url(#paint32_linear_1_4080)"/>
<path style="mix-blend-mode:multiply" fill-rule="evenodd" clip-rule="evenodd" d="M71.307 39.1473C71.307 39.1473 82.7793 50.6963 91.0352 55.8281C91.0352 55.8281 90.2364 52.6748 88.0113 49.7641C88.0121 49.7673 81.0806 47.4881 71.307 39.1473Z" fill="url(#paint33_linear_1_4080)"/>
<path style="mix-blend-mode:screen" d="M58.666 57.594C64.0381 54.0765 66.565 48.4331 64.3099 44.989C62.0548 41.5449 55.8718 41.6043 50.4997 45.1217C45.1276 48.6392 42.6007 54.2826 44.8558 57.7267C47.1109 61.1709 53.2939 61.1114 58.666 57.594Z" fill="url(#paint34_radial_1_4080)"/>
<defs>
<radialGradient id="paint0_radial_1_4080" cx="0" cy="0" r="1" gradientUnits="userSpaceOnUse" gradientTransform="translate(64.9999 65.0002) scale(38.1838)">
<stop offset="0.01" stop-color="#009BFF"/>
<stop offset="1" stop-opacity="0"/>
</radialGradient>
<radialGradient id="paint1_radial_1_4080" cx="0" cy="0" r="1" gradientUnits="userSpaceOnUse" gradientTransform="translate(64.9997 65.0002) scale(31.9605)">
<stop offset="0.01" stop-color="#009BFF"/>
<stop offset="1" stop-opacity="0"/>
</radialGradient>
<radialGradient id="paint2_radial_1_4080" cx="0" cy="0" r="1" gradientUnits="userSpaceOnUse" gradientTransform="translate(64.9996 65.0002) scale(32.5273)">
<stop offset="0.01" stop-color="#0092FF"/>
<stop offset="0.13" stop-color="#0090FB"/>
<stop offset="0.26" stop-color="#0089EF"/>
<stop offset="0.38" stop-color="#007DDB"/>
<stop offset="0.51" stop-color="#006DBF" stop-opacity="0"/>
<stop offset="0.63" stop-color="#00599B" stop-opacity="0"/>
<stop offset="0.76" stop-color="#003F6E" stop-opacity="0"/>
<stop offset="0.88" stop-color="#00223B" stop-opacity="0"/>
<stop offset="1" stop-opacity="0"/>
</radialGradient>
<linearGradient id="paint3_linear_1_4080" x1="46.6949" y1="50.2144" x2="46.6949" y2="40.6607" gradientUnits="userSpaceOnUse">
<stop stop-color="#9A00B3"/>
<stop offset="1" stop-color="#7F72FF"/>
</linearGradient>
<linearGradient id="paint4_linear_1_4080" x1="44.5806" y1="50.6979" x2="48.1697" y2="39.739" gradientUnits="userSpaceOnUse">
<stop stop-color="#5B008B"/>
<stop offset="1" stop-color="#8E00FF"/>
</linearGradient>
<radialGradient id="paint5_radial_1_4080" cx="0" cy="0" r="1" gradientUnits="userSpaceOnUse" gradientTransform="translate(47.936 52.1111) scale(44.31)">
<stop offset="0.01" stop-color="#60DBFF"/>
<stop offset="0.09" stop-color="#60D5FF"/>
<stop offset="0.21" stop-color="#5FC4FF"/>
<stop offset="0.34" stop-color="#5DA9FF"/>
<stop offset="0.49" stop-color="#5A82FF"/>
<stop offset="0.64" stop-color="#5751FF"/>
<stop offset="0.68" stop-color="#5643FF"/>
<stop offset="0.74" stop-color="#563DF8"/>
<stop offset="0.83" stop-color="#552EE5"/>
<stop offset="0.93" stop-color="#5315C6"/>
<stop offset="1" stop-color="#5200AB"/>
</radialGradient>
<linearGradient id="paint6_linear_1_4080" x1="37.4342" y1="57.4473" x2="77.1146" y2="57.4473" gradientUnits="userSpaceOnUse">
<stop offset="0.01" stop-color="#81E0FF"/>
<stop offset="0.32" stop-color="#82DDFF"/>
<stop offset="0.55" stop-color="#86D4FF"/>
<stop offset="0.75" stop-color="#8BC4FF"/>
<stop offset="0.94" stop-color="#94ADFF"/>
<stop offset="1" stop-color="#97A4FF"/>
</linearGradient>
<linearGradient id="paint7_linear_1_4080" x1="77.5199" y1="90.0197" x2="77.5199" y2="77.067" gradientUnits="userSpaceOnUse">
<stop stop-color="#B8C2FF"/>
<stop offset="1" stop-color="#5B729C"/>
</linearGradient>
<radialGradient id="paint8_radial_1_4080" cx="0" cy="0" r="1" gradientUnits="userSpaceOnUse" gradientTransform="translate(44.8604 46.2385) scale(36.3072 36.3072)">
<stop stop-color="#FFFFD9"/>
<stop offset="1"/>
</radialGradient>
<linearGradient id="paint9_linear_1_4080" x1="37.6856" y1="49.6402" x2="72.3765" y2="49.6402" gradientUnits="userSpaceOnUse">
<stop stop-color="#B8C2FF"/>
<stop offset="1" stop-color="#7D72B3"/>
</linearGradient>
<linearGradient id="paint10_linear_1_4080" x1="43.3173" y1="75.4608" x2="92.6047" y2="75.4608" gradientUnits="userSpaceOnUse">
<stop stop-color="#B8C2FF"/>
<stop offset="1" stop-color="#7D72B3"/>
</linearGradient>
<linearGradient id="paint11_linear_1_4080" x1="40.4048" y1="65.2666" x2="89.5936" y2="65.2666" gradientUnits="userSpaceOnUse">
<stop stop-color="#B8C2FF"/>
<stop offset="1" stop-color="#7D72B3"/>
</linearGradient>
<linearGradient id="paint12_linear_1_4080" x1="37.4357" y1="58.3925" x2="85.7852" y2="58.3925" gradientUnits="userSpaceOnUse">
<stop stop-color="#B8C2FF"/>
<stop offset="1" stop-color="#7D72B3"/>
</linearGradient>
<linearGradient id="paint13_linear_1_4080" x1="73.2554" y1="54.4088" x2="73.9192" y2="54.4088" gradientUnits="userSpaceOnUse">
<stop stop-color="#E8DDFF"/>
<stop offset="1" stop-color="#AA8AD8"/>
</linearGradient>
<linearGradient id="paint14_linear_1_4080" x1="39.166" y1="66.6722" x2="39.3035" y2="66.6722" gradientUnits="userSpaceOnUse">
<stop stop-color="#E8DDFF"/>
<stop offset="1" stop-color="#AA8AD8"/>
</linearGradient>
<linearGradient id="paint15_linear_1_4080" x1="70.3074" y1="42.8995" x2="88.0111" y2="42.8995" gradientUnits="userSpaceOnUse">
<stop stop-color="#7F72FF"/>
<stop offset="1" stop-color="#9A00B3"/>
</linearGradient>
<linearGradient id="paint16_linear_1_4080" x1="74.3292" y1="85.3974" x2="83.3096" y2="57.9817" gradientUnits="userSpaceOnUse">
<stop stop-color="#280077"/>
<stop offset="1" stop-color="#812CFF"/>
</linearGradient>
<linearGradient id="paint17_linear_1_4080" x1="76.9626" y1="84.5365" x2="85.4935" y2="58.3932" gradientUnits="userSpaceOnUse">
<stop stop-color="#7A00B3"/>
<stop offset="1" stop-color="#B136FF"/>
</linearGradient>
<linearGradient id="paint18_linear_1_4080" x1="79.8521" y1="77.3355" x2="79.8521" y2="58.3932" gradientUnits="userSpaceOnUse">
<stop stop-color="#8E00B3"/>
<stop offset="1" stop-color="#E05CFF"/>
</linearGradient>
<linearGradient id="paint19_linear_1_4080" x1="49.48" y1="88.303" x2="49.48" y2="77.1808" gradientUnits="userSpaceOnUse">
<stop stop-color="#81A9CE"/>
<stop offset="1" stop-color="#5B729C"/>
</linearGradient>
<linearGradient id="paint20_linear_1_4080" x1="46.3537" y1="85.1077" x2="50.0632" y2="73.7834" gradientUnits="userSpaceOnUse">
<stop stop-color="#280077"/>
<stop offset="1" stop-color="#812CFF"/>
</linearGradient>
<linearGradient id="paint21_linear_1_4080" x1="69.0346" y1="94.9263" x2="69.0346" y2="90.0201" gradientUnits="userSpaceOnUse">
<stop stop-color="#7A00B3"/>
<stop offset="0.92" stop-color="#7006FC"/>
<stop offset="1" stop-color="#7006F9"/>
</linearGradient>
<linearGradient id="paint22_linear_1_4080" x1="46.5764" y1="86.9158" x2="46.5764" y2="72.815" gradientUnits="userSpaceOnUse">
<stop stop-color="#7A00B3"/>
<stop offset="1" stop-color="#B136FF"/>
</linearGradient>
<linearGradient id="paint23_linear_1_4080" x1="47.3155" y1="86.9124" x2="47.3155" y2="72.8172" gradientUnits="userSpaceOnUse">
<stop stop-color="#8E00B3"/>
<stop offset="1" stop-color="#E05CFF"/>
</linearGradient>
<linearGradient id="paint24_linear_1_4080" x1="67.6594" y1="68.301" x2="70.0195" y2="61.0962" gradientUnits="userSpaceOnUse">
<stop stop-color="#5B008B"/>
<stop offset="1" stop-color="#8E00FF"/>
</linearGradient>
<linearGradient id="paint25_linear_1_4080" x1="68.4823" y1="67.7804" x2="70.4341" y2="61.8215" gradientUnits="userSpaceOnUse">
<stop stop-color="#A400CA"/>
<stop offset="1" stop-color="#B136FF"/>
</linearGradient>
<linearGradient id="paint26_linear_1_4080" x1="78.2695" y1="46.5759" x2="81.0864" y2="37.9764" gradientUnits="userSpaceOnUse">
<stop stop-color="#5B008B"/>
<stop offset="1" stop-color="#8E00FF"/>
</linearGradient>
<radialGradient id="paint27_radial_1_4080" cx="0" cy="0" r="1" gradientUnits="userSpaceOnUse" gradientTransform="translate(85.2451 77.7472) scale(5.2215 5.2215)">
<stop stop-color="#317AFF"/>
<stop offset="0.1" stop-color="#2967D7"/>
<stop offset="0.29" stop-color="#1D4897"/>
<stop offset="0.47" stop-color="#132E61"/>
<stop offset="0.64" stop-color="#0B1A37"/>
<stop offset="0.78" stop-color="#050C19"/>
<stop offset="0.91" stop-color="#010307"/>
<stop offset="1"/>
</radialGradient>
<radialGradient id="paint28_radial_1_4080" cx="0" cy="0" r="1" gradientUnits="userSpaceOnUse" gradientTransform="translate(78.2562 63.5521) scale(4.84797)">
<stop stop-color="#317AFF"/>
<stop offset="0.1" stop-color="#2967D7"/>
<stop offset="0.29" stop-color="#1D4897"/>
<stop offset="0.47" stop-color="#132E61"/>
<stop offset="0.64" stop-color="#0B1A37"/>
<stop offset="0.78" stop-color="#050C19"/>
<stop offset="0.91" stop-color="#010307"/>
<stop offset="1"/>
</radialGradient>
<radialGradient id="paint29_radial_1_4080" cx="0" cy="0" r="1" gradientUnits="userSpaceOnUse" gradientTransform="translate(78.8619 40.5646) rotate(36.0694) scale(2.87955 1.89084)">
<stop stop-color="#317AFF"/>
<stop offset="0.1" stop-color="#2967D7"/>
<stop offset="0.29" stop-color="#1D4897"/>
<stop offset="0.47" stop-color="#132E61"/>
<stop offset="0.64" stop-color="#0B1A37"/>
<stop offset="0.78" stop-color="#050C19"/>
<stop offset="0.91" stop-color="#010307"/>
<stop offset="1"/>
</radialGradient>
<radialGradient id="paint30_radial_1_4080" cx="0" cy="0" r="1" gradientUnits="userSpaceOnUse" gradientTransform="translate(44.6617 79.2778) scale(5.2215 5.22151)">
<stop stop-color="#317AFF"/>
<stop offset="0.1" stop-color="#2967D7"/>
<stop offset="0.29" stop-color="#1D4897"/>
<stop offset="0.47" stop-color="#132E61"/>
<stop offset="0.64" stop-color="#0B1A37"/>
<stop offset="0.78" stop-color="#050C19"/>
<stop offset="0.91" stop-color="#010307"/>
<stop offset="1"/>
</radialGradient>
<linearGradient id="paint31_linear_1_4080" x1="81.4691" y1="45.7329" x2="81.4691" y2="36.51" gradientUnits="userSpaceOnUse">
<stop stop-color="#B000D9"/>
<stop offset="1" stop-color="#E05CFF"/>
</linearGradient>
<linearGradient id="paint32_linear_1_4080" x1="73.4853" y1="87.0417" x2="73.4853" y2="74.4617" gradientUnits="userSpaceOnUse">
<stop stop-color="#B8C2FF"/>
<stop offset="1" stop-color="#7D72B3"/>
</linearGradient>
<linearGradient id="paint33_linear_1_4080" x1="81.1711" y1="55.8281" x2="81.1711" y2="39.1473" gradientUnits="userSpaceOnUse">
<stop stop-color="#81A9CE"/>
<stop offset="1" stop-color="#5B729C"/>
</linearGradient>
<radialGradient id="paint34_radial_1_4080" cx="0" cy="0" r="1" gradientUnits="userSpaceOnUse" gradientTransform="translate(55.2337 50.8929) rotate(-33.2153) scale(11.6482 7.46324)">
<stop stop-color="#06FEFF"/>
<stop offset="0.17" stop-color="#05C4C5"/>
<stop offset="0.4" stop-color="#037F80"/>
<stop offset="0.6" stop-color="#024849"/>
<stop offset="0.78" stop-color="#012121"/>
<stop offset="0.92" stop-color="#000909"/>
<stop offset="1"/>
</radialGradient>
</defs>
</svg>
