<svg width="130" height="130" viewBox="0 0 130 130" fill="none" xmlns="http://www.w3.org/2000/svg">
<path fill-rule="evenodd" clip-rule="evenodd" d="M1.99861 39.4233C1.94242 39.4895 1.91458 39.5752 1.9211 39.6618C2.1155 39.7918 2.71299 39.6546 2.67482 39.3565C2.65455 39.2086 2.47566 39.1597 2.35162 39.1442C2.0964 39.112 1.96642 39.3362 1.83643 39.5258L1.99861 39.4233Z" fill="#FFC445"/>
<path fill-rule="evenodd" clip-rule="evenodd" d="M78.9567 91.1199L91.4972 91.8355C91.4972 91.8355 101.88 88.706 107.059 82.1131L109.494 68.3835L105.47 55.8238L83.6043 69.8099C83.6043 69.8099 78.643 86.5855 78.9567 91.1199Z" fill="url(#paint0_linear_1_3636)"/>
<path fill-rule="evenodd" clip-rule="evenodd" d="M106.447 65.0771C106.452 70.4219 105.402 75.7151 103.359 80.6539C101.315 85.5926 98.3179 90.0798 94.5382 93.8588C90.7585 97.6377 86.2706 100.634 81.3314 102.677C76.3923 104.719 71.0988 105.767 65.754 105.762C65.0325 105.762 64.3026 105.745 63.5894 105.702H63.581C62.516 105.649 61.4593 105.547 60.4205 105.418C52.76 104.415 45.5473 101.237 39.6364 96.2622C35.8236 93.0541 32.6202 89.1849 30.18 84.8403C29.9307 84.3931 29.691 83.9387 29.4501 83.4831C29.4501 83.4652 29.4418 83.4568 29.4334 83.4401C29.1842 82.95 28.9564 82.461 28.7286 81.9625H28.7202C28.0078 80.4011 27.3994 78.7942 26.8991 77.1525C26.519 75.9559 26.2006 74.7406 25.945 73.5114C25.9382 73.5013 25.9352 73.489 25.9366 73.4768C25.7565 72.6098 25.6015 71.7332 25.481 70.853C25.2048 68.9413 25.0669 67.0122 25.0684 65.0807C25.0684 63.956 25.1113 62.8314 25.2151 61.7317C25.2663 61.0269 25.3439 60.3316 25.4381 59.6363C25.9531 55.7079 27.05 51.8781 28.6928 48.2728C31.9263 41.1548 37.14 35.1178 43.7116 30.8826C50.2832 26.6475 57.9348 24.3933 65.7528 24.3891C66.1822 24.3891 66.6115 24.3974 67.0325 24.4058C67.4881 24.4224 67.9425 24.4403 68.3981 24.4749C70.6993 24.6229 72.9836 24.9676 75.226 25.5054C76.514 25.8143 77.777 26.1744 79.0138 26.605C79.8558 26.8876 80.6835 27.2013 81.4956 27.5495C82.1051 27.8072 82.6978 28.0731 83.2846 28.357C83.3884 28.4082 83.4909 28.4512 83.5935 28.5025C87.5212 30.4233 91.1145 32.9635 94.2354 36.0256C94.6815 36.4562 95.1108 36.9022 95.5402 37.3578C95.824 37.6667 96.1079 37.9839 96.3822 38.3024C96.8593 38.8343 97.31 39.3924 97.7561 39.9506C101.31 44.4697 103.863 49.6929 105.246 55.2736C106.044 58.4803 106.447 61.7726 106.447 65.0771Z" fill="url(#paint1_radial_1_3636)"/>
<path style="mix-blend-mode:multiply" opacity="0.71" fill-rule="evenodd" clip-rule="evenodd" d="M42.1998 61.9212C42.1998 61.9212 49.395 68.3543 51.1851 71.0043C52.9753 73.6543 58.9957 91.7491 59.1591 95.5536C59.3225 99.3581 55.7159 104.508 55.7159 104.508C55.7159 104.508 49.6073 102.788 46.1928 100.75L48.256 86.5336L42.1998 61.9212Z" fill="url(#paint2_linear_1_3636)"/>
<path style="mix-blend-mode:multiply" opacity="0.71" fill-rule="evenodd" clip-rule="evenodd" d="M84.6788 73.8864L95.9362 79.4643C95.9362 79.4643 98.1688 80.9682 100.826 78.1524C100.826 78.1524 101.092 74.2286 99.4652 70.4432L84.6788 73.8864Z" fill="url(#paint3_linear_1_3636)"/>
<g style="mix-blend-mode:multiply" opacity="0.3">
<path fill-rule="evenodd" clip-rule="evenodd" d="M43.3725 64.0576C42.453 67.9707 43.0374 72.0769 44.4519 75.8051C44.7572 76.6101 45.0852 77.6442 45.5849 78.3693C45.9785 78.9406 46.6451 79.284 47.1866 79.6955C47.9022 80.2417 48.5546 80.8619 49.2582 81.42C50.0561 82.0545 50.8671 82.4421 51.8308 82.7844C53.6615 83.4356 55.4993 83.9234 57.4362 83.3497C59.2123 82.7916 60.7524 81.6588 61.8143 80.1296C62.2771 79.4438 62.8126 78.8356 63.3004 78.1725C63.7881 77.5094 64.0851 76.6924 64.3833 75.9423C64.9796 74.4562 65.1644 72.5742 65.0595 70.9845C65.0186 70.2209 64.9092 69.4625 64.7327 68.7185C64.5383 67.9468 64.1853 67.2312 64.0374 66.4453C63.7988 65.1584 63.2204 64.0159 62.704 62.8101C61.4243 59.8202 58.0993 58.0324 55.0342 57.5876C53.5947 57.3789 52.1719 57.7068 50.755 57.9299C49.2606 58.1612 48.1729 58.8541 46.8443 59.5065C46.0608 59.8906 45.2939 60.3187 44.7333 61.0009C43.4059 62.6086 43.2139 64.8746 43.3725 64.0576Z" fill="#7D72B3"/>
<path fill-rule="evenodd" clip-rule="evenodd" d="M55.6494 85.7154C56.3411 85.0928 57.2809 84.3856 58.1694 84.0731C58.7777 83.8585 59.3478 84.091 59.8451 84.4464C60.8481 85.162 60.6561 86.8317 59.863 87.6785C58.4152 89.2289 55.6888 87.9898 55.6983 86.0183L55.6494 85.7154Z" fill="#7D72B3"/>
<path fill-rule="evenodd" clip-rule="evenodd" d="M69.6865 72.7325C69.2882 72.191 69.0103 72.0169 69.0306 71.4719C69.0473 71.0664 69.5076 70.2935 69.7163 69.9047C70.3385 68.7514 71.3879 67.8878 72.6395 67.4992C73.4946 67.2234 74.3874 67.0825 75.2859 67.0818C76.1208 67.0818 76.8102 67.3203 77.5949 67.5731C79.0177 68.0335 80.5896 68.7908 81.6356 69.9035C82.6207 70.9495 82.4776 72.8398 81.6153 73.9072C80.9546 74.723 79.9957 75.2191 79.1239 75.7749C78.1698 76.3867 77.1238 77.1679 76.023 77.472C75.3074 77.6688 74.7946 77.7702 74.0909 77.5627C73.4508 77.3853 72.8297 77.1456 72.2364 76.8471C71.6675 76.5573 71.2369 76.438 70.7718 75.9836C70.3655 75.598 70.0165 75.1562 69.7354 74.6717C69.3275 73.9693 69.4695 73.0951 69.6865 72.7325Z" fill="#7D72B3"/>
<path fill-rule="evenodd" clip-rule="evenodd" d="M66.5906 65.3579C66.426 65.8862 66.0659 66.9524 67.02 66.894C67.4529 66.8666 68.1005 66.4992 68.3319 66.2309C69.286 65.1217 67.008 64.374 66.8077 65.3579H66.5906Z" fill="#7D72B3"/>
<path fill-rule="evenodd" clip-rule="evenodd" d="M80.7819 91.9619C80.3263 91.0078 80.2249 90.6404 80.535 89.6219C81.0389 88.0267 81.7189 86.4927 82.5625 85.0481C83.0729 84.1727 83.7038 82.9825 84.6675 82.5639C85.4673 82.2252 86.3185 82.0236 87.1852 81.9676C89.0183 81.8483 90.4339 82.7201 91.7375 83.9295C92.5425 84.6748 93.2127 85.2962 93.6791 86.3147C94.0846 87.1985 94.3243 88.3661 94.2301 89.3345C93.9605 92.0919 91.5598 94.0454 89.7827 95.9286C88.3802 97.4146 86.0391 99.2811 83.853 98.4868C82.3431 97.937 81.4402 96.3341 80.8225 94.9423C80.4158 94.0227 80.5649 92.9482 80.7819 91.9619Z" fill="#7D72B3"/>
<path fill-rule="evenodd" clip-rule="evenodd" d="M78.3974 84.7402C77.8643 85.1755 77.6818 85.7086 77.5554 86.3944C77.4599 86.8917 77.256 87.9973 77.7426 88.4016C78.1707 88.7594 78.9579 88.1631 79.3002 87.9365C79.5795 87.7569 79.828 87.5334 80.036 87.2745C80.1553 87.1338 80.3115 87.011 80.3807 86.838C80.4904 86.5613 80.4499 86.1749 80.4379 85.8839C80.4224 85.519 80.2149 85.2232 79.9609 84.9811C79.7462 84.7748 79.5661 84.7223 79.2739 84.6615C78.959 84.5923 78.5691 84.4635 78.3974 84.7402Z" fill="#7D72B3"/>
<path fill-rule="evenodd" clip-rule="evenodd" d="M62.9015 102.624C62.843 102.784 62.7822 102.884 62.8693 103.038C62.9564 103.192 63.2271 103.416 63.3404 103.515C63.7542 103.898 64.1979 104.012 64.7393 104.127C65.2808 104.241 65.8223 104.309 66.3613 104.201C66.7036 104.132 67.1413 104.055 67.3679 103.763C67.7865 103.221 67.4395 102.404 67.1604 101.885C66.9481 101.488 66.6463 101.132 66.4019 100.753C66.1203 100.352 65.7802 99.9946 65.3929 99.6939C64.9337 99.3099 64.2229 98.7863 63.6302 99.2168C63.0708 99.6176 62.7607 100.343 62.6128 100.991C62.5292 101.372 62.5511 101.768 62.6761 102.136C62.7667 102.39 62.948 102.561 62.9015 102.624Z" fill="#7D72B3"/>
<path fill-rule="evenodd" clip-rule="evenodd" d="M95.9104 86.8395C95.5884 86.57 95.4667 86.5557 95.5013 86.1871C95.5182 85.7996 95.5906 85.4164 95.716 85.0494C96.0332 84.2503 96.6952 83.5884 97.3284 83.029C97.6984 82.7228 98.1263 82.4944 98.5867 82.3576C98.8252 82.2777 99.0184 82.1823 99.2665 82.2168C99.4609 82.2399 99.644 82.3203 99.7927 82.4477C99.9413 82.5751 100.049 82.7438 100.101 82.9324C100.306 83.5574 99.9976 84.2527 99.6589 84.7655C99.2247 85.4203 98.8848 86.1609 98.1955 86.5914C97.8771 86.7906 97.5431 86.9862 97.2068 87.1532C97.0029 87.2545 96.7762 87.3607 96.5413 87.3321C96.3743 87.313 95.8639 87.1818 95.9104 86.8395Z" fill="#7D72B3"/>
<path fill-rule="evenodd" clip-rule="evenodd" d="M29.4867 58.6317C29.5726 58.9895 29.5893 59.3651 29.705 59.7158C29.9435 60.4314 30.4611 61.0515 30.9942 61.5739C32.008 62.565 33.4523 62.9705 34.8107 63.2436C35.5267 63.4008 36.2557 63.4918 36.9885 63.5155C37.5728 63.5227 38.193 63.6467 38.7774 63.6014C39.7449 63.5332 40.6837 63.2426 41.5205 62.7522C42.7608 62.0176 43.7757 60.875 43.3678 59.3651C43.1436 58.5386 42.5974 57.8314 41.9999 57.2434C41.3475 56.6018 40.8227 55.9315 39.9724 55.5439C39.5991 55.3734 39.2175 55.1993 38.8347 55.0478C38.3755 54.8641 37.9413 54.6125 37.45 54.5278C37.0421 54.4562 36.6223 54.3 36.2109 54.2797C35.7975 54.2579 35.3832 54.2622 34.9705 54.2929C33.5047 54.4121 31.9889 55.2696 30.9751 56.3132C30.5732 56.7258 30.2298 57.1898 29.8279 57.5989C29.4462 57.9781 29.4867 58.4325 29.4867 58.6317Z" fill="#7D72B3"/>
<path fill-rule="evenodd" clip-rule="evenodd" d="M59.6292 48.4012C59.2237 49.0357 59.0734 49.1788 59.015 49.9206C58.9339 50.8454 59.0092 51.7772 59.2379 52.6768C59.7711 54.7806 61.4205 56.4778 62.8278 58.0628C65.1379 60.6639 67.7403 63.0325 70.9163 64.5233C72.1662 65.1101 73.49 65.778 74.9187 65.5895C76.3058 65.407 77.5628 64.8882 78.8843 64.4672C80.0435 64.0987 81.2898 63.7517 82.4944 63.5907C83.0597 63.5131 83.625 63.438 84.1915 63.3748C85.0168 63.2842 85.7133 62.9538 86.4993 62.7224C87.637 62.3885 88.8213 62.1857 89.9484 61.8244C90.4637 61.6577 90.964 61.4479 91.4439 61.197C92.2323 60.7892 93.0767 60.5459 93.8603 60.1141C96.7607 58.5148 98.7405 55.3137 98.8955 51.9791C98.9743 50.2796 98.3529 48.5026 97.499 47.0583C97.0148 46.239 96.4017 45.5079 95.8662 44.716C95.1648 43.707 94.3593 42.7744 93.4631 41.9335C91.8149 40.3557 89.9579 39.3372 87.7861 38.6669C86.6355 38.3066 85.4353 38.1299 84.2297 38.1433C82.3108 38.1493 80.3548 38.4141 78.4728 38.7933C76.5909 39.1726 74.6826 39.5757 72.8329 40.0981C70.8829 40.6479 68.9198 41.4792 67.0867 42.3355C65.1976 43.2192 63.5494 44.3916 62.34 46.1066C62.0669 46.4918 61.7533 46.8615 61.4945 47.2515C61.2905 47.558 61.1784 47.7977 60.8802 48.0196C60.3352 48.4239 59.8319 48.5133 59.6292 48.4012Z" fill="#7D72B3"/>
</g>
<path style="mix-blend-mode:multiply" opacity="0.71" fill-rule="evenodd" clip-rule="evenodd" d="M100.506 55.775L106.446 65.0775C106.446 65.0775 106.635 58.8591 105.761 57.6069C104.886 56.3546 100.506 55.775 100.506 55.775Z" fill="url(#paint4_linear_1_3636)"/>
<path style="mix-blend-mode:multiply" opacity="0.71" fill-rule="evenodd" clip-rule="evenodd" d="M29.7039 48.7539C29.7039 48.7539 41.3237 56.2556 73.1051 54.8364L85.9009 55.8215C85.9009 55.8215 98.0659 51.6854 100.822 44.4163C100.822 44.4163 97.231 39.2379 96.389 38.2933C95.547 37.3487 80.5841 40.5784 80.5841 40.5784L29.7039 48.7539Z" fill="url(#paint5_linear_1_3636)"/>
<path fill-rule="evenodd" clip-rule="evenodd" d="M31.4165 40.8937V38.5323C31.4165 38.5323 37.84 30.2267 48.4175 21.1042C48.4175 21.1042 75.9198 18.6724 83.7303 21.1042L86.8228 28.1754L95.9358 31.634L96.389 38.2973C96.389 38.2973 90.4031 47.811 79.5 51.1325L73.9841 49.8206C73.9841 49.8206 67.9458 52.3251 51.9978 52.3251C35.704 52.3251 29.7039 48.7555 29.7039 48.7555V43.2873L31.4165 40.8937Z" fill="url(#paint6_linear_1_3636)"/>
<path fill-rule="evenodd" clip-rule="evenodd" d="M54.4369 92.4547L51.7665 99.4292L43.5302 101.386L35.1996 101.009C35.1996 101.009 26.361 95.4041 22.1271 86.5368L23.0466 78.4722L19.9196 75.5872C19.9196 75.5872 19.1646 68.0545 25.4343 61.1754C25.4343 61.1754 32.3516 59.2516 42.1992 61.922L48.2709 68.6556C48.2709 68.6556 53.243 78.143 54.4369 92.4547Z" fill="url(#paint7_linear_1_3636)"/>
<path style="mix-blend-mode:multiply" opacity="0.71" fill-rule="evenodd" clip-rule="evenodd" d="M65.2621 97.2231C65.2621 97.2231 67.1321 99.6943 68.2711 100.182C69.4101 100.67 75.7561 102.134 76.4884 102.053C77.2207 101.972 77.2206 95.2708 76.814 94.1819C76.5358 93.4795 76.1517 92.8239 75.675 92.2379L65.2621 97.2231Z" fill="url(#paint8_linear_1_3636)"/>
<path fill-rule="evenodd" clip-rule="evenodd" d="M111.142 46.7585L110.824 49.4121L106.195 58.0348C103.601 58.104 100.835 56.0336 100.509 55.776C100.5 55.7676 100.484 55.7593 100.474 55.7509C98.6195 52.7276 97.9695 46.0798 97.9695 46.0798L100.133 43.4083L103.681 42.7643L104.574 43.2891L107.717 42.4041L110.182 43.976L110.912 44.4531L111.142 46.7585Z" fill="url(#paint9_linear_1_3636)"/>
<path fill-rule="evenodd" clip-rule="evenodd" d="M101.453 59.7015C101.453 59.7015 96.2816 56.8714 93.758 56.9668L87.3058 61.3867C87.3058 61.3867 84.682 68.4996 84.682 73.8867C84.682 73.8867 90.9028 76.1289 95.2774 75.5135C95.2774 75.5135 100.275 73.2904 102.002 69.6386C101.997 69.6386 102.673 63.3724 101.453 59.7015Z" fill="url(#paint10_linear_1_3636)"/>
<path fill-rule="evenodd" clip-rule="evenodd" d="M31.4165 38.5335C31.4165 38.5335 43.3739 38.9247 56.5549 35.5424C56.5549 35.5424 69.8981 30.8613 72.5017 29.07C75.1052 27.2786 83.7304 21.1055 83.7304 21.1055C83.7304 21.1055 70.0615 17.6982 48.4175 21.1055C48.4175 21.1055 37.035 29.609 31.4165 38.5335Z" fill="url(#paint11_linear_1_3636)"/>
<path fill-rule="evenodd" clip-rule="evenodd" d="M86.8226 28.1764C86.8226 28.1764 78.5231 37.7449 77.5463 38.5333C76.5695 39.3216 63.0462 44.7684 63.0462 44.7684L55.4133 46.7267C55.4133 46.7267 64.9604 46.648 66.5871 46.7267L69.6248 43.769L80.1475 44.2019C80.1475 44.2019 89.8078 38.377 95.9332 31.6339L86.8226 28.1764Z" fill="url(#paint12_linear_1_3636)"/>
<path fill-rule="evenodd" clip-rule="evenodd" d="M29.7039 43.287L38.1656 44.0921C38.1656 44.0921 43.808 44.3365 47.0615 43.2381C47.0615 43.2381 35.7314 42.6847 31.4165 40.8934L29.7039 43.287Z" fill="url(#paint13_linear_1_3636)"/>
<path fill-rule="evenodd" clip-rule="evenodd" d="M87.3076 61.3864C87.3076 61.3864 91.0048 62.7722 93.433 62.6088C95.8612 62.4455 101.455 59.7012 101.455 59.7012C101.455 59.7012 98.8917 57.4602 93.7598 56.9665L87.3076 61.3864Z" fill="url(#paint14_linear_1_3636)"/>
<path fill-rule="evenodd" clip-rule="evenodd" d="M19.9177 75.5917C19.9177 75.5917 31.0892 73.1503 34.1566 71.9171C37.2241 70.684 42.195 61.9228 42.195 61.9228C42.195 61.9228 36.0577 59.0748 25.4337 61.1715C25.4337 61.1763 18.8133 67.3362 19.9177 75.5917Z" fill="url(#paint15_linear_1_3636)"/>
<path fill-rule="evenodd" clip-rule="evenodd" d="M23.048 78.4751C23.048 78.4751 30.8729 77.447 33.6351 76.6861C36.3972 75.9252 40.7229 73.2513 40.7229 73.2513C40.7229 73.2513 37.4086 80.7972 36.2123 82.505C36.2123 82.505 26.9097 86.0078 22.1273 86.5361C22.1273 86.5385 21.8804 82.338 23.048 78.4751Z" fill="url(#paint16_linear_1_3636)"/>
<path fill-rule="evenodd" clip-rule="evenodd" d="M64.8529 95.3628C64.8529 95.3628 66.6419 91.4426 68.7588 90.6054C68.7588 90.6054 73.8037 90.6519 75.6761 92.244L74.456 99.6718L67.4588 99.1947C67.4588 99.1947 64.8529 97.8661 64.8529 95.3628Z" fill="url(#paint17_linear_1_3636)"/>
<path fill-rule="evenodd" clip-rule="evenodd" d="M64.8529 95.3621C64.8529 95.3621 67.0509 95.993 69.0844 95.3621C71.1178 94.7312 73.6414 91.4478 73.6414 91.4478C73.6414 91.4478 72.0135 90.384 68.7588 90.6046C68.7588 90.6046 65.423 92.006 64.8529 95.3621Z" fill="url(#paint18_linear_1_3636)"/>
<path style="mix-blend-mode:multiply" opacity="0.5" fill-rule="evenodd" clip-rule="evenodd" d="M54.4365 92.4524L51.7662 99.4269L43.5298 101.384L35.1993 101.007C35.1993 101.007 43.4523 100.5 43.7015 99.2802C43.9508 98.0602 44.5089 94.5657 44.5089 94.5657C42.4815 88.4678 36.2118 82.507 36.2118 82.507C38.8356 78.8098 40.7212 73.2485 40.7212 73.2485L37.1659 75.2319L34.8462 71.5347C38.6936 68.1071 42.1989 61.9232 42.1989 61.9232L48.2705 68.6569C48.2705 68.6569 53.2427 78.1407 54.4365 92.4524Z" fill="url(#paint19_linear_1_3636)"/>
<path style="mix-blend-mode:multiply" opacity="0.5" fill-rule="evenodd" clip-rule="evenodd" d="M70.5339 94.5693L74.4554 99.669L75.6754 92.2413L73.642 91.4458L70.5339 94.5693Z" fill="url(#paint20_linear_1_3636)"/>
<path style="mix-blend-mode:multiply" opacity="0.71" fill-rule="evenodd" clip-rule="evenodd" d="M93.4327 62.6081C93.4327 62.6081 94.7972 67.3118 94.9594 69.263C95.1215 71.2142 95.2802 75.5172 95.2802 75.5172C95.2802 75.5172 99.0346 74.2482 102.004 69.6423C102.004 69.6423 102.787 64.2754 101.46 59.7052C101.454 59.7004 96.5443 62.2205 93.4327 62.6081Z" fill="url(#paint21_linear_1_3636)"/>
<path style="mix-blend-mode:multiply" opacity="0.5" fill-rule="evenodd" clip-rule="evenodd" d="M101.195 46.8411L102.186 47.6175C102.186 47.6175 104.347 46.7385 104.417 45.6234C104.487 44.5083 104.565 43.2882 104.565 43.2882L103.679 42.7634L101.195 46.8411Z" fill="url(#paint22_linear_1_3636)"/>
<path style="mix-blend-mode:multiply" opacity="0.71" fill-rule="evenodd" clip-rule="evenodd" d="M111.142 46.7591L110.824 49.4127L106.195 58.0355C103.601 58.1047 100.836 56.0343 100.509 55.7766C101.936 56.6925 103.597 57.1785 105.293 57.1768C105.293 57.1768 105.456 54.454 105.293 52.745C105.129 51.0359 103.902 47.6166 103.902 47.6166L110.18 43.9755L110.91 44.4525L111.142 46.7591Z" fill="url(#paint23_linear_1_3636)"/>
<path fill-rule="evenodd" clip-rule="evenodd" d="M103.681 42.7634L101.196 46.8411C101.196 46.8411 99.7043 47.2334 97.9655 46.0813L100.129 43.4086L103.681 42.7634Z" fill="url(#paint24_linear_1_3636)"/>
<path fill-rule="evenodd" clip-rule="evenodd" d="M104.565 43.2868L104.417 45.622C104.417 45.622 103.147 47.2738 101.469 47.9882C101.469 47.9882 104.689 47.6376 106.181 46.9864C106.181 46.9864 110.052 45.436 110.911 44.4425L107.714 42.3995L104.565 43.2868Z" fill="url(#paint25_linear_1_3636)"/>
<path style="mix-blend-mode:multiply" opacity="0.5" fill-rule="evenodd" clip-rule="evenodd" d="M57.5743 35.0583L65.7595 43.668L77.5475 38.5396C77.5475 38.5396 86.1726 29.0808 86.8238 28.1828L83.7313 21.1116C83.7313 21.1116 75.2695 26.9615 72.5026 29.0761C69.7357 31.1906 57.5743 35.0583 57.5743 35.0583Z" fill="url(#paint26_linear_1_3636)"/>
<path style="mix-blend-mode:multiply" opacity="0.5" fill-rule="evenodd" clip-rule="evenodd" d="M69.627 43.7694L73.9837 49.8256C73.9837 49.8256 70.6622 50.9419 67.1332 51.376L66.5894 46.7247L69.627 43.7694Z" fill="url(#paint27_linear_1_3636)"/>
<path style="mix-blend-mode:multiply" opacity="0.5" fill-rule="evenodd" clip-rule="evenodd" d="M80.1495 44.1999L79.4995 51.1303C79.4995 51.1303 90.9297 47.0348 96.3884 38.2951L95.9353 31.6271C95.9353 31.6271 87.2195 39.8348 80.1495 44.1999Z" fill="url(#paint28_linear_1_3636)"/>
<path style="mix-blend-mode:multiply" opacity="0.2" fill-rule="evenodd" clip-rule="evenodd" d="M32.8363 43.5859L40.722 51.8807H44.641L45.3566 43.6658C45.3566 43.6658 36.5108 44.4887 32.8363 43.5859Z" fill="url(#paint29_linear_1_3636)"/>
<g style="mix-blend-mode:soft-light">
<path fill-rule="evenodd" clip-rule="evenodd" d="M34.5863 35.8487C34.4217 35.3955 34.5314 35.2309 34.7807 34.8123C35.1719 34.1528 35.7098 33.6006 36.1844 33.0043C37.1063 31.8438 38.0926 30.7621 39.333 29.9284C40.6163 29.065 41.8745 28.1311 43.2305 27.3845C44.156 26.8753 45.0922 26.3529 46.0929 25.9903C46.7941 25.7351 47.524 25.5336 48.2396 25.3165C49.6374 24.8919 51.5432 24.7059 52.8909 25.4215C53.7126 25.858 54.0334 26.6654 54.3423 27.4978C54.4938 27.9081 54.6262 28.2611 54.5451 28.7084C54.4759 29.0984 54.2779 29.5027 54.1062 29.8533C53.5397 31.0054 52.4926 32.0621 51.5098 32.8671C49.5062 34.5117 47.2342 35.6984 44.7881 36.5297C44.1334 36.7515 43.4762 36.9984 42.8024 37.1594C42.3659 37.2632 41.9186 37.3109 41.4833 37.4182C40.4709 37.6853 39.4417 37.8846 38.4027 38.0145C38.1189 38.0455 37.7981 38.1445 37.5178 38.1433C37.2614 38.1433 37.0133 37.9823 36.7629 37.9394C36.3431 37.8666 35.7467 37.8821 35.3711 37.6758C34.3657 37.1212 34.2464 36.0347 34.5863 35.8487Z" fill="#FFA989"/>
<path fill-rule="evenodd" clip-rule="evenodd" d="M51.2924 34.6563C51.383 34.2341 51.3579 34.2151 51.6239 33.9765C51.7741 33.7598 51.9473 33.5599 52.1403 33.3802C52.3845 33.1694 52.6513 32.9862 52.9358 32.834C53.7587 32.3784 54.7605 31.8679 55.723 32.1506C56.3706 32.3402 56.7367 32.6539 56.5864 33.3623C56.5006 33.7607 56.1679 34.165 55.8566 34.4118C55.296 34.8555 54.6568 35.1203 54.002 35.397C53.5059 35.6057 52.7796 35.7297 52.2393 35.6104C51.7479 35.5019 51.2244 34.9688 51.2924 34.6563Z" fill="#FFA989"/>
<path fill-rule="evenodd" clip-rule="evenodd" d="M65.5051 22.9384C64.7561 23.177 64.359 23.3201 63.7364 23.7435C62.8097 24.3744 61.8151 25.0077 60.9683 25.7423C60.4116 26.2121 59.9316 26.7658 59.5455 27.3834C59.2581 27.8664 59.165 28.4413 59.1221 28.997C59.0792 29.5528 59.2593 30.5904 59.8794 30.8468C60.118 30.9446 60.5462 30.8576 60.7823 30.8588C61.3067 30.8549 61.8283 30.7802 62.3327 30.6369C62.8575 30.5069 63.387 30.4723 63.9082 30.3173C64.4294 30.1623 64.9672 30.0144 65.5027 29.8808C66.6596 29.5934 67.7795 29.3167 68.86 28.8074C69.8821 28.3208 70.9424 27.9177 71.9442 27.3894C72.6681 27.0077 73.3753 26.6189 74.1195 26.2826C75.15 25.8163 76.1816 25.3595 77.1727 24.8169C77.561 24.593 77.9116 24.3092 78.2115 23.976C78.5371 23.6457 78.9271 23.3642 79.1656 22.9599C79.2741 22.7798 79.5234 22.4399 79.5234 22.2145C79.5138 21.9271 79.1012 21.5741 78.8877 21.4405C78.4784 21.2089 78.0265 21.0625 77.5591 21.01C76.9044 20.912 76.2423 20.8721 75.5805 20.8907C74.7828 20.9465 73.9891 21.0497 73.2036 21.1996C72.6968 21.2962 72.2495 21.4202 71.7271 21.4274C70.8083 21.4375 69.8915 21.5148 68.984 21.6587C68.4581 21.7434 67.95 21.9259 67.4336 22.0714C66.9697 22.2038 66.4735 22.3004 66.0346 22.5079C65.814 22.6093 65.0125 22.7882 65.5051 22.9384Z" fill="#FFA989"/>
<path fill-rule="evenodd" clip-rule="evenodd" d="M63.336 21.4196C62.8386 21.6582 62.0992 21.911 61.7963 22.431C61.5983 22.7709 61.8738 22.8377 62.1755 22.8401C62.7074 22.8401 63.2489 22.5896 63.7642 22.4501C64.1733 22.3362 64.5592 22.1514 64.9043 21.9038C65.0605 21.7846 65.3742 21.6761 65.2692 21.4411C65.2072 21.3028 64.884 21.1561 64.7493 21.1155C64.4899 21.0392 64.2159 21.0271 63.9509 21.08C63.6858 21.133 63.4376 21.2495 63.2275 21.4196H63.336Z" fill="#FFA989"/>
<path fill-rule="evenodd" clip-rule="evenodd" d="M81.1257 37.15C80.6736 37.2967 80.224 37.3754 79.7827 37.5078C79.3414 37.6402 78.9217 37.93 78.5412 38.1995C77.8829 38.6658 77.1708 39.2622 76.7737 39.9742C76.4421 40.5705 76.082 41.6522 76.7809 42.1412C77.7433 42.8126 79.2437 42.1304 80.2038 41.812C81.7101 41.3123 83.3678 40.7315 84.6439 39.7535C85.1882 39.3184 85.7097 38.8554 86.2063 38.3665C86.6365 37.9562 87.0352 37.5141 87.3989 37.0438C87.6542 36.7111 87.6911 36.2519 87.647 35.8452C87.6028 35.4564 87.22 35.1404 86.8623 34.9997C86.1467 34.7182 85.5443 35.0533 84.8443 35.1666C84.1156 35.2859 83.2652 35.4982 82.6117 35.8679C81.617 36.4344 80.5675 36.9162 81.1257 37.15Z" fill="#FFA989"/>
<path fill-rule="evenodd" clip-rule="evenodd" d="M83.6217 33.1362C83.5026 32.9804 83.4262 32.7962 83.3999 32.6019C83.6193 32.5446 83.7445 32.2906 83.8936 32.1511C84.0276 32.0361 84.1779 31.9417 84.3396 31.8708C84.5996 31.7432 85.0695 31.5213 85.3629 31.6323C85.9235 31.8481 86.0582 32.3944 85.7696 32.9215C85.6237 33.1798 85.4195 33.4006 85.1734 33.5662C84.9272 33.7318 84.6459 33.8378 84.3516 33.8756C83.921 33.9317 82.9872 33.321 83.5167 32.813L83.6217 33.1362Z" fill="#FFA989"/>
<path fill-rule="evenodd" clip-rule="evenodd" d="M90.0208 31.6176C89.6487 31.6868 89.1395 31.6904 88.7924 31.8645C88.7185 31.9015 88.6218 32.0184 88.5455 32.0696C88.1722 32.3225 87.7477 32.524 87.409 32.8198C87.0392 33.1418 86.6301 33.7262 86.8233 34.2331C87.4924 35.991 89.9397 35.0107 91.0548 34.3881C91.4305 34.1794 91.6762 33.8777 92.0197 33.6296C92.2761 33.4436 92.4872 33.3028 92.6744 33.0333C92.9487 32.6433 93.0048 32.3809 92.814 31.9337C92.672 31.6009 92.325 31.3922 91.9791 31.3123C91.677 31.2267 91.3652 31.1802 91.0513 31.174C90.3071 31.2062 89.6702 31.6904 89.0488 32.0482L90.0208 31.6176Z" fill="#FFA989"/>
<path fill-rule="evenodd" clip-rule="evenodd" d="M26.0133 63.1849C24.3281 63.9756 22.835 65.2589 21.8856 66.8749C21.4656 67.5911 21.1116 68.344 20.8277 69.1242C20.6787 69.5345 20.6178 69.9662 20.458 70.3729C20.304 70.7135 20.1861 71.0693 20.1062 71.4344C19.9547 72.2967 19.548 74.0463 20.9327 74.1608C21.5528 74.2108 22.2768 74.0606 22.8815 73.9353C24.0741 73.6885 25.3168 73.2066 26.4176 72.689C27.6413 72.113 28.8792 71.4666 29.9335 70.6198C30.9282 69.8207 32.0421 69.1696 32.9426 68.2572C34.0159 67.1659 35.5759 65.3782 34.3606 63.8254C33.2133 62.3596 30.7362 62.6947 29.1309 62.8867C28.3712 62.9774 27.5268 62.9857 26.7874 63.2088C26.6027 63.2648 26.4238 63.3383 26.2531 63.4282C26.1398 63.4926 26.0419 63.619 26.0133 63.1849Z" fill="#FFA989"/>
<path fill-rule="evenodd" clip-rule="evenodd" d="M31.9822 70.4567C32.0931 70.0834 32.1313 69.9164 32.3985 69.66C32.6656 69.4036 32.9292 69.0983 33.1987 68.8252C33.6197 68.3911 34.5107 67.8866 35.1332 67.8496C35.4159 67.8341 35.7963 67.8412 36.0038 68.069C36.2113 68.2968 36.1231 68.7775 36.0038 69.0422C35.9067 69.2962 35.7491 69.5226 35.5446 69.7018C35.293 69.9212 34.9948 70.2361 34.7002 70.3935C34.288 70.5933 33.8574 70.7531 33.4146 70.8706C33.0711 70.9719 32.5416 71.1484 32.222 70.8706C32.0276 70.706 31.8451 70.3231 31.9822 70.4567Z" fill="#FFA989"/>
<path fill-rule="evenodd" clip-rule="evenodd" d="M27.3175 79.3519C26.9597 79.4342 26.4314 79.4795 26.1058 79.7097C25.8276 79.9276 25.5843 80.1866 25.3842 80.4778C24.9573 81.0383 24.5911 81.6418 24.1654 82.2047C23.8153 82.6769 23.4923 83.1687 23.1981 83.6776C22.9989 84.0175 22.888 84.336 23.0788 84.7033C23.5559 85.6204 25.0407 85.3986 25.8386 85.2066C26.6985 85.0003 27.4689 84.584 28.274 84.231C28.9979 83.9138 29.7529 83.6406 30.4494 83.265C31.648 82.6162 33.109 81.9531 33.7566 80.6817C34.0094 80.1844 34.106 79.7801 33.8878 79.2565C33.6814 78.7798 33.3158 78.3894 32.8537 78.1521C32.3695 77.8874 31.8424 77.947 31.3117 77.9434C30.5424 77.9398 29.7767 78.0479 29.0385 78.2642C28.5829 78.4014 28.1082 78.622 27.6681 78.8057C26.9907 79.0812 26.6424 79.6346 27.3175 79.3519Z" fill="#FFA989"/>
<path fill-rule="evenodd" clip-rule="evenodd" d="M23.0858 80.111C23.0596 79.9305 23.0653 79.7469 23.1025 79.5684C23.4221 79.4706 23.5605 79.1152 23.96 79.2368C24.251 79.3262 24.2987 79.6638 24.2259 79.8939C24.0804 80.3531 22.9558 81.3084 22.9772 80.3269L23.0858 80.111Z" fill="#FFA989"/>
<path fill-rule="evenodd" clip-rule="evenodd" d="M94.1453 58.4138C93.6038 58.4369 93.0635 58.4786 92.5244 58.5391C92.381 58.6555 92.2246 58.7547 92.0581 58.8348C91.5 59.1294 90.9931 59.3405 90.5077 59.7591C90.1165 60.0967 89.1958 60.6906 89.2494 61.3179C89.2995 61.894 90.1356 62.0049 90.5781 62.0073C91.0205 62.0096 91.4904 61.9083 91.9448 61.888C92.5745 61.8558 93.1959 61.7771 93.822 61.7019C94.6234 61.6053 95.4762 61.4551 96.1835 61.052C96.577 60.8321 96.9209 60.5332 97.1936 60.1742C97.3319 59.9989 97.5443 59.8235 97.5001 59.5779C97.4715 59.4157 97.1733 59.0901 97.0564 58.9815C96.8664 58.8303 96.654 58.7095 96.4268 58.6238C95.3987 58.1646 94.2061 58.5271 94.1453 58.4138Z" fill="#FFA989"/>
<path fill-rule="evenodd" clip-rule="evenodd" d="M67.5656 93.1298C67.1279 93.323 66.856 93.3683 66.6604 93.7738C66.5888 93.9241 66.3539 94.2449 66.3599 94.444C66.367 94.7148 66.6425 94.7017 66.8715 94.6408C67.1673 94.5609 67.4678 94.2914 67.7147 94.1304C67.9076 94.0051 68.0792 93.8497 68.2228 93.67C68.3158 93.5579 68.3969 93.4995 68.4279 93.3456C68.4589 93.1918 68.3826 93.082 68.5221 92.9878C68.4315 92.3593 67.246 93.2264 67.023 93.2335L67.5656 93.1298Z" fill="#FFA989"/>
<path fill-rule="evenodd" clip-rule="evenodd" d="M70.603 91.9358C69.928 92.2352 69.4724 92.4677 69.1277 93.1368C69.018 93.3479 68.9154 93.5674 69.0251 93.7808C69.3758 94.4642 70.1295 93.856 70.5183 93.5626C70.7855 93.361 71.0776 93.2191 71.309 92.9663C71.4128 92.8542 71.4831 92.7277 71.5785 92.6085C71.6739 92.4892 71.8326 92.3878 71.8875 92.259C71.996 92.005 71.8218 91.8118 71.5857 91.7378C71.1396 91.5983 70.8021 91.8917 70.3859 91.9334L70.603 91.9358Z" fill="#FFA989"/>
<path fill-rule="evenodd" clip-rule="evenodd" d="M35.1288 77.0676C34.9297 77.5005 34.2057 79.1261 35.1646 79.1165C35.9994 79.1094 37.3686 78.2066 37.4139 77.2858C37.4437 76.6704 36.9499 76.3711 36.3775 76.3055C35.6476 76.2208 35.2242 76.8004 34.9117 77.3932L35.1288 77.0676Z" fill="#FFA989"/>
<path fill-rule="evenodd" clip-rule="evenodd" d="M37.6248 63.0783C37.4375 63.3347 37.1728 63.5554 37.4364 63.8154C37.5558 63.9449 37.7163 64.0292 37.8907 64.0539C38.2569 64.1052 38.8019 63.7748 38.8198 63.4063C38.8256 63.2786 38.7984 63.1515 38.741 63.0373C38.6836 62.9231 38.5978 62.8255 38.4918 62.7539C38.1948 62.5369 37.9909 62.674 37.7333 62.8637L37.6248 63.0783Z" fill="#FFA989"/>
</g>
<path fill-rule="evenodd" clip-rule="evenodd" d="M47.6577 37.4526C47.6577 37.4526 52.5046 35.9618 53.5732 35.5444C54.6418 35.1269 60.0492 34.2456 60.0492 34.2456C60.0492 34.2456 64.6898 32.2527 65.9921 31.6397C67.2945 31.0266 70.6029 29.3999 70.6029 29.3999L74.4563 27.6336C74.4563 27.6336 71.8504 30.3075 69.5665 31.1829C67.2826 32.0583 61.4851 34.3899 61.4851 34.3899C61.4851 34.3899 59.7487 34.8741 57.3109 35.6624C54.8732 36.4508 47.6577 37.4526 47.6577 37.4526Z" fill="#FFBD4A"/>
<path fill-rule="evenodd" clip-rule="evenodd" d="M77.8311 44.1165L80.0577 45.1898C80.0577 45.1898 82.3583 43.8207 82.7185 42.5064C82.7185 42.5052 78.3606 43.705 77.8311 44.1165Z" fill="#FFAB4A"/>
<path fill-rule="evenodd" clip-rule="evenodd" d="M65.5437 46.7277L66.6635 47.3729L67.4722 45.8666L65.5437 46.7277Z" fill="#FFAB4A"/>
<path style="mix-blend-mode:multiply" opacity="0.71" fill-rule="evenodd" clip-rule="evenodd" d="M47.6577 61.22C47.6577 61.22 50.2887 63.8438 56.0646 65.6196C56.0646 65.6196 56.4725 65.1974 56.9603 62.7131C57.4481 60.2289 56.9603 59.3618 56.9603 59.3618C56.9603 59.3618 49.8677 60.2575 47.6577 61.22Z" fill="url(#paint30_linear_1_3636)"/>
<path style="mix-blend-mode:multiply" opacity="0.71" fill-rule="evenodd" clip-rule="evenodd" d="M51.5417 69.0786C51.5417 69.0786 51.6193 69.9564 51.9449 70.5598C52.2705 71.1633 55.9176 72.0733 56.4006 71.8718C57.2951 71.4973 56.2813 69.3207 55.9044 68.6695C55.616 68.2054 55.2812 67.7718 54.905 67.3755L51.5417 69.0786Z" fill="url(#paint31_linear_1_3636)"/>
<path fill-rule="evenodd" clip-rule="evenodd" d="M28.8916 84.971C28.8916 84.971 33.8267 82.767 35.3724 81.6567C36.918 80.5463 39.2401 76.5426 39.2401 76.5426L36.7559 82.7169L35.1016 83.3407L33.3377 83.7199L28.8916 84.971Z" fill="#FFAB4A"/>
<path fill-rule="evenodd" clip-rule="evenodd" d="M31.9337 72.6447L36.1306 70.2797C36.1306 70.2797 35.7347 71.6274 35.1336 71.99C34.5325 72.3525 31.9337 72.6447 31.9337 72.6447Z" fill="#FFAB4A"/>
<path fill-rule="evenodd" clip-rule="evenodd" d="M91.9729 62.5587L93.8334 64.0578C93.8334 64.0578 94.289 62.8318 94.3797 62.4406C94.4703 62.0494 91.9729 62.5587 91.9729 62.5587Z" fill="#FF864A"/>
<path fill-rule="evenodd" clip-rule="evenodd" d="M102.624 47.8349L105.291 46.975L107.631 46.3632C107.631 46.3632 105.018 47.7442 104.565 47.9887C104.112 48.2332 102.624 47.8349 102.624 47.8349Z" fill="#FFAB4A"/>
<path fill-rule="evenodd" clip-rule="evenodd" d="M100.506 46.9039L101.469 46.155V47.0554L100.506 46.9039Z" fill="#FFAB4A"/>
<path fill-rule="evenodd" clip-rule="evenodd" d="M68.3627 95.5326L71.5542 93.7198L71.1738 95.4038L68.3627 95.5326Z" fill="#FF864A"/>
<path fill-rule="evenodd" clip-rule="evenodd" d="M32.606 43.5901C32.606 43.5901 35.039 43.3921 36.4665 43.3921C37.8941 43.3921 40.7147 43.67 40.7147 43.67L43.4482 43.9383C43.4482 43.9383 41.8811 44.0659 38.5715 44.1208C36.5699 44.1522 34.5706 43.9743 32.606 43.5901Z" fill="#FFB14A"/>
<path fill-rule="evenodd" clip-rule="evenodd" d="M46.3027 58.9453C46.3027 58.9453 48.7977 56.1712 49.8806 55.7729C50.9636 55.3746 56.055 57.7002 56.9506 58.0306C57.8463 58.3609 55.2261 63.5167 54.5654 64.0558C53.9046 64.5948 46.4113 61.8637 46.3027 58.9453Z" fill="url(#paint32_linear_1_3636)"/>
<path fill-rule="evenodd" clip-rule="evenodd" d="M55.6478 70.5566C55.4153 71.2173 53.1433 70.8738 52.3239 70.5566L52.2643 70.522L52.0914 70.4027C52.0736 70.3924 52.0588 70.3776 52.0484 70.3598C51.4652 69.7635 51.3329 68.1188 51.7229 67.2506C51.7229 67.2506 53.7062 66.6412 54.4361 66.8988C54.9132 67.0622 55.3819 68.281 55.587 69.2948V69.3031C55.6907 69.8434 55.7254 70.3324 55.6478 70.5566Z" fill="url(#paint33_linear_1_3636)"/>
<path style="mix-blend-mode:multiply" opacity="0.5" fill-rule="evenodd" clip-rule="evenodd" d="M52.6715 60.5059L54.563 64.0563C54.563 64.0563 56.9852 61.4194 57.1355 58.3842L52.6715 60.5059Z" fill="url(#paint34_linear_1_3636)"/>
<path fill-rule="evenodd" clip-rule="evenodd" d="M28.2016 49.3995L23.6171 50.5122C23.6171 50.5122 22.8693 53.1635 22.9778 54.2702L25.8199 57.2793C25.8199 57.2793 26.7036 51.885 28.2016 49.3995Z" fill="url(#paint35_linear_1_3636)"/>
<path fill-rule="evenodd" clip-rule="evenodd" d="M46.3027 58.9467C47.8892 59.6811 49.5647 60.2055 51.2868 60.5067C54.0298 60.9635 57.1307 58.385 57.1307 58.385C57.1307 58.385 54.1897 55.7612 49.9594 55.2686C49.9594 55.2686 47.1972 56.8477 46.3027 58.9467Z" fill="url(#paint36_linear_1_3636)"/>
<path style="mix-blend-mode:multiply" opacity="0.5" fill-rule="evenodd" clip-rule="evenodd" d="M55.648 70.5566C55.4154 71.2173 53.1435 70.8738 52.3241 70.5566L52.2645 70.522L52.0915 70.4027L52.0403 70.3681L52.0486 70.3598L52.6676 69.5011L55.2103 68.8821L55.5872 69.2948V69.3031C55.6909 69.8434 55.7255 70.3324 55.648 70.5566Z" fill="url(#paint37_linear_1_3636)"/>
<path fill-rule="evenodd" clip-rule="evenodd" d="M51.7202 67.2439C51.7202 67.2439 51.6713 69.0626 52.4454 69.4264C53.2194 69.7901 54.9785 69.0579 55.2111 68.8826C55.4436 68.7072 54.6732 67.0459 54.0065 66.8324C53.3398 66.6189 51.7202 67.2439 51.7202 67.2439Z" fill="url(#paint38_linear_1_3636)"/>
<path style="mix-blend-mode:multiply" opacity="0.71" fill-rule="evenodd" clip-rule="evenodd" d="M91.2321 91.4788C91.2321 91.4788 90.365 91.3178 89.6959 91.4704C89.0269 91.6231 87.944 95.1175 87.944 95.6446C87.944 97.7079 90.3412 97.1223 91.0699 96.9303C91.7986 96.7383 91.9738 95.1771 91.9738 95.1771L91.2321 91.4788Z" fill="url(#paint39_linear_1_3636)"/>
<path fill-rule="evenodd" clip-rule="evenodd" d="M88.708 95.0398C88.1331 94.6403 89.073 92.5353 89.5965 91.8376L89.6466 91.7887L89.8076 91.6551C89.8219 91.6403 89.8401 91.6299 89.8601 91.6253C90.596 91.2234 92.2132 91.5299 92.9442 92.1417C92.9442 92.1417 93.0015 94.2169 92.5579 94.8514C92.274 95.2628 90.9728 95.3916 89.9412 95.3201H89.9328C89.3842 95.2724 88.9024 95.1746 88.708 95.0398Z" fill="url(#paint40_linear_1_3636)"/>
<path style="mix-blend-mode:multiply" opacity="0.5" fill-rule="evenodd" clip-rule="evenodd" d="M88.708 95.0386C88.1331 94.6391 89.073 92.5341 89.5965 91.8364L89.6466 91.7875L89.8076 91.6539L89.8541 91.6134L89.8601 91.6241L90.5232 92.4494L90.4397 95.0649L89.9412 95.3189H89.9328C89.3842 95.2712 88.9024 95.1734 88.708 95.0386Z" fill="url(#paint41_linear_1_3636)"/>
<path fill-rule="evenodd" clip-rule="evenodd" d="M92.9481 92.1398C92.9481 92.1398 91.2092 91.6079 90.651 92.2591C90.0929 92.9102 90.329 94.7994 90.4364 95.0701C90.5437 95.3408 92.3446 95.0415 92.7346 94.4571C93.1246 93.8727 92.9481 92.1398 92.9481 92.1398Z" fill="url(#paint42_linear_1_3636)"/>
<path fill-rule="evenodd" clip-rule="evenodd" d="M37.1644 88.3745L41.4149 88.6738L47.9888 88.3745L50.1129 89.1175L47.8349 88.7919L43.4484 90.8528L43.1288 91.4479L40.722 90.7991L37.1644 88.3745Z" fill="url(#paint43_linear_1_3636)"/>
<path fill-rule="evenodd" clip-rule="evenodd" d="M37.1644 88.3745L40.722 90.5749L41.9898 90.3781L43.9016 90.2159L47.8349 88.7919L43.4484 90.8528L43.1288 91.4479L40.4036 90.9482L37.1644 88.3745Z" fill="url(#paint44_linear_1_3636)"/>
<path fill-rule="evenodd" clip-rule="evenodd" d="M45.3539 37.6737L48.8101 39.7251L52.6707 39.4222L57.3125 35.657L51.3337 35.2288L47.658 36.1758L45.3539 37.6737Z" fill="url(#paint45_linear_1_3636)"/>
<path fill-rule="evenodd" clip-rule="evenodd" d="M45.3539 37.6738H46.5L48.6158 38.1425H50.8936L53.3755 37.1645L56.0983 35.657H57.3089C57.3089 35.657 54.8449 38.1806 52.666 39.4222L48.8054 39.7251L45.3539 37.6738Z" fill="url(#paint46_linear_1_3636)"/>
<path fill-rule="evenodd" clip-rule="evenodd" d="M23.9478 86.2526L25.5841 84.7177L27.373 84.9765C27.373 84.9765 27.602 86.1119 27.373 87.004C27.144 87.8961 25.5841 87.3391 25.5841 87.3391L23.9478 86.2526Z" fill="url(#paint47_linear_1_3636)"/>
<path fill-rule="evenodd" clip-rule="evenodd" d="M23.9478 86.2508C23.9478 86.2508 25.5948 86.7887 25.8655 86.7887C26.1363 86.7887 26.7886 86.7625 27.0582 86.5442C27.3277 86.326 27.367 84.9747 27.367 84.9747C27.367 84.9747 27.596 86.2461 27.367 87.0022C27.367 87.0022 27.3301 87.6522 26.1744 87.6116L25.4147 87.3815L23.9478 86.2508Z" fill="url(#paint48_linear_1_3636)"/>
<path fill-rule="evenodd" clip-rule="evenodd" d="M96.2023 61.9209C96.2023 61.9209 96.628 60.9668 97.1969 60.5578C97.7658 60.1487 99.4343 60.194 99.4343 60.194L99.6442 60.5578C99.6442 60.5578 99.0682 62.0307 98.6209 62.2895C98.1737 62.5483 97.2375 62.2895 97.2375 62.2895L96.2023 61.9209Z" fill="url(#paint49_linear_1_3636)"/>
<path fill-rule="evenodd" clip-rule="evenodd" d="M99.4331 60.1966C99.4331 60.1966 98.8439 61.1877 98.4372 61.4525C98.1412 61.6349 97.83 61.7913 97.507 61.92C97.072 61.9833 96.6301 61.9833 96.1951 61.92C96.1951 61.92 97.1563 62.3815 97.916 62.403C97.916 62.403 98.7711 62.4161 98.8952 62.2837C99.0192 62.1513 99.637 60.552 99.637 60.552L99.4331 60.1966Z" fill="url(#paint50_linear_1_3636)"/>
<defs>
<linearGradient id="paint0_linear_1_3636" x1="96.5777" y1="85.6866" x2="87.2675" y2="57.1553" gradientUnits="userSpaceOnUse">
<stop stop-color="#5B006F"/>
<stop offset="0.02" stop-color="#5C0270"/>
<stop offset="0.23" stop-color="#6A1A7C"/>
<stop offset="0.46" stop-color="#732C84"/>
<stop offset="0.7" stop-color="#793689"/>
<stop offset="0.99" stop-color="#7B398B"/>
</linearGradient>
<radialGradient id="paint1_radial_1_3636" cx="0" cy="0" r="1" gradientUnits="userSpaceOnUse" gradientTransform="translate(44.8972 48.6485) scale(65.3601 65.3601)">
<stop offset="0.01" stop-color="#9D4863"/>
<stop offset="0.24" stop-color="#9A4563"/>
<stop offset="0.42" stop-color="#903D61"/>
<stop offset="0.58" stop-color="#802E5F"/>
<stop offset="0.73" stop-color="#68195B"/>
<stop offset="0.87" stop-color="#4C0057"/>
<stop offset="0.98" stop-color="#4C0086"/>
</radialGradient>
<linearGradient id="paint2_linear_1_3636" x1="42.1998" y1="83.2181" x2="59.1639" y2="83.2181" gradientUnits="userSpaceOnUse">
<stop stop-color="#CA528D"/>
<stop offset="1" stop-color="#8E7090"/>
</linearGradient>
<linearGradient id="paint3_linear_1_3636" x1="84.6788" y1="75.1553" x2="100.838" y2="75.1553" gradientUnits="userSpaceOnUse">
<stop stop-color="#CA528D"/>
<stop offset="1" stop-color="#8E7090"/>
</linearGradient>
<linearGradient id="paint4_linear_1_3636" x1="100.506" y1="60.4263" x2="106.463" y2="60.4263" gradientUnits="userSpaceOnUse">
<stop stop-color="#CA528D"/>
<stop offset="1" stop-color="#8E7090"/>
</linearGradient>
<linearGradient id="paint5_linear_1_3636" x1="29.7039" y1="46.9733" x2="100.822" y2="46.9733" gradientUnits="userSpaceOnUse">
<stop stop-color="#CA528D"/>
<stop offset="1" stop-color="#8E7090"/>
</linearGradient>
<linearGradient id="paint6_linear_1_3636" x1="29.7039" y1="36.1744" x2="96.389" y2="36.1744" gradientUnits="userSpaceOnUse">
<stop offset="0.01" stop-color="#DE6863"/>
<stop offset="0.25" stop-color="#DB6563"/>
<stop offset="0.43" stop-color="#D35B62"/>
<stop offset="0.6" stop-color="#C54B60"/>
<stop offset="0.76" stop-color="#B1335D"/>
<stop offset="0.91" stop-color="#981659"/>
<stop offset="1" stop-color="#860057"/>
</linearGradient>
<linearGradient id="paint7_linear_1_3636" x1="37.1639" y1="101.389" x2="37.1639" y2="60.5075" gradientUnits="userSpaceOnUse">
<stop stop-color="#860057"/>
<stop offset="0.03" stop-color="#8C0757"/>
<stop offset="0.19" stop-color="#AA2456"/>
<stop offset="0.36" stop-color="#C13C55"/>
<stop offset="0.54" stop-color="#D14C54"/>
<stop offset="0.74" stop-color="#DB5654"/>
<stop offset="0.99" stop-color="#DE5954"/>
</linearGradient>
<linearGradient id="paint8_linear_1_3636" x1="65.2621" y1="97.1492" x2="77.0871" y2="97.1492" gradientUnits="userSpaceOnUse">
<stop stop-color="#CA528D"/>
<stop offset="1" stop-color="#8E7090"/>
</linearGradient>
<linearGradient id="paint9_linear_1_3636" x1="104.552" y1="58.0372" x2="104.552" y2="42.4041" gradientUnits="userSpaceOnUse">
<stop stop-color="#860057"/>
<stop offset="0.03" stop-color="#880557"/>
<stop offset="0.23" stop-color="#951C56"/>
<stop offset="0.45" stop-color="#9E2C55"/>
<stop offset="0.69" stop-color="#A33654"/>
<stop offset="0.99" stop-color="#A53954"/>
</linearGradient>
<linearGradient id="paint10_linear_1_3636" x1="93.4312" y1="75.6208" x2="93.4312" y2="56.9644" gradientUnits="userSpaceOnUse">
<stop stop-color="#860057"/>
<stop offset="0.03" stop-color="#880557"/>
<stop offset="0.23" stop-color="#951C56"/>
<stop offset="0.45" stop-color="#9E2C55"/>
<stop offset="0.69" stop-color="#A33654"/>
<stop offset="0.99" stop-color="#A53954"/>
</linearGradient>
<linearGradient id="paint11_linear_1_3636" x1="57.5734" y1="38.5467" x2="57.5734" y2="19.5909" gradientUnits="userSpaceOnUse">
<stop stop-color="#F49F57"/>
<stop offset="0.1" stop-color="#F79656"/>
<stop offset="0.35" stop-color="#FB8655"/>
<stop offset="0.63" stop-color="#FE7C54"/>
<stop offset="0.99" stop-color="#FF7954"/>
</linearGradient>
<linearGradient id="paint12_linear_1_3636" x1="75.6751" y1="46.7267" x2="75.6751" y2="28.1764" gradientUnits="userSpaceOnUse">
<stop stop-color="#F47D57"/>
<stop offset="0.4" stop-color="#FC7A55"/>
<stop offset="0.99" stop-color="#FF7954"/>
</linearGradient>
<linearGradient id="paint13_linear_1_3636" x1="29.7039" y1="42.5047" x2="47.0615" y2="42.5047" gradientUnits="userSpaceOnUse">
<stop stop-color="#F49F57"/>
<stop offset="0.1" stop-color="#F79656"/>
<stop offset="0.35" stop-color="#FB8655"/>
<stop offset="0.63" stop-color="#FE7C54"/>
<stop offset="0.99" stop-color="#FF7954"/>
</linearGradient>
<linearGradient id="paint14_linear_1_3636" x1="87.3076" y1="59.7942" x2="101.455" y2="59.7942" gradientUnits="userSpaceOnUse">
<stop offset="0.01" stop-color="#C75357"/>
<stop offset="0.13" stop-color="#D35856"/>
<stop offset="0.37" stop-color="#E35F55"/>
<stop offset="0.65" stop-color="#ED6454"/>
<stop offset="0.99" stop-color="#F06554"/>
</linearGradient>
<linearGradient id="paint15_linear_1_3636" x1="19.7937" y1="67.9993" x2="42.195" y2="67.9993" gradientUnits="userSpaceOnUse">
<stop stop-color="#F49F57"/>
<stop offset="0.1" stop-color="#F79656"/>
<stop offset="0.35" stop-color="#FB8655"/>
<stop offset="0.63" stop-color="#FE7C54"/>
<stop offset="0.99" stop-color="#FF7954"/>
</linearGradient>
<linearGradient id="paint16_linear_1_3636" x1="22.1058" y1="79.8967" x2="40.7229" y2="79.8967" gradientUnits="userSpaceOnUse">
<stop stop-color="#F49F57"/>
<stop offset="0.1" stop-color="#F79656"/>
<stop offset="0.35" stop-color="#FB8655"/>
<stop offset="0.63" stop-color="#FE7C54"/>
<stop offset="0.99" stop-color="#FF7954"/>
</linearGradient>
<linearGradient id="paint17_linear_1_3636" x1="70.2639" y1="99.6718" x2="70.2639" y2="90.6054" gradientUnits="userSpaceOnUse">
<stop stop-color="#860057"/>
<stop offset="0.03" stop-color="#880557"/>
<stop offset="0.23" stop-color="#951C56"/>
<stop offset="0.45" stop-color="#9E2C55"/>
<stop offset="0.69" stop-color="#A33654"/>
<stop offset="0.99" stop-color="#A53954"/>
</linearGradient>
<linearGradient id="paint18_linear_1_3636" x1="64.8529" y1="93.1092" x2="73.6414" y2="93.1092" gradientUnits="userSpaceOnUse">
<stop offset="0.01" stop-color="#C75357"/>
<stop offset="0.26" stop-color="#D15149"/>
<stop offset="0.58" stop-color="#D94F3F"/>
<stop offset="0.99" stop-color="#DB4F3C"/>
</linearGradient>
<linearGradient id="paint19_linear_1_3636" x1="34.8462" y1="81.6542" x2="54.4365" y2="81.6542" gradientUnits="userSpaceOnUse">
<stop stop-color="#CA528D"/>
<stop offset="1" stop-color="#8E7090"/>
</linearGradient>
<linearGradient id="paint20_linear_1_3636" x1="70.5339" y1="95.558" x2="75.6754" y2="95.558" gradientUnits="userSpaceOnUse">
<stop stop-color="#CA528D"/>
<stop offset="1" stop-color="#8E7090"/>
</linearGradient>
<linearGradient id="paint21_linear_1_3636" x1="93.4327" y1="67.6064" x2="102.227" y2="67.6064" gradientUnits="userSpaceOnUse">
<stop stop-color="#CA528D"/>
<stop offset="1" stop-color="#8E7090"/>
</linearGradient>
<linearGradient id="paint22_linear_1_3636" x1="101.195" y1="45.1904" x2="104.565" y2="45.1904" gradientUnits="userSpaceOnUse">
<stop stop-color="#CA528D"/>
<stop offset="1" stop-color="#8E7090"/>
</linearGradient>
<linearGradient id="paint23_linear_1_3636" x1="100.506" y1="51.0073" x2="111.14" y2="51.0073" gradientUnits="userSpaceOnUse">
<stop stop-color="#CA528D"/>
<stop offset="1" stop-color="#8E7090"/>
</linearGradient>
<linearGradient id="paint24_linear_1_3636" x1="97.8718" y1="45.6286" x2="103.988" y2="44.5172" gradientUnits="userSpaceOnUse">
<stop stop-color="#F47D57"/>
<stop offset="0.4" stop-color="#FC7A55"/>
<stop offset="0.99" stop-color="#FF7954"/>
</linearGradient>
<linearGradient id="paint25_linear_1_3636" x1="101.072" y1="45.8636" x2="110.835" y2="44.0894" gradientUnits="userSpaceOnUse">
<stop stop-color="#F47D57"/>
<stop offset="0.4" stop-color="#FC7A55"/>
<stop offset="0.99" stop-color="#FF7954"/>
</linearGradient>
<linearGradient id="paint26_linear_1_3636" x1="57.5743" y1="32.3868" x2="86.8238" y2="32.3868" gradientUnits="userSpaceOnUse">
<stop stop-color="#CA528D"/>
<stop offset="1" stop-color="#8E7090"/>
</linearGradient>
<linearGradient id="paint27_linear_1_3636" x1="66.5894" y1="47.5703" x2="73.9837" y2="47.5703" gradientUnits="userSpaceOnUse">
<stop stop-color="#CA528D"/>
<stop offset="1" stop-color="#8E7090"/>
</linearGradient>
<linearGradient id="paint28_linear_1_3636" x1="79.4995" y1="41.3816" x2="96.3884" y2="41.3816" gradientUnits="userSpaceOnUse">
<stop stop-color="#CA528D"/>
<stop offset="1" stop-color="#8E7090"/>
</linearGradient>
<linearGradient id="paint29_linear_1_3636" x1="32.8363" y1="47.7339" x2="45.3542" y2="47.7339" gradientUnits="userSpaceOnUse">
<stop stop-color="#CA528D"/>
<stop offset="1" stop-color="#8E7090"/>
</linearGradient>
<linearGradient id="paint30_linear_1_3636" x1="47.6577" y1="62.4901" x2="57.1773" y2="62.4901" gradientUnits="userSpaceOnUse">
<stop stop-color="#CA528D"/>
<stop offset="1" stop-color="#8E7090"/>
</linearGradient>
<linearGradient id="paint31_linear_1_3636" x1="51.5417" y1="69.6367" x2="56.7596" y2="69.6367" gradientUnits="userSpaceOnUse">
<stop stop-color="#CA528D"/>
<stop offset="1" stop-color="#8E7090"/>
</linearGradient>
<linearGradient id="paint32_linear_1_3636" x1="51.7197" y1="64.1249" x2="51.7197" y2="55.7276" gradientUnits="userSpaceOnUse">
<stop stop-color="#A20057"/>
<stop offset="0.28" stop-color="#BA2456"/>
<stop offset="0.57" stop-color="#CE4155"/>
<stop offset="0.82" stop-color="#DA5354"/>
<stop offset="0.99" stop-color="#DE5954"/>
</linearGradient>
<linearGradient id="paint33_linear_1_3636" x1="53.5941" y1="70.9347" x2="53.5941" y2="66.8344" gradientUnits="userSpaceOnUse">
<stop stop-color="#A20057"/>
<stop offset="0.28" stop-color="#BA2456"/>
<stop offset="0.57" stop-color="#CE4155"/>
<stop offset="0.82" stop-color="#DA5354"/>
<stop offset="0.99" stop-color="#DE5954"/>
</linearGradient>
<linearGradient id="paint34_linear_1_3636" x1="52.6715" y1="61.2202" x2="57.1355" y2="61.2202" gradientUnits="userSpaceOnUse">
<stop stop-color="#CA528D"/>
<stop offset="1" stop-color="#8E7090"/>
</linearGradient>
<linearGradient id="paint35_linear_1_3636" x1="25.5849" y1="57.2793" x2="25.5849" y2="49.3995" gradientUnits="userSpaceOnUse">
<stop stop-color="#A20057"/>
<stop offset="0.28" stop-color="#BA2456"/>
<stop offset="0.57" stop-color="#CE4155"/>
<stop offset="0.82" stop-color="#DA5354"/>
<stop offset="0.99" stop-color="#DE5954"/>
</linearGradient>
<linearGradient id="paint36_linear_1_3636" x1="51.7185" y1="60.5604" x2="51.7185" y2="55.2686" gradientUnits="userSpaceOnUse">
<stop stop-color="#F49F57"/>
<stop offset="0.1" stop-color="#F79656"/>
<stop offset="0.35" stop-color="#FB8655"/>
<stop offset="0.63" stop-color="#FE7C54"/>
<stop offset="0.99" stop-color="#FF7954"/>
</linearGradient>
<linearGradient id="paint37_linear_1_3636" x1="52.0403" y1="69.9078" x2="55.6897" y2="69.9078" gradientUnits="userSpaceOnUse">
<stop stop-color="#CA528D"/>
<stop offset="1" stop-color="#8E7090"/>
</linearGradient>
<linearGradient id="paint38_linear_1_3636" x1="53.4865" y1="69.5266" x2="53.4865" y2="66.7871" gradientUnits="userSpaceOnUse">
<stop stop-color="#F47D57"/>
<stop offset="0.4" stop-color="#FC7A55"/>
<stop offset="0.99" stop-color="#FF7954"/>
</linearGradient>
<linearGradient id="paint39_linear_1_3636" x1="91.0838" y1="91.433" x2="89.4796" y2="97.2172" gradientUnits="userSpaceOnUse">
<stop stop-color="#CA528D"/>
<stop offset="1" stop-color="#8E7090"/>
</linearGradient>
<linearGradient id="paint40_linear_1_3636" x1="88.919" y1="92.9626" x2="92.8701" y2="94.0583" gradientUnits="userSpaceOnUse">
<stop stop-color="#A20057"/>
<stop offset="0.28" stop-color="#BA2456"/>
<stop offset="0.57" stop-color="#CE4155"/>
<stop offset="0.82" stop-color="#DA5354"/>
<stop offset="0.99" stop-color="#DE5954"/>
</linearGradient>
<linearGradient id="paint41_linear_1_3636" x1="90.3235" y1="91.7395" x2="89.3482" y2="95.2562" gradientUnits="userSpaceOnUse">
<stop stop-color="#CA528D"/>
<stop offset="1" stop-color="#8E7090"/>
</linearGradient>
<linearGradient id="paint42_linear_1_3636" x1="90.3029" y1="93.2342" x2="92.9427" y2="93.9663" gradientUnits="userSpaceOnUse">
<stop stop-color="#F47D57"/>
<stop offset="0.4" stop-color="#FC7A55"/>
<stop offset="0.99" stop-color="#FF7954"/>
</linearGradient>
<linearGradient id="paint43_linear_1_3636" x1="37.1632" y1="89.9118" x2="50.1129" y2="89.9118" gradientUnits="userSpaceOnUse">
<stop stop-color="#860057"/>
<stop offset="0.21" stop-color="#8A0A4D"/>
<stop offset="0.55" stop-color="#8E1343"/>
<stop offset="0.99" stop-color="#8F1640"/>
</linearGradient>
<linearGradient id="paint44_linear_1_3636" x1="37.1632" y1="89.9118" x2="47.8349" y2="89.9118" gradientUnits="userSpaceOnUse">
<stop stop-color="#F49F57"/>
<stop offset="0.1" stop-color="#F79656"/>
<stop offset="0.35" stop-color="#FB8655"/>
<stop offset="0.63" stop-color="#FE7C54"/>
<stop offset="0.99" stop-color="#FF7954"/>
</linearGradient>
<linearGradient id="paint45_linear_1_3636" x1="51.3338" y1="39.7251" x2="51.3338" y2="35.2288" gradientUnits="userSpaceOnUse">
<stop stop-color="#860057"/>
<stop offset="0.03" stop-color="#880557"/>
<stop offset="0.23" stop-color="#951C56"/>
<stop offset="0.45" stop-color="#9E2C55"/>
<stop offset="0.69" stop-color="#A33654"/>
<stop offset="0.99" stop-color="#A53954"/>
</linearGradient>
<linearGradient id="paint46_linear_1_3636" x1="45.3539" y1="37.6905" x2="57.3136" y2="37.6905" gradientUnits="userSpaceOnUse">
<stop stop-color="#F49F57"/>
<stop offset="0.1" stop-color="#F79656"/>
<stop offset="0.35" stop-color="#FB8655"/>
<stop offset="0.63" stop-color="#FE7C54"/>
<stop offset="0.99" stop-color="#FF7954"/>
</linearGradient>
<linearGradient id="paint47_linear_1_3636" x1="25.7081" y1="87.5097" x2="25.7081" y2="84.7117" gradientUnits="userSpaceOnUse">
<stop stop-color="#860057"/>
<stop offset="0.03" stop-color="#880557"/>
<stop offset="0.23" stop-color="#951C56"/>
<stop offset="0.45" stop-color="#9E2C55"/>
<stop offset="0.69" stop-color="#A33654"/>
<stop offset="0.99" stop-color="#A53954"/>
</linearGradient>
<linearGradient id="paint48_linear_1_3636" x1="23.9478" y1="86.2902" x2="27.4696" y2="86.2902" gradientUnits="userSpaceOnUse">
<stop stop-color="#F49F57"/>
<stop offset="0.1" stop-color="#F79656"/>
<stop offset="0.35" stop-color="#FB8655"/>
<stop offset="0.63" stop-color="#FE7C54"/>
<stop offset="0.99" stop-color="#FF7954"/>
</linearGradient>
<linearGradient id="paint49_linear_1_3636" x1="96.2023" y1="61.2996" x2="99.6442" y2="61.2996" gradientUnits="userSpaceOnUse">
<stop stop-color="#860057"/>
<stop offset="0.21" stop-color="#8A0A4D"/>
<stop offset="0.55" stop-color="#8E1343"/>
<stop offset="0.99" stop-color="#8F1640"/>
</linearGradient>
<linearGradient id="paint50_linear_1_3636" x1="96.201" y1="61.3022" x2="99.643" y2="61.3022" gradientUnits="userSpaceOnUse">
<stop offset="0.01" stop-color="#C75357"/>
<stop offset="0.13" stop-color="#D35856"/>
<stop offset="0.37" stop-color="#E35F55"/>
<stop offset="0.65" stop-color="#ED6454"/>
<stop offset="0.99" stop-color="#F06554"/>
</linearGradient>
</defs>
</svg>
