<svg width="160" height="160" viewBox="0 0 160 160" fill="none" xmlns="http://www.w3.org/2000/svg">
<g clip-path="url(#clip0_1_3552)">
<path style="mix-blend-mode:screen" d="M160.13 80C160.13 35.7466 124.255 -0.127844 80.0017 -0.127842C35.7484 -0.12784 -0.126081 35.7466 -0.126079 80C-0.126077 124.253 35.7484 160.128 80.0017 160.128C124.255 160.128 160.13 124.253 160.13 80Z" fill="url(#paint0_radial_1_3552)"/>
<path style="mix-blend-mode:screen" d="M124.5 124.5C149.077 99.9233 149.077 60.0767 124.5 35.5C99.9233 10.9233 60.0767 10.9233 35.5 35.5C10.9233 60.0767 10.9233 99.9233 35.5 124.5C60.0767 149.077 99.9233 149.077 124.5 124.5Z" fill="url(#paint1_radial_1_3552)"/>
<path style="mix-blend-mode:screen" d="M122.466 122.465C145.918 99.0122 145.918 60.9878 122.466 37.5351C99.013 14.0824 60.9886 14.0824 37.5359 37.5351C14.0832 60.9878 14.0832 99.0122 37.5359 122.465C60.9886 145.918 99.013 145.918 122.466 122.465Z" fill="url(#paint2_radial_1_3552)"/>
<path fill-rule="evenodd" clip-rule="evenodd" d="M134.47 79.0453C134.476 86.195 133.073 93.2758 130.339 99.8823C127.605 106.489 123.596 112.491 118.539 117.547C113.483 122.602 107.48 126.61 100.873 129.342C94.2658 132.075 87.1847 133.477 80.035 133.469C79.0698 133.469 78.0934 133.446 77.1393 133.388H77.1281C75.7034 133.32 74.2899 133.182 72.9003 133.008C62.6527 131.667 53.004 127.417 45.0971 120.762C39.9966 116.469 35.7115 111.291 32.4471 105.478C32.1137 104.881 31.7914 104.272 31.4707 103.662C31.4707 103.64 31.4596 103.629 31.4468 103.605C31.115 102.951 30.8086 102.295 30.5055 101.63H30.4944C29.5416 99.5411 28.7278 97.3916 28.0582 95.1956C27.5492 93.5951 27.1232 91.9693 26.7819 90.3248C26.7731 90.3111 26.7692 90.2948 26.7707 90.2786C26.5282 89.1171 26.3224 87.9461 26.1612 86.7687C25.7908 84.212 25.6063 81.6318 25.6092 79.0485C25.6092 77.544 25.6666 76.038 25.8054 74.5686C25.874 73.6257 25.9778 72.6956 26.1038 71.7639C26.792 66.5092 28.2593 61.3865 30.4576 56.5644C34.7825 47.0419 41.7569 38.9656 50.5479 33.2999C59.3388 27.6341 69.5749 24.6185 80.0334 24.6131C80.6078 24.6131 81.1821 24.6243 81.7453 24.6371C82.3531 24.6594 82.9626 24.6817 83.572 24.728C86.6502 24.9275 89.7058 25.3886 92.7057 26.1064C94.4288 26.5213 96.1183 27.0031 97.7728 27.5774C98.8895 27.9571 100.006 28.3751 101.093 28.841C101.908 29.1856 102.701 29.543 103.486 29.9211C103.623 29.9897 103.762 30.0471 103.899 30.1173C109.154 32.6863 113.96 36.0844 118.135 40.1811C118.732 40.7555 119.306 41.3522 119.88 41.9616C120.26 42.3748 120.638 42.8008 121.007 43.2252C121.645 43.9383 122.248 44.685 122.845 45.4316C127.6 51.4762 131.015 58.4628 132.864 65.9279C133.931 70.2186 134.471 74.6237 134.47 79.0453Z" fill="url(#paint3_radial_1_3552)"/>
<g style="mix-blend-mode:multiply" opacity="0.4">
<path fill-rule="evenodd" clip-rule="evenodd" d="M25.604 79.0452C25.604 79.0452 38.439 101.82 50.8481 105.352C63.2572 108.884 77.426 106.639 82.2697 108.444C87.1134 110.248 89.7474 117.648 89.7474 117.648L91.5518 118.682C91.5518 118.682 95.6919 112.254 98.227 116.051C98.227 116.051 97.2171 110.669 100.263 104.117C103.308 97.5647 105.344 90.5273 109.116 88.2778C112.887 86.0283 119.792 84.9833 125.264 87.161C130.737 89.3388 133.572 88.916 133.572 88.916L133.98 86.3378L134.39 84.0643C134.39 84.0643 129.152 84.8972 124.939 82.2025C124.939 82.2025 125.516 83.2092 128.781 77.1131C132.045 71.0171 131.668 65.5177 131.668 65.5177L131.199 60.4539C131.199 60.4539 129.444 78.0193 122.038 83.1167C122.038 83.1167 105.521 79.6977 98.5365 99.1936C98.5365 99.1936 97.3416 112.233 90.4207 111.871C83.4998 111.509 85.8945 102.981 75.8801 102.893C65.8657 102.806 59.7904 106.923 49.8749 101.269C39.9595 95.6151 25.604 79.0452 25.604 79.0452Z" fill="#7D72B3"/>
</g>
<g style="mix-blend-mode:multiply" opacity="0.4">
<path fill-rule="evenodd" clip-rule="evenodd" d="M77.1375 133.387C77.1375 133.387 83.9977 123.135 91.5536 123.191C99.1094 123.247 102.586 125.988 108.537 122.514C114.488 119.041 116.96 116.87 119.705 115.016C122.449 113.162 122.911 112.573 122.911 112.573L124.149 110.936C124.149 110.936 119.977 108.912 116.3 111.886C112.623 114.86 105.978 121.591 100.695 121.557C95.4129 121.524 95.6777 118.488 89.7492 120.868C83.8206 123.248 71.3381 131.662 71.3381 131.662C71.3381 131.662 73.5988 133.314 77.1375 133.387Z" fill="#7D72B3"/>
</g>
<g style="mix-blend-mode:multiply" opacity="0.4">
<path fill-rule="evenodd" clip-rule="evenodd" d="M28.6008 96.8726L29.2549 98.6691C29.2549 98.6691 39.8675 104.527 46.5698 112.683C53.2721 120.839 54.464 126.362 54.464 126.362C54.464 126.362 55.6557 121.503 49.8803 112.362C44.1049 103.222 31.6703 98.2128 28.6008 96.8726Z" fill="#7D72B3"/>
</g>
<path fill-rule="evenodd" clip-rule="evenodd" d="M103.904 30.1173C103.724 30.133 103.545 30.158 103.367 30.1923C102.8 30.2968 102.216 30.2578 101.668 30.079C101.234 29.9562 100.921 29.7775 100.458 29.7009C99.7979 29.5972 99.1821 29.3148 98.5232 29.2223C97.8244 29.1282 97.2213 28.8553 96.5592 28.6192C96.0407 28.4294 95.7615 28.4964 95.2669 28.6192C94.7724 28.7421 94.4166 28.5426 93.973 28.3544C93.4721 28.1374 92.9727 28.0991 92.443 27.9954C91.0646 27.713 89.6958 27.2679 88.3269 26.9185C87.4766 26.7015 86.6932 26.7015 85.8253 26.692C85.1456 26.684 84.5314 26.8818 83.8518 26.8818C83.4175 26.8669 82.985 26.8194 82.5579 26.7398C82.0952 26.6553 81.623 26.7494 81.1603 26.684C80.4711 26.5787 80.1026 26.475 79.4054 26.692C78.8853 26.8627 78.48 26.8435 77.9599 26.8722C77.3544 26.9246 76.7544 27.0287 76.1667 27.1833C75.1257 27.4451 74.0572 27.5817 72.9838 27.5902C72.3457 27.5902 71.398 27.4099 70.7854 27.6269C70.3881 27.7689 70.1903 28.1932 69.9159 28.4772C69.3878 29.0245 68.7353 29.5158 68.2918 30.1301C67.8482 30.7443 67.3473 31.3761 67.3856 32.1499C67.4239 32.8199 67.735 33.6033 68.0237 34.2239C68.3253 34.8748 68.4289 35.4699 67.7589 35.9039C66.906 36.4877 65.9702 36.9401 64.9829 37.2456C64.3447 37.4339 63.7656 37.5471 63.2279 37.0861C63.0301 36.9169 62.9088 36.5851 62.6615 36.4479C62.4143 36.3107 62.143 36.4479 61.8638 36.5324C61.1988 36.7522 60.5211 36.9317 59.8345 37.0701C59.4085 37.1371 59.0368 37.3637 58.6252 37.4386C58.1258 37.5328 57.7668 37.1642 57.2467 37.2871C56.5208 37.4578 55.7933 37.7657 55.0387 37.7976C54.4994 37.8263 53.8198 37.5902 53.3667 37.319C53.1019 37.1674 53.0364 37.0174 52.7285 37.102C52.4332 37.2107 52.1745 37.4004 51.9819 37.6492C51.8032 37.9045 51.7362 38.2347 51.5575 38.4996C51.3676 38.7915 51.189 39.0755 51.0183 39.3866C50.7058 39.9839 50.3462 40.5552 49.943 41.0953C49.659 41.4734 49.4643 41.9824 49.1452 42.3318C48.9857 42.5216 48.6347 42.6508 48.4273 42.7944C47.8609 43.1917 47.2659 43.5506 46.7186 43.975C45.6609 44.8062 44.6605 45.722 43.5836 46.5277C42.762 47.1419 41.6101 47.5009 40.6752 47.887C40.0897 48.1231 39.4866 48.2938 38.9011 48.5379C38.7113 48.6145 38.3619 48.6974 38.2023 48.841C37.9949 49.0197 37.8832 49.35 37.6918 49.5957C37.1829 50.2195 36.6436 50.8417 36.2559 51.5596C36.0372 51.9724 35.8597 52.4058 35.7262 52.8535C35.5188 53.4677 35.1886 54.0341 34.9812 54.6467C34.5568 55.931 34.4707 57.2712 33.9984 58.5459C33.7256 59.2925 33.3284 59.9722 32.9885 60.6518C32.403 61.8037 32.3185 63.1726 32.1478 64.4473C32.0597 65.2244 32.0855 66.0102 32.2243 66.7798C32.3663 67.5631 32.328 68.3752 32.3185 69.1729C32.3089 70.0217 31.7712 70.8529 31.232 71.4958C30.7422 72.0909 29.9956 72.3175 29.4483 72.8455C28.9857 73.2986 28.4288 73.8172 28.231 74.4601C28.1449 74.7425 28.2215 75.0648 28.1736 75.3663C28.0508 76.0364 27.8816 76.6697 27.7859 77.3494C27.6936 78.1735 27.6531 79.0026 27.6646 79.8318C27.6646 80.2562 27.6359 80.6918 27.6551 81.1161C27.6742 81.5405 27.8242 81.8995 27.8529 82.3063C27.8721 82.5887 27.8146 82.8727 27.8529 83.1551C27.9088 83.4742 28.0316 83.8076 28.1082 84.1123C28.2964 84.867 28.4384 85.604 28.5868 86.3587C28.7176 87.0574 28.992 87.7467 29.209 88.4327C29.4985 89.3642 29.7256 90.314 29.8887 91.2757C30.0307 91.9921 30.0211 92.7387 30.1248 93.4662C30.2093 94.0501 30.3418 94.6452 30.3705 95.2307C30.3992 96.1178 30.1822 97.0064 30.1727 97.903C30.1631 99.4139 30.7677 100.925 31.1171 102.378C31.2208 102.783 31.3245 103.2 31.4362 103.605C27.2424 95.3043 25.245 86.0677 25.6343 76.7759C26.0236 67.4841 28.7867 58.4469 33.6601 50.5261C38.5335 42.6053 45.3547 36.065 53.4733 31.5287C61.5919 26.9925 70.7372 24.6116 80.0371 24.6131C81.2273 24.6131 82.3984 24.6498 83.5678 24.7264C90.635 25.1703 97.5454 27.0021 103.904 30.1173Z" fill="url(#paint4_linear_1_3552)"/>
<g style="mix-blend-mode:multiply" opacity="0.4">
<path fill-rule="evenodd" clip-rule="evenodd" d="M38.9175 48.5387C38.9175 48.5387 51.1702 59.4943 67.3349 59.8086C83.4996 60.1229 89.5111 59.0349 94.8844 53.0489C100.258 47.0629 106.052 36.9193 106.052 36.9193C106.052 36.9193 99.1474 40.2457 94.3707 46.7486C89.5941 53.2515 67.0318 64.3284 38.9175 48.5387Z" fill="#7D72B3"/>
</g>
<g opacity="0.7">
<g style="mix-blend-mode:multiply" opacity="0.4">
<path fill-rule="evenodd" clip-rule="evenodd" d="M39.8941 48.8515C38.2907 50.75 36.8931 52.6804 35.8146 54.9316C34.8574 56.929 34.5064 59.1546 34.1602 61.3132C33.956 62.5895 33.7741 63.885 33.5811 65.1709C33.4104 66.31 33.0801 67.513 33.2764 68.6664C33.5444 70.2299 33.6241 71.9546 34.374 73.3809C35.1373 74.8679 36.0407 76.2788 37.0718 77.5943C38.1136 78.9153 39.3724 79.5088 41.0604 79.6269C41.9729 79.6907 42.8807 79.5503 43.7965 79.67C45.0632 79.8375 46.3332 80.0688 47.5968 80.2714C50.1414 80.6799 53.0004 80.699 54.8287 78.6122C56.3124 76.9195 57.0144 74.8088 57.9589 72.7938C58.964 70.6463 60.2308 68.8659 62.107 67.4077C63.4918 66.3355 64.7059 65.1294 66.0365 63.9983C66.6395 63.4845 67.0049 62.9293 67.6909 62.5449C68.3769 62.1604 68.7263 61.7471 69.315 61.2079C69.8431 60.7213 70.4861 60.3926 70.9567 59.8374C71.7066 58.9536 72.308 57.7634 72.7117 56.6897C73.1344 55.5617 73.3403 54.3652 73.5094 53.1798C73.6689 52.0183 73.3227 50.8521 72.9622 49.7449C72.2729 47.6374 70.4749 46.3148 68.7822 45.0065C66.6858 43.3888 64.2177 42.6708 61.6379 42.1635C59.2927 41.7024 56.4688 41.6083 54.1124 42.0263C51.6188 42.4666 49.0565 42.824 46.7336 43.9041C45.0361 44.6938 44.0103 45.7899 42.6398 46.9513C41.9426 47.5432 41.0971 47.95 40.4669 48.6169C39.5942 49.5439 38.7773 50.5458 39.8941 48.8515Z" fill="#7D72B3"/>
</g>
<g style="mix-blend-mode:multiply" opacity="0.4">
<path fill-rule="evenodd" clip-rule="evenodd" d="M64.5659 38.6914C64.9041 38.1011 65.2886 37.2556 65.7576 36.6972C66.0278 36.4109 66.3225 36.1488 66.6383 35.9138C67.5477 35.1512 68.5433 34.5051 69.6983 34.1732C70.3412 33.989 71.021 33.9764 71.6702 34.1365C72.318 34.2961 73.4922 34.746 73.99 35.2198C74.9153 36.1021 74.309 37.6129 74.0267 38.6324C73.7443 39.6519 73.4236 40.6506 72.4966 41.3063C71.8804 41.746 71.1856 42.0633 70.4498 42.2412C70.0477 42.3322 69.6409 42.305 69.234 42.3545C68.9114 42.4155 68.5854 42.4566 68.2577 42.4773C67.5062 42.4773 66.3623 41.9397 66.0464 41.201C65.8869 40.8165 65.788 40.4177 65.6141 40.03C65.4816 39.738 65.3779 39.4269 65.2551 39.1318C65.0238 38.5734 64.8179 38.0325 64.5659 38.6914Z" fill="#7D72B3"/>
</g>
<g style="mix-blend-mode:multiply" opacity="0.4">
<path fill-rule="evenodd" clip-rule="evenodd" d="M73.5635 44.4982C73.3419 45.0911 73.2185 45.7162 73.1982 46.3489C73.4774 46.5084 73.5747 46.8578 73.8491 47.019C74.1235 47.1801 74.4299 47.1115 74.7298 47.1099C75.2754 47.1099 75.8019 47.1099 75.8944 46.4446C75.9742 45.8575 75.4557 45.4299 75.0153 45.1109C74.6963 44.8811 74.0693 44.3451 73.7087 44.7918L73.5635 44.4982Z" fill="#7D72B3"/>
</g>
<g style="mix-blend-mode:multiply" opacity="0.4">
<path fill-rule="evenodd" clip-rule="evenodd" d="M81.1129 53.3487C80.4061 53.8529 79.6435 54.306 78.9686 54.8436C78.1119 55.5233 77.4402 56.3896 76.7749 57.2495C75.9485 58.32 74.9753 59.44 75.1795 60.8806C75.3837 62.3213 75.864 63.4812 76.9536 64.4352C78.214 65.5392 80.162 65.5329 81.6298 66.2476C82.8838 66.8586 83.6846 68.1222 84.3132 69.3235C85.2705 71.1471 87.2695 71.471 89.0994 71.8156C90.288 72.0389 91.4655 72.2096 92.6652 72.3564C94.2782 72.5527 95.8736 72.8622 97.4897 73.0169C100.452 73.3025 103.441 73.9853 106.424 73.746C109.589 73.4924 112.458 72.3644 115.062 70.5552C117.281 69.0108 119.264 66.329 119.848 63.6726C120.462 60.8806 119.545 57.7696 118.193 55.3334C116.418 52.1794 114.383 49.1792 112.108 46.364C110.861 44.7957 109.414 43.3982 108.139 41.8474C107.055 40.5177 105.857 39.2856 104.557 38.1652C101.603 35.6237 97.9332 33.5258 93.9623 33.3168C92.4411 33.2304 90.9188 33.4664 89.4951 34.0092C88.2491 34.4878 87.3477 35.2073 86.4223 36.1598C84.0723 38.5784 82.8439 41.6576 81.826 44.8181C81.3601 46.2667 80.9246 47.9052 81.0953 49.4448C81.1479 49.9154 81.3984 50.2887 81.3921 50.7354C81.3921 51.1518 81.3921 51.5698 81.3921 51.9878C81.417 52.2027 81.3952 52.4204 81.3282 52.626C81.1942 52.9578 80.8576 53.3088 81.1129 53.3487Z" fill="#7D72B3"/>
</g>
<g style="mix-blend-mode:multiply" opacity="0.4">
<path fill-rule="evenodd" clip-rule="evenodd" d="M68.6297 64.0881C67.0949 64.9831 65.5203 65.6835 64.394 67.1194C64.1945 67.3746 63.8977 67.6602 64.0014 68.0048C64.1179 68.3845 64.5455 68.5999 64.8758 68.7371C66.0149 69.2157 67.4076 69.4614 68.6297 69.2157C69.7274 68.9988 71.1712 68.2585 71.7647 67.2614C72.5146 66.0026 71.6674 63.9796 70.0784 64.0801C69.8407 64.0961 69.6588 64.2109 69.4274 64.2397C69.2392 64.262 69.0366 64.2253 68.8451 64.2397C68.6885 64.2451 68.5357 64.289 68.4 64.3673C68.2086 64.4391 67.9565 64.6577 68.6297 64.0881Z" fill="#7D72B3"/>
</g>
<g style="mix-blend-mode:multiply" opacity="0.4">
<path fill-rule="evenodd" clip-rule="evenodd" d="M37.1399 85.1306C36.5161 85.6969 35.8939 86.1309 35.5349 86.8855C35.2048 87.5653 34.9584 88.2826 34.8011 89.0218C34.6607 89.6807 34.482 90.3842 34.6415 91.0575C34.7915 91.6606 35.0755 92.2604 35.2797 92.8507C35.5581 93.5968 35.7868 94.3606 35.9641 95.137C36.1699 96.1245 36.5352 96.9669 36.9756 97.8747C37.4096 98.7623 37.8944 99.6242 38.4274 100.456C38.9762 101.321 39.6128 102 40.3211 102.739C42.802 105.324 45.8349 108.061 49.5346 108.527C51.4044 108.762 53.3524 108.282 54.7181 106.941C56.2114 105.477 57.1639 103.368 57.4814 101.311C57.7526 99.5562 57.5739 97.7471 56.6262 96.225C55.8716 95.0109 55.0468 93.7059 54.0736 92.6545C53.4147 91.9445 52.6553 91.3351 51.9389 90.6874C51.2226 90.0396 50.5429 89.3632 49.7644 88.7936C48.3987 87.7949 47.0793 86.7435 45.7041 85.7623C44.4596 84.8657 43.1163 83.8909 41.5959 83.5288C40.5477 83.2767 39.399 83.0677 38.3636 83.4713C37.92 83.6452 37.5787 83.7904 37.3537 84.2004C37.242 84.3999 36.9804 84.7445 36.9644 84.9726C36.9277 84.9678 36.8878 84.9774 37.1399 85.1306Z" fill="#7D72B3"/>
</g>
<g style="mix-blend-mode:multiply" opacity="0.4">
<path fill-rule="evenodd" clip-rule="evenodd" d="M46.8612 82.6621C46.9122 83.0992 46.9617 83.5379 47.0127 83.9751C47.043 84.1171 47.075 84.2607 47.1053 84.4026C47.1914 84.4936 47.5201 84.5319 47.635 84.5462C48.0785 84.5973 48.5587 84.3596 48.9113 84.0884C49.4426 83.6751 49.6819 82.7115 49.1905 82.2201C49.0047 82.0311 48.7735 81.8931 48.5189 81.8193C48.2644 81.7456 47.9951 81.7385 47.7371 81.7989C47.4515 81.8564 46.2406 82.4945 46.7208 82.9524L46.8612 82.6621Z" fill="#7D72B3"/>
</g>
<g style="mix-blend-mode:multiply" opacity="0.4">
<path fill-rule="evenodd" clip-rule="evenodd" d="M119.715 70.7647C119.904 69.7899 119.925 69.1692 120.523 68.4385C121.045 67.8004 121.616 67.2149 122.119 66.5671C123.036 65.377 123.604 63.973 123.947 62.5148C124.25 61.2273 123.934 59.9749 124.51 58.7321C124.648 58.4369 124.809 57.8753 125.12 57.7334C125.407 57.6025 125.986 57.7126 126.246 57.8674C126.506 58.0221 126.779 58.3651 127.001 58.5614C127.387 58.92 127.755 59.2986 128.102 59.6957C129.916 61.6708 130.918 64.6159 130.905 67.2771C130.895 68.8374 130.728 70.2828 130.209 71.7442C130.015 72.3264 129.764 72.8876 129.458 73.4194C129.064 74.0863 128.575 74.4867 127.929 74.9C126.05 76.1013 123.32 75.653 121.75 74.1677C121.168 73.6172 120.9 72.861 120.52 72.2149C120.222 71.7075 119.941 71.2465 119.834 70.6418C119.793 70.637 119.753 70.6274 119.715 70.7647Z" fill="#7D72B3"/>
</g>
<g style="mix-blend-mode:multiply" opacity="0.4">
<path fill-rule="evenodd" clip-rule="evenodd" d="M119.713 50.3012C120.032 51.3637 120.18 52.5204 121.268 53.0692C121.52 53.1955 121.789 53.2826 122.066 53.3277C122.34 53.3404 122.545 53.1841 122.755 53.0261C123.898 52.187 123.234 50.2613 122.468 49.3918C122.015 48.8797 121.492 48.7122 120.863 48.5255C120.576 48.4409 120.646 48.417 120.402 48.5255C120.235 48.585 120.093 48.697 119.995 48.8446C119.902 49.0263 119.852 49.2273 119.85 49.4317C119.83 49.5916 119.794 49.7489 119.74 49.9007C119.659 50.2313 119.699 50.58 119.853 50.8835L119.713 50.3012Z" fill="#7D72B3"/>
</g>
<g style="mix-blend-mode:multiply" opacity="0.4">
<path fill-rule="evenodd" clip-rule="evenodd" d="M111.152 94.5638C110.871 95.2865 110.651 96.0411 110.332 96.7463C109.993 97.4961 109.655 98.2539 109.336 99.0133C108.499 101.017 108.03 103.098 107.489 105.191C106.93 107.395 106.541 109.639 106.327 111.903C106.211 113.067 106.03 114.189 106.062 115.366C106.086 116.201 106.082 117.222 106.381 118.018C106.565 118.512 107.029 119.267 107.546 119.49C108.221 119.781 109.075 119.216 109.642 118.935C111.863 117.836 113.749 116.166 115.512 114.446C117.248 112.753 119.012 111.148 120.458 109.181C121.112 108.284 121.839 107.4 122.388 106.434C122.846 105.626 123.159 104.746 123.577 103.918C123.968 103.142 124.252 102.322 124.62 101.536C125.078 100.582 125.469 99.597 125.791 98.589C126.386 96.6585 126.908 94.6882 126.236 92.686C125.958 91.8497 125.467 91.0998 124.813 90.5093C124.158 89.9188 123.362 89.5079 122.501 89.3165C121.552 89.1122 120.485 88.8378 119.508 88.9064C118.521 88.9948 117.553 89.232 116.637 89.61C115.85 89.9253 115.092 90.3063 114.37 90.7491C113.971 90.998 113.701 91.3442 113.385 91.684C112.839 92.2523 112.351 92.8732 111.927 93.5379C111.737 93.8361 111.518 94.1146 111.273 94.3691C110.903 94.7775 110.748 95.3822 111.152 94.5638Z" fill="#7D72B3"/>
</g>
<g style="mix-blend-mode:multiply" opacity="0.4">
<path fill-rule="evenodd" clip-rule="evenodd" d="M102.588 119.677C101.437 120.111 100.479 120.531 99.4965 121.26C98.3191 122.134 97.2231 123.031 96.3807 124.237C96.0728 124.679 95.4569 125.437 95.918 125.958C96.32 126.411 96.9694 126.372 97.5134 126.36C98.3101 126.351 99.098 126.192 99.8363 125.893C100.521 125.606 101.14 125.229 101.847 124.985C102.525 124.752 103.442 124.302 103.905 123.718C104.165 123.387 104.316 122.93 104.556 122.574C104.65 122.452 104.718 122.311 104.755 122.161C104.792 122.011 104.797 121.854 104.771 121.702C104.702 121.223 104.486 120.777 104.154 120.425C103.871 120.167 103.332 119.909 102.954 119.956C102.734 119.986 102.52 120.044 102.316 120.129C101.853 120.327 101.48 120.896 102.588 119.677Z" fill="#7D72B3"/>
</g>
<g style="mix-blend-mode:multiply" opacity="0.4">
<path fill-rule="evenodd" clip-rule="evenodd" d="M101.141 112.995C100.905 112.129 100.638 111.446 100.715 110.576C100.782 109.79 100.772 109.124 101.185 108.413C101.359 108.113 101.863 107.165 102.202 107.046C102.391 107.013 102.585 107.009 102.776 107.034C103.363 107.111 103.716 107.832 103.837 108.362C104.024 109.175 103.894 110.133 103.901 110.965C103.918 111.6 103.805 112.232 103.57 112.823C103.373 113.314 102.98 113.301 102.482 113.287C101.985 113.272 101.792 113.127 101.431 112.845C101.299 112.741 101.112 112.703 100.984 112.599C100.823 112.457 100.877 112.263 101.141 112.995Z" fill="#7D72B3"/>
</g>
<g style="mix-blend-mode:multiply" opacity="0.4">
<path fill-rule="evenodd" clip-rule="evenodd" d="M100.122 78.5995C100.021 79.1997 99.9785 79.8083 99.9955 80.4166C100.216 80.4166 100.445 80.8235 100.731 80.8953C101.133 80.9958 101.551 80.7469 101.862 80.4964C102.548 79.9492 102.736 78.9106 102.583 78.0905C102.43 77.2705 101.508 77.2067 100.844 77.2928C100.58 77.3242 100.328 77.4231 100.114 77.58C99.7099 77.9374 99.6749 78.3697 99.686 78.893L100.122 78.5995Z" fill="#7D72B3"/>
</g>
<g style="mix-blend-mode:multiply" opacity="0.4">
<path fill-rule="evenodd" clip-rule="evenodd" d="M48.1672 116.043C48.5373 115.405 48.858 114.706 49.3335 114.14C49.877 113.478 50.4632 112.853 51.0884 112.268C51.851 111.573 52.7349 110.931 53.5517 110.299C54.3095 109.712 55.0849 109.141 55.897 108.632C57.3153 107.744 58.7783 107.158 60.3514 106.614C61.6215 106.152 62.993 106.042 64.3207 106.295C65.6912 106.576 67.0217 107.348 68.03 108.3C68.9969 109.216 70.0132 110.328 70.6082 111.533C71.8255 113.993 71.3549 116.66 70.5221 119.159C70.1504 120.276 69.375 121.609 68.4401 122.334C67.9011 122.738 67.2804 123.019 66.6213 123.158C65.8826 123.318 65.0435 123.576 64.2968 123.672C61.0166 124.087 57.6535 123.849 54.5377 122.702C53.3044 122.249 52.0951 121.692 50.9129 121.118C49.9883 120.695 49.1822 120.051 48.566 119.242C48.1034 118.618 47.7077 117.876 47.7317 117.083C47.7428 116.727 47.8625 116.408 47.9072 116.064C48.0555 116.06 48.1847 115.965 48.1672 116.043Z" fill="#7D72B3"/>
</g>
<g style="mix-blend-mode:multiply" opacity="0.4">
<path fill-rule="evenodd" clip-rule="evenodd" d="M72.8411 117.492C72.6126 118.087 72.4661 118.709 72.4055 119.343C72.6273 119.471 72.6145 119.836 72.7804 120.039C72.858 120.145 72.9585 120.233 73.0745 120.295C73.1904 120.358 73.319 120.393 73.4505 120.399C73.7587 120.424 74.0685 120.419 74.3758 120.385C74.8257 120.315 74.9247 120.149 75.1576 119.817C75.4192 119.445 75.4878 119.284 75.4559 118.791C75.4444 118.442 75.3337 118.104 75.1368 117.816C74.9805 117.599 74.7971 117.403 74.5912 117.232C74.1621 116.923 73.8398 117.098 73.4282 117.349L72.8411 117.492Z" fill="#7D72B3"/>
</g>
<g style="mix-blend-mode:multiply" opacity="0.4">
<path fill-rule="evenodd" clip-rule="evenodd" d="M126.533 89.1957C126.039 88.8112 125.619 88.3397 125.293 87.8045C125.339 87.5877 125.33 87.3629 125.268 87.1504C125.187 86.592 125.083 86.1373 125.198 85.5709C125.342 84.9237 125.686 84.3382 126.181 83.8971C126.676 83.4559 127.297 83.1814 127.956 83.1124C128.837 83.0119 130.118 83.725 130.582 84.4398C131.075 85.1976 131.276 86.2171 131.316 87.1009C131.35 87.8348 131.185 88.7091 130.742 89.3201C130.434 89.7461 129.812 89.7621 129.323 89.778C128.758 89.7941 128.194 89.7082 127.659 89.5243C127.254 89.3887 126.804 89.0936 126.533 89.1957Z" fill="#7D72B3"/>
</g>
</g>
<path style="mix-blend-mode:screen" fill-rule="evenodd" clip-rule="evenodd" d="M47.7615 121.555C42.1009 116.817 37.4595 110.981 34.1175 104.399C31.986 100.196 30.415 95.7321 29.4446 91.1207C29.4359 91.1063 29.4325 91.0894 29.435 91.0728C28.6639 87.3775 28.2747 83.6128 28.2735 79.8379C28.2744 65.4023 34.0093 51.5582 44.2168 41.3506C54.4243 31.1431 68.2685 25.4082 82.7041 25.4074C83.8927 25.4074 85.0637 25.4457 86.2347 25.5206C89.8617 25.7551 93.4561 26.3526 96.9639 27.3043C92.623 25.8855 88.1201 25.0214 83.5624 24.7325C82.393 24.6559 81.222 24.6192 80.0318 24.6192C72.8841 24.6167 65.8059 26.0227 59.2018 28.7569C52.5977 31.4911 46.5971 35.4999 41.543 40.5542C36.4889 45.6085 32.4803 51.6092 29.7463 58.2133C27.0123 64.8175 25.6065 71.8957 25.6092 79.0434C25.6098 82.8182 25.9984 86.583 26.769 90.2783C26.7665 90.2949 26.7699 90.3118 26.7786 90.3262C27.7492 94.9393 29.3208 99.4052 31.4532 103.61C34.9091 110.416 39.753 116.422 45.6726 121.241C51.5921 126.061 58.456 129.586 65.8215 131.59C59.2146 129.432 53.0836 126.025 47.7615 121.555Z" fill="url(#paint5_radial_1_3552)"/>
<g style="mix-blend-mode:multiply" opacity="0.4">
<path fill-rule="evenodd" clip-rule="evenodd" d="M31.9226 73.1874C31.9226 73.1874 62.3949 85.6205 78.9377 84.6265C95.4805 83.6326 102.516 74.1575 109.118 65.5055C115.72 56.8536 118.199 46.4484 118.199 46.4484C118.199 46.4484 105.672 70.6188 90.12 77.0196L81.1857 78.8288C81.1857 78.8288 85.8442 75.3524 89.0973 71.8218C92.3503 68.2911 104.892 63.1539 106.058 59.0282C107.224 54.9025 107.09 48.1204 109.12 43.784C111.149 39.4477 113.174 35.866 113.174 35.866L107.795 34.9359L105.27 40.8645C105.27 40.8645 104.562 50.7273 102.631 56.0751C100.701 61.4229 81.8334 76.064 77.58 78.5161C73.3267 80.9683 35.7564 75.7911 31.9226 73.1874Z" fill="#7D72B3"/>
</g>
<g style="mix-blend-mode:soft-light">
<g style="mix-blend-mode:multiply" opacity="0.4">
<path fill-rule="evenodd" clip-rule="evenodd" d="M86.2928 125.311C86.4077 125.268 88.3668 124.376 88.9428 124.418C89.1821 124.435 89.4326 124.63 89.6128 124.737C90.1377 125.031 90.476 125.468 90.4105 126.079C90.326 126.953 89.3704 128.095 88.3222 128.472C87.0235 128.95 85.6546 128.347 85.1936 127.491C84.7325 126.634 85.9131 125.026 87.2181 124.997L86.2928 125.311Z" fill="#7D72B3"/>
</g>
<path fill-rule="evenodd" clip-rule="evenodd" d="M60.791 71.1527C60.0731 72.3796 58.2719 74.6276 58.8159 76.3841C59.0504 77.1355 59.5849 77.9173 59.9216 78.6272C60.8421 80.5752 62.696 82.5312 65.0013 81.1225C67.5875 79.5414 66.4643 76.6553 65.3699 74.5574C64.963 73.7756 64.3664 72.812 63.5543 72.3716C63.0302 72.1059 62.4742 71.9086 61.8999 71.7845C61.0383 71.6138 61.6494 71.0602 60.791 71.1464V71.1527Z" fill="#FF9F84"/>
<path fill-rule="evenodd" clip-rule="evenodd" d="M78.2054 31.0967C78.1037 31.7249 78.0855 32.3638 78.1512 32.9968C78.3538 32.957 78.5037 33.142 78.7143 33.1388C78.9908 33.1054 79.2549 33.0046 79.4833 32.8453C79.8869 32.5693 80.0943 31.9997 80.0928 31.5323C80.0912 31.0648 80.0449 30.6324 79.5854 30.3644C79.0366 30.0453 78.4894 30.2735 78.2054 30.8064V31.0967Z" fill="#FFEF84"/>
<path fill-rule="evenodd" clip-rule="evenodd" d="M66.7425 90.3079C66.8462 89.9058 67.0041 88.8114 67.3344 88.3312C67.6056 87.9339 68.1082 87.7106 68.5437 87.567C69.501 87.2479 70.4805 87.291 71.2416 87.977C72.5753 89.1799 72.5291 90.9764 71.2543 92.208C70.6768 92.768 69.8823 93.3344 69.0527 93.3679C68.6442 93.3838 68.1066 93.4317 67.7556 93.2243C67.3223 92.9562 66.9991 92.542 66.8446 92.0564C66.6085 91.2827 66.7553 90.6956 67.1781 90.0175L66.7425 90.3079Z" fill="#FF9F84"/>
<path fill-rule="evenodd" clip-rule="evenodd" d="M56.7274 89.7251C56.7274 90.3314 56.3748 91.7561 57.2475 92.0369C57.6687 92.1741 58.1154 91.6125 58.184 91.2551C58.2528 90.8397 58.2144 90.4135 58.0723 90.0171C57.8585 89.5273 57.4342 89.1859 57.0178 89.7251H56.7274Z" fill="#FF9F84"/>
<path fill-rule="evenodd" clip-rule="evenodd" d="M33.5065 79.1297C33.5815 80.087 33.5767 81.491 34.1591 82.3732C34.4016 82.7402 34.6377 83.1183 35.1035 83.1996C35.5104 83.2714 35.7417 83.0273 35.9746 82.721C36.383 82.1881 36.4389 81.8228 36.415 81.1543C36.3795 80.5327 36.2165 79.9251 35.9363 79.3691C35.7417 78.9814 35.4083 78.6958 35.0987 78.3927C34.8211 78.1214 34.6201 78.0608 34.2245 78.1023C33.698 78.1581 33.7331 78.7915 33.6469 79.267L33.5065 79.1297Z" fill="#FF9F84"/>
<path fill-rule="evenodd" clip-rule="evenodd" d="M114.196 74.6348C114.21 74.5454 114.319 72.9341 114.617 72.5719C114.743 72.4124 115.034 72.3182 115.206 72.2337C115.712 71.9848 116.259 71.9146 116.779 72.1587C117.524 72.5129 118.108 73.5371 117.966 74.3619C117.791 75.3862 116.626 76.0914 115.645 76.1041C114.664 76.1169 113.767 74.7847 114.341 73.9088L114.196 74.6348Z" fill="#FF9F84"/>
<path fill-rule="evenodd" clip-rule="evenodd" d="M58.2344 87.557C58.2344 87.5123 58.295 86.7066 58.445 86.5263C58.5314 86.4521 58.6309 86.3947 58.7385 86.3572C58.8576 86.29 58.9907 86.2516 59.1273 86.2449C59.2638 86.2383 59.4 86.2636 59.5251 86.3189C59.7215 86.4239 59.8826 86.5844 59.9882 86.7806C60.0938 86.9767 60.1392 87.1996 60.1186 87.4214C60.0308 87.9319 59.4485 88.2845 58.9587 88.2909C58.4689 88.2973 58.019 87.632 58.3061 87.1948L58.2344 87.557Z" fill="#FF9F84"/>
<path fill-rule="evenodd" clip-rule="evenodd" d="M83.0274 97.5045C83.0274 97.4582 83.0881 96.6541 83.238 96.4722C83.3249 96.3986 83.4243 96.3413 83.5316 96.3031C83.6508 96.2362 83.7839 96.198 83.9204 96.1914C84.0569 96.1847 84.193 96.2099 84.3181 96.2648C84.5146 96.3697 84.6758 96.5303 84.7813 96.7264C84.8869 96.9225 84.9322 97.1455 84.9116 97.3673C84.8239 97.8794 84.2415 98.232 83.7518 98.2383C83.262 98.2447 82.8121 97.5794 83.0993 97.1407L83.0274 97.5045Z" fill="#FF9F84"/>
<path fill-rule="evenodd" clip-rule="evenodd" d="M99.757 53.619C99.757 53.5743 99.8193 52.7686 99.9676 52.5883C100.054 52.5137 100.155 52.4564 100.263 52.4192C100.382 52.3519 100.515 52.3133 100.651 52.3067C100.788 52.3001 100.924 52.3255 101.049 52.3809C101.245 52.4862 101.406 52.6469 101.511 52.843C101.617 53.0391 101.662 53.2618 101.641 53.4834C101.553 53.9939 100.971 54.3465 100.481 54.3529C99.9916 54.3592 99.5432 53.694 99.8304 53.2568L99.757 53.619Z" fill="#FF9F84"/>
<path fill-rule="evenodd" clip-rule="evenodd" d="M65.6404 117.303C65.6404 117.259 65.701 116.453 65.851 116.271C65.9389 116.2 66.0389 116.146 66.1462 116.112C66.2652 116.044 66.3983 116.006 66.5349 115.999C66.6715 115.992 66.8077 116.018 66.9327 116.073C67.1287 116.179 67.2894 116.339 67.3947 116.535C67.5 116.731 67.5451 116.954 67.5246 117.176C67.4369 117.686 66.8545 118.039 66.3647 118.045C65.8749 118.052 65.425 117.386 65.7138 116.949L65.6404 117.303Z" fill="#FF9F84"/>
<path fill-rule="evenodd" clip-rule="evenodd" d="M110.568 88.2759C109.742 88.7929 109.233 89.0226 108.74 89.7804C108.373 90.3452 107.972 90.8669 107.685 91.4827C107.457 91.9693 107.178 92.7016 107.221 93.2488C107.333 94.6847 109.108 93.4211 109.614 92.9872C110.302 92.4033 110.953 91.6088 111.005 90.6818C111.025 90.3181 111.036 89.9112 110.894 89.565C110.831 89.4183 110.755 89.2459 110.68 89.1024C110.517 88.7944 110.372 88.7881 110.568 88.2759Z" fill="#FF9F84"/>
<path fill-rule="evenodd" clip-rule="evenodd" d="M127.984 94.5132C128.048 93.8831 127.729 96.1597 127.858 96.2586C128.071 96.2748 128.284 96.2748 128.496 96.2586C128.779 96.2155 128.855 96.0735 129.077 95.9028C129.53 95.5534 129.859 95.3492 129.875 94.7286C129.889 94.2149 129.798 93.9038 129.292 93.749C129.072 93.682 128.965 93.5895 128.725 93.6629C128.233 93.8033 127.892 94.2165 127.697 94.6552L127.984 94.5132Z" fill="#FF9F84"/>
<path fill-rule="evenodd" clip-rule="evenodd" d="M81.728 31.3938C81.7711 30.9662 81.5557 32.5106 81.6434 32.576C81.7863 32.5864 81.9297 32.5864 82.0726 32.576C82.264 32.5473 82.3151 32.45 82.4651 32.3351C82.7714 32.099 82.9948 31.9602 83.0075 31.5374C83.0171 31.1896 82.9549 30.979 82.6135 30.8753C82.4635 30.829 82.3917 30.7684 82.2273 30.8163C82.0696 30.871 81.9257 30.9595 81.8056 31.0755C81.6854 31.1915 81.592 31.3322 81.5318 31.4879L81.728 31.3938Z" fill="#FFEF84"/>
<path fill-rule="evenodd" clip-rule="evenodd" d="M111.218 75.8035C111.261 75.3759 111.046 76.9203 111.133 76.9857C111.276 76.9976 111.42 76.9976 111.563 76.9857C111.754 76.9569 111.805 76.8612 111.955 76.7448C112.261 76.5086 112.485 76.3714 112.497 75.9471C112.507 75.5977 112.445 75.3871 112.103 75.2834C111.953 75.2371 111.882 75.1781 111.717 75.2243C111.559 75.2794 111.415 75.3681 111.295 75.4843C111.175 75.6006 111.082 75.7416 111.022 75.8976L111.218 75.8035Z" fill="#FFEF84"/>
<path fill-rule="evenodd" clip-rule="evenodd" d="M80.1219 118.173C80.5511 118.173 78.9939 118.117 78.9365 118.211C78.9404 118.354 78.9548 118.497 78.9796 118.638C79.0274 118.825 79.1296 118.867 79.2604 119.004C79.5268 119.285 79.6864 119.492 80.1076 119.46C80.4538 119.435 80.6579 119.35 80.725 118.999C80.7553 118.839 80.8079 118.768 80.7441 118.61C80.6734 118.458 80.5705 118.324 80.4426 118.217C80.3148 118.109 80.165 118.031 80.0038 117.987L80.1219 118.173Z" fill="#FFEF84"/>
<path fill-rule="evenodd" clip-rule="evenodd" d="M55.3774 71.4777C55.4205 71.0501 55.2051 72.5945 55.2928 72.6599C55.4356 72.6719 55.5792 72.6719 55.722 72.6599C55.9134 72.6312 55.9645 72.5355 56.1144 72.419C56.4208 72.1829 56.6441 72.0441 56.6569 71.6213C56.6665 71.2735 56.6043 71.0629 56.2612 70.9592C56.1113 70.9129 56.0411 70.8523 55.8767 70.9002C55.7188 70.955 55.5747 71.0437 55.4545 71.16C55.3344 71.2762 55.2411 71.4174 55.1812 71.5734L55.3774 71.4777Z" fill="#FFEF84"/>
<path fill-rule="evenodd" clip-rule="evenodd" d="M79.2915 113.556C79.3553 112.918 79.0362 115.203 79.1654 115.301C79.3779 115.318 79.5912 115.318 79.8036 115.301C80.086 115.258 80.1626 115.116 80.3844 114.946C80.8359 114.596 81.1661 114.392 81.1821 113.77C81.1964 113.256 81.1039 112.945 80.5997 112.792C80.378 112.725 80.2727 112.632 80.0302 112.706C79.5388 112.846 79.1989 113.259 79.0043 113.698L79.2915 113.556Z" fill="#FF9F84"/>
</g>
<path fill-rule="evenodd" clip-rule="evenodd" d="M48.8918 77.7199C66.5243 80.5087 65.4362 85.1625 85.9053 79.5881C106.374 74.0138 121.024 43.2303 121.024 43.2303C121.024 43.2303 122.046 40.9521 121.183 39.612C120.838 39.0775 118.152 40.1863 118.152 40.1863C118.614 50.0667 104.789 70.4688 89.1711 76.3447C87.5039 76.9717 85.8208 77.1886 84.2541 77.5428C83.5186 77.1727 81.7014 75.5055 90.2592 69.7094C100.31 62.8906 104.844 60.3459 103.913 53.2575C102.981 46.1691 111.93 34.9374 111.93 34.9374C111.93 34.9374 112.577 31.9492 110.886 30.0874C108.709 27.6943 103.913 30.1257 103.913 30.1257C103.913 30.1257 102.668 44.0217 85.0358 51.5313C67.4034 59.0409 57.606 55.3124 50.859 53.2575C44.112 51.2026 42.1002 40.0284 42.1002 40.0284C42.1002 40.0284 36.387 38.843 34.3146 42.4853C32.791 45.1624 35.0006 48.4888 35.0006 48.4888C35.0006 48.4888 45.634 52.3433 55.2129 56.0176C64.7917 59.6918 83.0767 56.4005 89.6067 53.2575C96.1367 50.1145 96.1367 45.097 101.362 40.5309C103.215 38.9132 105.285 37.5607 107.51 36.5121C107.51 36.5121 101.797 45.3251 102.45 51.5313C103.102 57.7374 99.1855 57.5156 89.6067 68.4011C82.8852 76.0399 77.0189 78.4522 74.1105 79.226C66.7333 79.8944 60.0358 79.0664 50.859 76.5776C36.0552 72.5619 27.1672 66.1261 27.1672 66.1261C27.1672 66.1261 25.8781 65.5134 25.3899 66.9238C25.1809 67.5236 26.5067 69.2084 26.5067 69.2084C26.5067 69.2084 31.2578 74.9247 48.8918 77.7199Z" fill="url(#paint6_linear_1_3552)"/>
<path fill-rule="evenodd" clip-rule="evenodd" d="M61.2843 129.879C61.2843 129.879 56.9447 127.167 53.6789 118.791C50.4131 110.415 50.8503 110.956 44.7542 105.673C38.6582 100.391 28.0567 95.1995 28.0567 95.1995C28.0567 95.1995 27.3404 95.4452 27.3388 95.659C27.3388 96.7471 28.5975 96.8715 28.5975 96.8715C28.5975 96.8715 38.4891 101.114 44.6713 107.937C50.8535 114.761 57.5271 126.868 52.7728 126.147C52.7728 126.147 53.8433 129.179 56.3465 129.879C58.8497 130.579 61.2843 129.879 61.2843 129.879Z" fill="url(#paint7_radial_1_3552)"/>
<path d="M104.62 89.3253C106.641 87.1651 109.087 84.2583 118.991 84.2008C128.896 84.1434 133.988 86.3259 133.988 86.3259C133.988 86.3259 136.025 85.7531 136.244 83.1032C136.307 82.3461 136.176 81.5856 135.863 80.8931C135.551 80.2007 135.068 79.5991 134.459 79.145C134.357 79.973 133.356 85.4181 124.947 82.1906C124.947 82.1092 127.922 79.4098 128.565 73.9184C129.221 68.3456 131.207 60.442 131.207 60.442C131.207 60.442 132.38 58.4876 131.617 56.9098C131.367 56.3912 129.438 56.1551 129.438 56.1551C131.105 67.2655 126.9 80.651 122.327 82.1906C116.778 82.2592 110.011 83.2244 106.943 85.2458C103.174 87.7394 99.3948 99.0094 96.9714 106.943C96.3619 108.909 95.1207 111.045 93.5349 113.183C87.4723 114.641 89.3868 107.369 86.7687 105.129C84.1507 102.889 79.1506 104.094 75.888 102.896C72.6254 101.698 71.7527 99.1051 68.2715 98.6919C64.7904 98.2787 59.2974 104.754 53.037 102.081C46.7766 99.4067 25.8081 74.5757 25.8081 74.5757C25.8081 74.5757 23.916 74.121 23.5363 75.4277C23.2427 76.4312 25.6103 79.0572 25.6103 79.0572C25.6103 79.0572 40.1907 101.058 54.1155 103.918C68.0402 106.779 80.6774 104.102 85.0313 107.883C89.3852 111.664 89.6963 117.671 89.6963 117.717C85.1701 122.519 79.851 126.651 77.3351 127.928C72.9796 130.121 65.8226 131.615 65.8226 131.615C66.799 132.741 68.7629 133.646 70.8816 134.211C73.9337 135.027 75.8865 133.488 75.8865 133.488C75.8865 133.488 74.1171 131.948 76.4273 130.018C82.3096 125.125 86.4784 122.987 92.5808 121.54C96.279 120.665 97.383 122.337 97.911 121.803V121.816C103.599 123.619 108.103 119.357 112.996 115.434C117.889 111.511 124.152 110.953 124.152 110.953C124.152 110.953 127.399 110.407 128.241 108.973C129.009 107.666 127.196 106.243 127.196 106.243C127.196 106.243 124.428 107.381 119.219 110.023C114.01 112.665 108.398 120.351 102.021 120.11C98.5109 119.984 99.24 116.422 98.9066 115.916C98.9066 115.664 98.9193 115.41 98.9066 115.158V115.147C98.8045 112.562 98.2684 110.219 98.2684 108.346C98.2619 107.894 98.3042 107.443 98.3945 107.001C98.9608 104.215 102.597 91.4855 104.62 89.3253ZM93.5205 113.199C92.3535 114.754 91.0952 116.239 89.7521 117.645L93.5205 113.199ZM98.404 117.047C98.4838 117.645 98.5987 118.231 98.5077 118.829C98.4726 119.139 98.4152 119.392 98.1169 119.494C97.9446 119.552 97.7483 119.576 97.576 119.622C97.3087 119.707 97.0364 119.776 96.7608 119.828C96.3211 119.86 95.8799 119.864 95.4398 119.839C94.9688 119.864 94.4968 119.86 94.0262 119.828C93.8077 119.794 93.5891 119.748 93.3721 119.713C93.1551 119.678 92.8536 119.667 92.659 119.553C92.1883 119.29 91.9123 118.796 91.5566 118.681C91.5901 118.268 91.5677 117.899 91.74 117.532C91.7863 117.395 91.8326 117.256 91.8661 117.119C91.9462 116.885 92.0383 116.655 92.1421 116.43C92.3726 115.844 92.6652 115.285 93.0147 114.762C93.187 114.499 93.3593 114.234 93.5205 113.965C93.7304 113.681 93.9694 113.419 94.2337 113.185C94.5787 112.809 94.977 112.487 95.4158 112.227C95.7732 112.031 96.3475 111.757 96.7496 111.908C97.1516 112.06 97.3351 112.586 97.4963 112.955C97.5914 113.229 97.6681 113.508 97.726 113.792C97.8169 114.15 97.9781 114.471 98.0594 114.839C98.1504 115.241 98.1504 115.654 98.2317 116.056C98.3003 116.382 98.3466 116.715 98.404 117.047Z" fill="url(#paint8_linear_1_3552)"/>
<path fill-rule="evenodd" clip-rule="evenodd" d="M36.4178 41.291C36.4178 41.291 38.8747 46.3404 45.1926 50.8905C45.1926 50.8905 43.0978 43.566 41.5869 40.5204C41.5837 40.5236 39.5129 38.5708 36.4178 41.291Z" fill="#FFFF0E"/>
<path fill-rule="evenodd" clip-rule="evenodd" d="M69.5234 56.6955C69.5234 56.6955 73.8182 54.9661 75.1504 55.6122C75.1504 55.6122 71.039 56.7497 69.5234 56.6955Z" fill="#FFFF0E"/>
<path fill-rule="evenodd" clip-rule="evenodd" d="M83.8828 52.7211C84.655 52.4722 85.4416 52.2425 86.1978 51.9474C86.8622 51.6854 87.5082 51.3789 88.1314 51.03C88.9302 50.5933 89.6946 50.0962 90.4176 49.5431C90.6043 49.3995 90.8181 49.307 91.0095 49.1745C91.2345 49.015 91.4531 48.8411 91.6716 48.6784C91.8647 48.5332 92.0194 48.3322 92.2045 48.1742C92.3896 48.0163 92.5778 47.8551 92.7709 47.7115C93.0979 47.4595 93.4362 47.1819 93.7361 46.8979C93.8813 46.7591 94.0201 46.6139 94.1732 46.4847C94.2702 46.4145 94.378 46.3606 94.4923 46.3251C94.5386 46.424 94.4189 46.6586 94.379 46.7543C94.278 46.9479 94.1639 47.1345 94.0376 47.3127C93.7807 47.7514 93.3596 48.0306 93.0469 48.4295C92.8237 48.6855 92.5635 48.9065 92.2747 49.0852C91.8702 49.3454 91.451 49.5819 91.0191 49.7936C90.5931 50.0153 90.1401 50.1493 89.7237 50.3918C89.3073 50.6343 88.9259 50.8003 88.5239 50.9885C88.2559 51.1292 87.996 51.2848 87.7453 51.4544L87.0912 51.8453C86.7721 52.0399 86.453 52.2281 86.1148 52.4084C85.9361 52.5026 85.7542 52.5791 85.5771 52.6765C85.1745 52.912 84.7193 53.0431 84.253 53.0578C84.0914 53.0747 83.9281 53.0562 83.7744 53.0035C83.709 52.9732 83.5733 52.9349 83.567 52.852C83.6754 52.8312 83.7728 52.6892 83.8828 52.7211Z" fill="#FFFF0E"/>
<path fill-rule="evenodd" clip-rule="evenodd" d="M95.4742 45.2622C95.2757 45.3618 95.0985 45.499 94.9525 45.6663C94.9525 45.7856 94.8857 45.9224 95.094 45.916C95.1967 45.9049 95.2959 45.8724 95.3852 45.8206C95.4745 45.7688 95.552 45.6989 95.6126 45.6154C95.6826 45.5358 95.8306 45.2972 95.7431 45.1843C95.6365 45.0411 95.3438 45.2384 95.2579 45.3163L95.4742 45.2622Z" fill="#FFFF0E"/>
<path fill-rule="evenodd" clip-rule="evenodd" d="M104.671 30.4615C104.478 30.6774 104.313 30.9171 104.181 31.1747C104.104 31.3693 104.036 31.5703 103.961 31.7666C103.816 32.1527 103.733 32.5515 103.61 32.9424C103.386 33.6571 103.214 34.3783 102.928 35.0787C102.801 35.3977 102.645 35.6945 102.493 35.9992C102.413 36.1587 102.29 36.3103 102.219 36.4778C102.147 36.6453 102.069 36.749 102.002 36.8942C101.958 37.0338 101.9 37.1685 101.829 37.2963C101.733 37.4396 101.646 37.5894 101.569 37.7446C101.497 37.8722 101.218 38.1865 101.303 38.3508C101.389 38.3652 101.47 38.2344 101.521 38.1913C101.681 38.0318 101.856 37.9041 102.019 37.751C102.322 37.4654 102.589 37.1415 102.877 36.84C103.002 36.7092 103.086 36.5544 103.197 36.4156C103.356 36.2146 103.548 36.0534 103.702 35.846C103.953 35.511 104.229 35.1903 104.5 34.8776C104.64 34.7181 104.738 34.5362 104.875 34.3751C105.012 34.2139 105.143 34.0975 105.274 33.9555C105.684 33.504 106.118 33.0716 106.513 32.6074C106.831 32.2339 107.126 31.8418 107.397 31.4331C107.613 31.1141 107.804 30.795 107.999 30.452C108.078 30.3179 108.252 29.9941 108.192 29.8282C108.114 29.6176 107.873 29.5314 107.667 29.5091C107.337 29.4577 107.002 29.4647 106.675 29.5298C106.351 29.6164 106.035 29.729 105.73 29.8664C105.448 29.9845 105.218 30.1855 104.947 30.3275C104.76 30.4089 104.54 30.495 104.671 30.4615Z" fill="#FFFF0E"/>
<path fill-rule="evenodd" clip-rule="evenodd" d="M107.501 36.9923C107.407 37.2279 107.295 37.4557 107.165 37.6735C107.042 37.8442 106.927 38.0022 106.82 38.184C106.635 38.5031 106.458 38.8222 106.275 39.1413C105.941 39.7188 105.523 40.2581 105.268 40.8739C105.167 41.118 105.062 41.3525 104.949 41.5918C104.841 41.8448 104.75 42.1049 104.678 42.3704C104.605 42.6264 104.546 42.8864 104.502 43.1489C104.454 43.3611 104.355 43.5622 104.416 43.7871C104.625 43.5175 104.772 43.216 104.963 42.9336C105.079 42.7271 105.22 42.5362 105.384 42.3656C105.558 42.2015 105.721 42.0273 105.874 41.8439C106.039 41.6691 106.186 41.4783 106.313 41.2743C106.425 41.0829 106.493 40.8835 106.624 40.7016C106.755 40.5197 106.831 40.3346 106.943 40.1576C107.084 39.9543 107.202 39.736 107.294 39.5066C107.454 39.0615 107.613 38.5909 107.73 38.1346C107.794 37.8977 107.812 37.6508 107.784 37.4071C107.744 37.2252 107.465 36.7354 107.501 36.9923Z" fill="#FFFF0E"/>
<path fill-rule="evenodd" clip-rule="evenodd" d="M103.744 44.4495C103.66 44.7383 103.548 45.0638 103.483 45.3637C103.467 45.4387 103.441 45.5966 103.502 45.6445C103.562 45.6924 103.736 45.6253 103.787 45.5775C103.842 45.5172 103.887 45.4488 103.921 45.3749C104.035 45.2161 104.089 45.0222 104.073 44.8276C104.028 44.633 103.848 44.4655 103.69 44.6681L103.744 44.4495Z" fill="#FFFF0E"/>
<path fill-rule="evenodd" clip-rule="evenodd" d="M98.0321 60.2297C97.4195 60.8184 96.7095 61.3369 96.2102 62.0309C96.1623 62.0979 95.9102 62.3867 95.9725 62.5096C96.0347 62.6324 96.3267 62.5542 96.4192 62.5239C96.7785 62.3882 97.1281 62.2283 97.4657 62.0453C97.7186 61.9088 97.9641 61.7592 98.2012 61.597C98.7533 61.2236 99.2468 60.7703 99.6658 60.252C99.8649 60.038 100.027 59.7921 100.144 59.5245C100.173 59.4496 100.288 59.2342 100.261 59.1448C100.172 58.8465 99.4632 59.164 99.3148 59.2549C99.1512 59.3746 98.9941 59.5029 98.8442 59.6394C98.7205 59.7402 98.5916 59.8344 98.4581 59.9218C98.3464 59.9968 98.2411 60.0957 98.139 60.1787C98.0369 60.2616 97.9492 60.4531 98.0321 60.2297Z" fill="#FFFF0E"/>
<path fill-rule="evenodd" clip-rule="evenodd" d="M95.2572 63.0596C95.0472 63.1566 94.8404 63.2568 94.6352 63.3586C94.6352 63.4541 94.3775 63.6291 94.5048 63.7563C94.5748 63.8263 94.807 63.734 94.8754 63.7118C95.0079 63.6523 95.125 63.563 95.2174 63.4509C95.3303 63.3427 95.3192 63.2998 95.2572 63.1677V63.0596Z" fill="#FFFF0E"/>
<path fill-rule="evenodd" clip-rule="evenodd" d="M81.1809 76.5217C80.6778 76.9044 80.1442 77.2454 79.5855 77.5412C78.9314 77.8874 78.231 78.1522 77.5849 78.516C76.5814 79.0839 75.5188 79.5115 74.4675 79.9774C74.2999 80.0507 72.754 80.657 73.3379 80.9665C73.6075 81.1101 73.8771 81.0814 74.1707 81.0894C74.4116 81.0894 74.6493 81.1596 74.8855 81.1691C75.1216 81.1787 75.3784 81.1691 75.6257 81.1691C76.9149 81.1635 78.1891 80.8919 79.3685 80.3714C79.6485 80.2759 79.9192 80.1552 80.1774 80.0109C80.3214 79.8994 80.4569 79.7773 80.5827 79.6455C80.83 79.4114 81.0332 79.1347 81.1825 78.8287C81.4207 78.4153 81.5456 77.9464 81.5447 77.4694C81.5421 77.2734 81.4748 77.0838 81.3532 76.9301C81.2495 76.8105 81.1267 76.777 81.1809 76.5217Z" fill="#FFFF0E"/>
<path fill-rule="evenodd" clip-rule="evenodd" d="M72.183 80.3656C71.9006 80.2268 71.5831 80.013 71.2752 80.0002C71.1677 79.9982 71.0604 80.0106 70.9561 80.0369C70.72 80.0864 70.3467 80.1151 70.1664 80.2938C69.892 80.5666 70.4855 80.7835 70.6977 80.8378C70.9967 80.9002 71.3039 80.9131 71.607 80.8761C71.8288 80.8474 72.2723 80.6543 72.2707 80.3783L72.3298 80.3656H72.183Z" fill="#FFFF0E"/>
<path fill-rule="evenodd" clip-rule="evenodd" d="M88.8722 76.882C90.0378 76.5211 91.1695 76.0588 92.2545 75.5004C92.6788 75.2866 93.0984 75.0457 93.5021 74.7936C93.7637 74.6341 94.0254 74.4203 94.2998 74.2831C94.4131 74.2257 95.0975 73.8284 95.1852 74.0183C95.3065 74.264 94.5662 74.7554 94.4609 74.8495C94.1756 75.0843 93.8779 75.3038 93.5691 75.5068C93.3122 75.6887 93.0282 75.7796 92.7586 75.9344C92.4052 76.1383 92.0391 76.3195 91.6626 76.4768C91.3841 76.6097 91.0962 76.7217 90.8011 76.8118C90.5761 76.8709 90.3511 76.9618 90.1246 77.0129C89.9555 77.0511 89.7848 77.0017 89.6156 77.0432C89.4066 77.0942 89.0142 77.1963 88.8722 76.882Z" fill="#FFFF0E"/>
<path fill-rule="evenodd" clip-rule="evenodd" d="M114.523 83.1974C115.092 83.1974 115.777 83.2564 116.365 83.1735C116.793 83.1112 117.221 83.0139 117.642 82.9788C118.489 82.9007 119.32 82.6821 120.172 82.6502C120.509 82.6374 120.848 82.6502 121.187 82.6502C121.395 82.6302 121.605 82.6302 121.814 82.6502C121.942 82.6919 122.061 82.7567 122.166 82.8416C122.37 83.0618 122.166 83.0299 122.032 83.1097C121.759 83.2882 121.457 83.4193 121.14 83.4973C120.608 83.609 120.079 83.7542 119.545 83.8308C119.172 83.885 118.798 83.818 118.428 83.877C117.94 83.9459 117.447 83.9741 116.954 83.9616H115.729C115.438 83.9513 115.148 83.9182 114.862 83.8627C114.606 83.8276 114.452 83.877 114.237 83.7574C114.137 83.7 113.975 83.5452 114.523 83.1974Z" fill="#FFFF0E"/>
<path fill-rule="evenodd" clip-rule="evenodd" d="M128.236 83.7393C128.965 83.8047 129.415 83.8988 130.072 83.7696C130.503 83.6882 130.937 83.618 131.367 83.5478C132.012 83.425 132.627 83.1755 133.175 82.8139C133.47 82.6241 134.065 82.2109 134.451 82.3194C134.619 82.3779 134.768 82.4802 134.884 82.6156C134.999 82.7511 135.076 82.9148 135.107 83.0899C135.136 83.4968 134.678 83.8302 134.397 84.0472C133.909 84.4349 133.18 84.5753 132.572 84.6104C131.836 84.6408 131.1 84.5656 130.386 84.387C130.166 84.3375 129.946 84.2721 129.726 84.2275C129.528 84.186 129.126 84.237 128.236 83.7393Z" fill="#FFFF0E"/>
<path fill-rule="evenodd" clip-rule="evenodd" d="M129.87 56.8565C129.826 57.3511 129.518 58.5764 130.14 58.9752C130.472 59.1874 130.63 58.629 130.635 58.3769C130.642 58.0148 130.41 57.0623 129.98 56.965L129.87 56.8565Z" fill="#FFFF0E"/>
<path fill-rule="evenodd" clip-rule="evenodd" d="M27.2658 68.1049C27.7827 68.767 28.164 69.4562 28.8804 69.8742C29.2984 70.1167 29.7036 70.4007 30.1711 70.5411C30.6066 70.6735 31.1666 70.8219 31.6213 70.7198C31.867 70.6639 31.9324 70.7469 31.9196 70.4294C31.8937 70.2705 31.8303 70.1201 31.7345 69.9907C31.5862 69.7657 31.358 69.6205 31.1841 69.4179C30.9767 69.1786 30.8555 68.9489 30.6034 68.7526C29.769 68.0985 28.9905 67.5561 27.9806 67.2306C27.6168 67.1126 27.5913 67.0711 27.2706 67.2705C27.0169 67.43 27.0074 67.3646 26.9707 67.663C26.9212 68.0602 27.2084 68.3745 27.411 68.6856L27.2658 68.1049Z" fill="#FFFF0E"/>
<path fill-rule="evenodd" clip-rule="evenodd" d="M27.7013 78.837C28.5559 80.1649 29.5022 81.4315 30.5332 82.6277C31.2559 83.4908 31.693 84.5788 32.5194 85.3718C32.655 85.5026 34.1021 86.747 34.0861 86.0291C34.0861 85.8695 33.6729 85.2218 33.5836 85.0718C33.3453 84.6659 33.0787 84.2773 32.7859 83.9088C32.5241 83.6234 32.2805 83.3218 32.0567 83.0058C31.855 82.6971 31.6254 82.4077 31.3708 82.1411C31.0198 81.7518 30.8331 81.2636 30.5236 80.8456C30.2364 80.4595 29.9428 80.0925 29.6652 79.7001C29.2935 79.1736 28.909 78.5833 28.3187 78.3615C28.1592 78.3041 27.9279 78.1334 27.7316 78.277C27.4125 78.5179 27.663 79.306 27.7013 78.837Z" fill="#FFFF0E"/>
<path fill-rule="evenodd" clip-rule="evenodd" d="M80.091 104.384C81.3067 104.167 82.2911 103.974 83.4877 104.255C84.0748 104.392 84.6651 104.574 85.2426 104.747C85.6143 104.858 86.1791 104.967 86.4488 105.244C86.7184 105.522 86.6338 106.058 86.3753 106.315C86.0228 106.666 85.2378 106.589 84.7975 106.548C83.9038 106.486 83.019 106.332 82.1571 106.088C81.6641 105.94 80.9749 105.694 80.5617 105.367C80.3686 105.217 79.8725 104.801 80.091 104.384Z" fill="#FFFF0E"/>
<path fill-rule="evenodd" clip-rule="evenodd" d="M96.7833 110.912C96.1675 110.776 96.1164 109.677 96.2871 109.238C96.3828 108.99 96.5392 108.589 96.8152 108.474C97.0912 108.359 97.1965 108.556 97.4358 108.642C97.1808 109.191 96.8645 109.709 96.4929 110.186L96.7833 110.912Z" fill="#FFFF0E"/>
<path fill-rule="evenodd" clip-rule="evenodd" d="M119.711 110.479C120.521 109.951 121.07 109.581 121.954 109.318C122.402 109.184 122.865 109.128 123.313 108.999C123.838 108.839 124.368 108.59 124.909 108.483C125.105 108.444 125.295 108.455 125.486 108.423C125.703 108.385 125.598 108.278 125.845 108.412C126.3 108.661 126.093 108.996 125.797 109.246C125.236 109.725 124.757 109.913 124.028 110.084C123.621 110.178 123.297 110.403 122.911 110.529C122.675 110.602 122.433 110.642 122.189 110.706C121.294 110.934 120.201 110.77 119.711 110.479Z" fill="#FFFF0E"/>
<path fill-rule="evenodd" clip-rule="evenodd" d="M46.5667 108.593C47.0773 109.647 47.5048 110.667 48.1717 111.61C48.47 112.037 48.6966 112.452 49.18 112.658C49.5629 112.817 49.8182 112.883 49.8756 112.361C49.9027 112.092 49.6794 111.702 49.531 111.439C49.1034 110.676 48.494 110.016 47.9866 109.319C47.7761 109.011 47.5309 108.728 47.2559 108.476C47.0709 108.325 46.5221 108.157 46.5667 108.593Z" fill="#FFFF0E"/>
<path fill-rule="evenodd" clip-rule="evenodd" d="M67.9016 131.811C69.0776 131.543 70.2321 131.189 71.3556 130.751C71.8342 130.576 72.3129 130.576 72.8027 130.472C72.8489 130.462 72.9016 130.368 72.9702 130.352C73.1187 130.336 73.2684 130.336 73.4169 130.352C73.5445 130.352 74.0997 130.279 74.2146 130.352C74.6677 130.686 73.6993 131.566 73.4903 131.788C73.0604 132.213 72.5429 132.538 71.9741 132.742C71.4054 132.945 70.799 133.022 70.1973 132.967C69.6039 132.907 69.0646 132.591 68.4887 132.525C68.1201 132.484 67.3081 132.347 67.3448 131.823C67.5298 131.806 67.7159 131.801 67.9016 131.811Z" fill="#FFFF0E"/>
<path fill-rule="evenodd" clip-rule="evenodd" d="M88.9457 119.476C87.8608 120.215 86.6658 120.856 85.8873 121.946C85.3512 122.699 86.3324 122.544 86.7664 122.38C87.1062 122.259 87.4281 122.092 87.7236 121.885C87.9705 121.695 88.1981 121.482 88.4032 121.247C88.5756 121.073 88.7941 120.928 88.9505 120.746C89.1068 120.564 89.1738 120.14 89.3621 120.014C89.3285 119.928 89.2885 119.844 89.2424 119.764L88.9457 119.476Z" fill="#FFFF0E"/>
<path fill-rule="evenodd" clip-rule="evenodd" d="M59.3381 102.785C60.1278 102.452 60.9128 102.171 61.6499 101.775C62.3359 101.408 62.9948 101.029 63.6952 100.681C64.5918 100.236 65.5602 99.6136 66.5988 99.5896C66.9913 99.5801 67.2498 99.3902 67.6103 99.5546C67.8844 99.6524 68.1239 99.8282 68.2996 100.06C68.8292 100.813 67.7794 101.538 67.2035 101.925C66.7632 102.222 66.3611 102.586 65.8682 102.793C65.2922 103.036 64.6732 103.146 64.0908 103.361C63.1256 103.72 62.1014 104.117 61.0723 104.243C60.5563 104.286 60.042 104.142 59.6237 103.837C59.3983 103.695 59.2028 103.511 59.0478 103.294C58.9122 103.093 58.8276 102.765 59.3381 102.785Z" fill="#FFFF0E"/>
<path style="mix-blend-mode:screen" d="M83.7348 87.0049C93.5836 82.883 99.4252 74.4225 96.7824 68.1078C94.1396 61.7931 84.0132 60.0155 74.1644 64.1373C64.3156 68.2592 58.474 76.7197 61.1168 83.0344C63.7596 89.3491 73.886 91.1268 83.7348 87.0049Z" fill="url(#paint9_radial_1_3552)"/>
<path style="mix-blend-mode:screen" d="M51.4448 51.9018C55.2499 46.2113 52.8629 37.9396 46.1134 33.4262C39.3638 28.9129 30.8076 29.8672 27.0025 35.5576C23.1974 41.248 25.5843 49.5198 32.3339 54.0331C39.0835 58.5464 47.6397 57.5922 51.4448 51.9018Z" fill="url(#paint10_radial_1_3552)"/>
<path style="mix-blend-mode:screen" d="M143.377 90.0562C146.809 84.9239 144.655 77.4627 138.566 73.3912C132.477 69.3196 124.759 70.1795 121.327 75.3118C117.895 80.4441 120.049 87.9053 126.138 91.9769C132.227 96.0484 139.945 95.1885 143.377 90.0562Z" fill="url(#paint11_radial_1_3552)"/>
<path style="mix-blend-mode:screen" d="M66.924 135.258C70.3559 130.125 68.202 122.664 62.1131 118.593C56.0242 114.521 48.3061 115.381 44.8742 120.513C41.4423 125.646 43.5962 133.107 49.6851 137.178C55.774 141.25 63.4921 140.39 66.924 135.258Z" fill="url(#paint12_radial_1_3552)"/>
</g>
<defs>
<radialGradient id="paint0_radial_1_3552" cx="0" cy="0" r="1" gradientUnits="userSpaceOnUse" gradientTransform="translate(80.002 80.0003) rotate(-45) scale(80.1278)">
<stop stop-color="#FF4000"/>
<stop offset="1" stop-color="#FF4000" stop-opacity="0"/>
</radialGradient>
<radialGradient id="paint1_radial_1_3552" cx="0" cy="0" r="1" gradientUnits="userSpaceOnUse" gradientTransform="translate(80 80.0004) scale(62.9325)">
<stop stop-color="#FF7300"/>
<stop offset="1" stop-color="#FF7300" stop-opacity="0"/>
</radialGradient>
<radialGradient id="paint2_radial_1_3552" cx="0" cy="0" r="1" gradientUnits="userSpaceOnUse" gradientTransform="translate(80.0008 80.0004) scale(60.0544)">
<stop stop-color="#FF7900"/>
<stop offset="0.18" stop-color="#FC7800"/>
<stop offset="0.32" stop-color="#F37300"/>
<stop offset="0.43" stop-color="#E36C00"/>
<stop offset="0.54" stop-color="#CC6100"/>
<stop offset="1" stop-color="#AF5300" stop-opacity="0"/>
</radialGradient>
<radialGradient id="paint3_radial_1_3552" cx="0" cy="0" r="1" gradientUnits="userSpaceOnUse" gradientTransform="translate(46.3304 53.5842) scale(87.4332 87.4332)">
<stop offset="0.01" stop-color="#DE6863"/>
<stop offset="0.2" stop-color="#DB6563"/>
<stop offset="0.35" stop-color="#D15D62"/>
<stop offset="0.49" stop-color="#C14F60"/>
<stop offset="0.62" stop-color="#A93B5E"/>
<stop offset="0.74" stop-color="#8B225B"/>
<stop offset="0.86" stop-color="#670357"/>
<stop offset="0.87" stop-color="#630057"/>
</radialGradient>
<linearGradient id="paint4_linear_1_3552" x1="25.6082" y1="64.1107" x2="103.904" y2="64.1107" gradientUnits="userSpaceOnUse">
<stop offset="0.01" stop-color="#FF7D85"/>
<stop offset="0.3" stop-color="#FC7B84"/>
<stop offset="0.51" stop-color="#F3757F"/>
<stop offset="0.7" stop-color="#E36B77"/>
<stop offset="0.87" stop-color="#CC5C6C"/>
<stop offset="1" stop-color="#B54D61"/>
</linearGradient>
<radialGradient id="paint5_radial_1_3552" cx="0" cy="0" r="1" gradientUnits="userSpaceOnUse" gradientTransform="translate(40.263 41.9964) scale(71.6419 71.6418)">
<stop stop-color="#FFFF4A"/>
<stop offset="1" stop-color="#FFFF4A" stop-opacity="0"/>
</radialGradient>
<linearGradient id="paint6_linear_1_3552" x1="25.3596" y1="55.6107" x2="121.52" y2="55.6107" gradientUnits="userSpaceOnUse">
<stop offset="0.01" stop-color="#FFB80B"/>
<stop offset="0.39" stop-color="#FFB60C"/>
<stop offset="0.58" stop-color="#FEAE10"/>
<stop offset="0.73" stop-color="#FCA117"/>
<stop offset="0.85" stop-color="#FA8E21"/>
<stop offset="0.97" stop-color="#F7762E"/>
<stop offset="1" stop-color="#F66D33"/>
</linearGradient>
<radialGradient id="paint7_radial_1_3552" cx="0" cy="0" r="1" gradientUnits="userSpaceOnUse" gradientTransform="translate(33.8002 104.512) scale(27.6453)">
<stop offset="0.01" stop-color="#FFB80B"/>
<stop offset="0.39" stop-color="#FFB60C"/>
<stop offset="0.58" stop-color="#FEAE10"/>
<stop offset="0.73" stop-color="#FCA117"/>
<stop offset="0.85" stop-color="#FA8E21"/>
<stop offset="0.97" stop-color="#F7762E"/>
<stop offset="1" stop-color="#F66D33"/>
</radialGradient>
<linearGradient id="paint8_linear_1_3552" x1="23.5076" y1="95.2921" x2="136.257" y2="95.2921" gradientUnits="userSpaceOnUse">
<stop offset="0.01" stop-color="#FFB80B"/>
<stop offset="0.39" stop-color="#FFB60C"/>
<stop offset="0.58" stop-color="#FEAE10"/>
<stop offset="0.73" stop-color="#FCA117"/>
<stop offset="0.85" stop-color="#FA8E21"/>
<stop offset="0.97" stop-color="#F7762E"/>
<stop offset="1" stop-color="#F66D33"/>
</linearGradient>
<radialGradient id="paint9_radial_1_3552" cx="0" cy="0" r="1" gradientUnits="userSpaceOnUse" gradientTransform="translate(80.6402 74.9452) rotate(-22.71) scale(19.367 12.4088)">
<stop stop-color="#FF5B00"/>
<stop offset="0.17" stop-color="#C54600"/>
<stop offset="1" stop-color="#802E00" stop-opacity="0"/>
</radialGradient>
<radialGradient id="paint10_radial_1_3552" cx="0" cy="0" r="1" gradientUnits="userSpaceOnUse" gradientTransform="translate(40.0075 44.522) rotate(33.77) scale(14.7282 12.4088)">
<stop stop-color="#FF5B00"/>
<stop offset="0.17" stop-color="#C54600"/>
<stop offset="1" stop-color="#802E00" stop-opacity="0"/>
</radialGradient>
<radialGradient id="paint11_radial_1_3552" cx="0" cy="0" r="1" gradientUnits="userSpaceOnUse" gradientTransform="translate(133.296 83.5569) rotate(33.77) scale(13.2856 11.1934)">
<stop stop-color="#FF5B00"/>
<stop offset="0.17" stop-color="#C54600"/>
<stop offset="1" stop-color="#802E00" stop-opacity="0"/>
</radialGradient>
<radialGradient id="paint12_radial_1_3552" cx="0" cy="0" r="1" gradientUnits="userSpaceOnUse" gradientTransform="translate(56.7331 128.797) rotate(33.77) scale(13.2856 11.1934)">
<stop stop-color="#FF5B00"/>
<stop offset="0.17" stop-color="#C54600"/>
<stop offset="1" stop-color="#802E00" stop-opacity="0"/>
</radialGradient>
<clipPath id="clip0_1_3552">
<rect width="160" height="160" fill="white"/>
</clipPath>
</defs>
</svg>
